<?xml version="1.0" encoding="utf-8"?>
<!-- Generator: Adobe Illustrator 23.0.1, SVG Export Plug-In . SVG Version: 6.00 Build 0)  -->
<svg version="1.1" id="Layer_1" xmlns="http://www.w3.org/2000/svg" xmlns:xlink="http://www.w3.org/1999/xlink" x="0px" y="0px"
	 viewBox="0 0 89.5 89.5" style="enable-background:new 0 0 89.5 89.5;" xml:space="preserve">
<style type="text/css">
	.st0{fill:#1C2F82;}
	.st1{enable-background:new    ;}
	.st2{fill:#FFFFFF;}
</style>
<g id="Group_504" transform="translate(-42 -72)">
	<path id="Path_75" class="st0" d="M42,119.9v41.6L131.5,72H90.2L42,119.9z"/>
	<g class="st1">
		<path class="st2" d="M54.7,136.1l-8-8l2.6-2.6c0.9-0.9,1.7-1.3,2.5-1.4s1.6,0.2,2.3,0.9c0.4,0.4,0.6,0.8,0.7,1.3
			c0.1,0.5,0,1-0.2,1.5c0.6-0.3,1.1-0.4,1.7-0.3c0.6,0.1,1.1,0.4,1.6,0.8c0.7,0.7,1.1,1.5,1,2.4c-0.1,0.9-0.5,1.7-1.4,2.6
			L54.7,136.1z M51.1,130.4l1.6-1.6c0.5-0.5,0.7-1,0.8-1.5c0-0.5-0.1-1-0.5-1.4c-0.4-0.4-0.9-0.6-1.4-0.6c-0.5,0.1-1,0.3-1.5,0.9
			l-1.6,1.6L51.1,130.4z M52,131.3l2.9,2.9l1.8-1.8c0.5-0.5,0.8-1,0.8-1.6c0-0.5-0.2-1-0.6-1.5c-1-1-2-0.9-3,0.1L52,131.3z"/>
		<path class="st2" d="M64.1,126.9c-0.8,0.8-1.7,1.2-2.8,1.2c-1,0-2-0.5-2.9-1.4l-0.2-0.2c-0.6-0.6-1-1.2-1.3-1.9
			c-0.2-0.7-0.3-1.4-0.1-2c0.1-0.7,0.5-1.2,0.9-1.7c0.8-0.8,1.6-1.1,2.6-1c0.9,0.1,1.9,0.6,2.8,1.6l0.4,0.4l-4,4
			c0.6,0.6,1.3,0.9,1.9,0.9c0.7,0,1.3-0.2,1.8-0.7c0.4-0.4,0.6-0.7,0.7-1.1c0.1-0.4,0.1-0.8,0.1-1.2l1.1-0.1
			C65.5,124.7,65.1,125.9,64.1,126.9z M58.6,121.6c-0.4,0.4-0.6,0.9-0.6,1.5c0,0.6,0.3,1.2,0.7,1.8l3-3l-0.1-0.1
			c-0.5-0.5-1.1-0.8-1.6-0.8C59.6,121,59.1,121.2,58.6,121.6z"/>
		<path class="st2" d="M69.4,118.2c-0.3-0.3-0.6-0.4-1-0.3c-0.4,0.1-0.9,0.3-1.5,0.7c-0.6,0.4-1.2,0.7-1.6,0.8
			c-0.5,0.2-0.9,0.2-1.2,0.1s-0.7-0.2-1-0.5c-0.5-0.5-0.7-1.1-0.6-1.9c0.1-0.8,0.4-1.5,1.1-2.1c0.7-0.7,1.4-1.1,2.2-1.1
			c0.8-0.1,1.4,0.2,2,0.7l-1,1c-0.3-0.3-0.6-0.4-1.1-0.4s-0.8,0.2-1.2,0.6c-0.4,0.4-0.6,0.7-0.6,1.1c0,0.4,0.1,0.7,0.3,1
			c0.2,0.2,0.5,0.3,0.9,0.3c0.3-0.1,0.8-0.3,1.4-0.7c0.6-0.4,1.2-0.7,1.6-0.8s0.9-0.2,1.3-0.1c0.4,0.1,0.7,0.3,1,0.6
			c0.5,0.5,0.7,1.2,0.6,1.9c-0.1,0.8-0.5,1.5-1.2,2.1c-0.5,0.5-1,0.8-1.5,1c-0.5,0.2-1.1,0.3-1.6,0.2s-0.9-0.3-1.3-0.7l1-1
			c0.4,0.3,0.8,0.5,1.2,0.4c0.5-0.1,0.9-0.3,1.3-0.7c0.4-0.4,0.6-0.8,0.7-1.2S69.7,118.4,69.4,118.2z"/>
		<path class="st2" d="M67.3,108.6l1.4,1.4l1.1-1.1l0.8,0.8l-1.1,1.1l3.7,3.7c0.2,0.2,0.5,0.4,0.7,0.4c0.2,0,0.4-0.1,0.7-0.3
			c0.1-0.1,0.3-0.3,0.4-0.6l0.8,0.8c-0.2,0.3-0.4,0.6-0.7,0.9c-0.5,0.5-0.9,0.7-1.4,0.6s-1-0.3-1.5-0.8l-3.7-3.7l-1.1,1.1l-0.8-0.8
			l1.1-1.1l-1.4-1.4L67.3,108.6z"/>
		<path class="st2" d="M79,108.6c-0.3-0.3-0.6-0.4-1-0.3c-0.4,0.1-0.9,0.3-1.5,0.7c-0.6,0.4-1.2,0.7-1.6,0.8
			c-0.5,0.1-0.9,0.2-1.2,0.1s-0.7-0.2-1-0.5c-0.5-0.5-0.7-1.1-0.6-1.9c0.1-0.8,0.4-1.5,1.1-2.1c0.7-0.7,1.4-1.1,2.2-1.1
			c0.8-0.1,1.4,0.2,2,0.7l-1,1c-0.3-0.3-0.6-0.4-1.1-0.4s-0.8,0.2-1.2,0.6c-0.4,0.4-0.6,0.7-0.6,1.1c0,0.4,0.1,0.7,0.3,1
			c0.2,0.2,0.5,0.3,0.9,0.3c0.3-0.1,0.8-0.3,1.4-0.7c0.6-0.4,1.2-0.7,1.6-0.8c0.5-0.2,0.9-0.2,1.3-0.1s0.7,0.3,1,0.6
			c0.5,0.5,0.7,1.2,0.6,1.9c-0.1,0.8-0.5,1.5-1.2,2.1c-0.5,0.5-1,0.8-1.5,1c-0.5,0.2-1.1,0.3-1.6,0.2s-0.9-0.3-1.3-0.7l1-1
			c0.4,0.3,0.8,0.5,1.2,0.4c0.5-0.1,0.9-0.3,1.3-0.7c0.4-0.4,0.6-0.8,0.7-1.2S79.2,108.9,79,108.6z"/>
		<path class="st2" d="M85.5,105.5c-0.8,0.8-1.7,1.2-2.8,1.2c-1,0-2-0.5-2.9-1.4l-0.2-0.2c-0.6-0.6-1-1.2-1.2-1.9
			c-0.2-0.7-0.3-1.4-0.1-2s0.5-1.2,0.9-1.7c0.8-0.8,1.6-1.1,2.6-1c0.9,0.1,1.9,0.6,2.8,1.6l0.4,0.4l-4,4c0.6,0.6,1.3,0.9,1.9,0.9
			c0.7,0,1.3-0.2,1.8-0.7c0.4-0.4,0.6-0.7,0.7-1.1c0.1-0.4,0.1-0.8,0.1-1.2l1.1-0.1C86.9,103.4,86.5,104.5,85.5,105.5z M80,100.3
			c-0.4,0.4-0.6,0.9-0.6,1.5c0,0.6,0.3,1.2,0.7,1.8l3-3l-0.1-0.1c-0.5-0.5-1.1-0.8-1.6-0.8C80.9,99.7,80.4,99.8,80,100.3z"/>
		<path class="st2" d="M90,100.8l-1,1l-8.5-8.5l1-1L90,100.8z"/>
		<path class="st2" d="M92.8,98l-1,1l-8.5-8.5l1-1L92.8,98z"/>
		<path class="st2" d="M97,94c-0.8,0.8-1.7,1.2-2.8,1.2c-1,0-2-0.5-2.9-1.4l-0.2-0.2c-0.6-0.6-1-1.2-1.3-1.9c-0.2-0.7-0.3-1.4-0.1-2
			c0.1-0.7,0.5-1.2,0.9-1.7c0.8-0.8,1.6-1.1,2.6-1c0.9,0.1,1.9,0.6,2.8,1.6l0.4,0.4l-4,4c0.6,0.6,1.3,0.9,1.9,0.9
			c0.7,0,1.3-0.2,1.8-0.7c0.4-0.4,0.6-0.7,0.7-1.1c0.1-0.4,0.1-0.8,0.1-1.2l1.1-0.1C98.3,91.9,98,93,97,94z M91.5,88.8
			c-0.4,0.4-0.6,0.9-0.6,1.5c0,0.6,0.3,1.2,0.7,1.8l3-3L94.6,89c-0.5-0.5-1.1-0.8-1.6-0.8C92.4,88.2,91.9,88.4,91.5,88.8z"/>
		<path class="st2" d="M98.2,82.5c-0.2,0.1-0.4,0.3-0.5,0.5c-0.7,0.7-0.8,1.4-0.5,2.2l4.2,4.2l-1,1l-6-6l1-1l0.7,0.7
			c-0.2-0.9,0-1.6,0.6-2.2c0.2-0.2,0.4-0.3,0.5-0.4L98.2,82.5z"/>
	</g>
</g>
</svg>
