<?xml version="1.0" encoding="utf-8"?>
<!-- Generator: Adobe Illustrator 23.0.1, SVG Export Plug-In . SVG Version: 6.00 Build 0)  -->
<svg version="1.1" id="Layer_1" xmlns="http://www.w3.org/2000/svg" xmlns:xlink="http://www.w3.org/1999/xlink" x="0px" y="0px"
	 viewBox="0 0 89.5 89.5" style="enable-background:new 0 0 89.5 89.5;" xml:space="preserve">
<style type="text/css">
	.st0{fill:#2CB5FF;}
	.st1{enable-background:new    ;}
	.st2{fill:#FFFFFF;}
</style>
<g id="Group_593" transform="translate(-42 -72)">
	<path id="Path_75" class="st0" d="M42,119.9v41.6L131.5,72H90.2L42,119.9z"/>
	<g class="st1">
		<path class="st2" d="M66.8,123.9l-1.1,1.1l-10.2-2.1l6.2,6.2l-1.1,1.1l-8-8l1.1-1.1l10.3,2.2l-6.2-6.2l1.1-1.1L66.8,123.9z"/>
		<path class="st2" d="M65.3,119.4c-0.6-0.6-1-1.2-1.2-1.9c-0.2-0.7-0.3-1.4-0.1-2c0.2-0.7,0.5-1.3,1-1.8c0.8-0.8,1.8-1.2,2.8-1.1
			c1.1,0.1,2.1,0.6,3,1.5l0.1,0.1c0.6,0.6,1,1.2,1.2,1.9c0.2,0.7,0.3,1.4,0.1,2s-0.5,1.3-1,1.8c-0.8,0.8-1.7,1.2-2.8,1.1
			C67.2,120.9,66.3,120.4,65.3,119.4L65.3,119.4z M66.4,118.5c0.7,0.7,1.3,1,2.1,1.1s1.3-0.1,1.8-0.6c0.5-0.5,0.7-1.1,0.6-1.8
			c-0.1-0.7-0.5-1.4-1.3-2.2c-0.7-0.7-1.3-1-2.1-1.1c-0.7-0.1-1.3,0.1-1.9,0.6c-0.5,0.5-0.7,1.1-0.6,1.8
			C65.2,117.1,65.7,117.8,66.4,118.5z"/>
		<path class="st2" d="M78.9,109.1l-3.4-5.7l1-1l4.2,7.7l-0.8,0.8l-6-3.1l3.1,5.9l-0.8,0.8l-7.7-4.2l1-1l5.7,3.3l-3.1-5.9l0.8-0.8
			L78.9,109.1z"/>
		<path class="st2" d="M80.2,104.5c-0.6-0.6-1-1.2-1.2-1.9c-0.2-0.7-0.3-1.4-0.1-2c0.2-0.7,0.5-1.3,1-1.8c0.8-0.8,1.8-1.2,2.8-1.1
			s2.1,0.6,3,1.5l0.1,0.1c0.6,0.6,1,1.2,1.2,1.9c0.2,0.7,0.3,1.4,0.1,2c-0.2,0.7-0.5,1.3-1,1.8c-0.8,0.8-1.7,1.2-2.8,1.1
			C82.2,106,81.2,105.5,80.2,104.5L80.2,104.5z M81.4,103.6c0.7,0.7,1.3,1,2.1,1.1c0.7,0.1,1.3-0.1,1.8-0.6c0.5-0.5,0.7-1.1,0.6-1.8
			c-0.1-0.7-0.5-1.4-1.3-2.2c-0.7-0.7-1.3-1-2.1-1.1c-0.7-0.1-1.3,0.1-1.9,0.6c-0.5,0.5-0.7,1.1-0.6,1.8S80.6,102.8,81.4,103.6z"/>
		<path class="st2" d="M84.3,89.5l1.2-1.2l0.1,3.1l-0.8,0.8L84.3,89.5z M91.9,95.7c-0.3-0.3-0.6-0.4-1-0.3c-0.4,0.1-0.9,0.3-1.5,0.7
			c-0.6,0.4-1.2,0.7-1.6,0.8c-0.5,0.1-0.9,0.2-1.2,0.1s-0.7-0.2-1-0.5c-0.5-0.5-0.7-1.1-0.6-1.9c0.1-0.8,0.4-1.5,1.1-2.1
			c0.7-0.7,1.4-1.1,2.2-1.1c0.8-0.1,1.4,0.2,2,0.7l-1,1c-0.3-0.3-0.6-0.4-1.1-0.4c-0.4,0-0.8,0.2-1.2,0.6c-0.4,0.4-0.6,0.7-0.6,1.1
			c0,0.4,0.1,0.7,0.3,0.9c0.2,0.2,0.5,0.3,0.8,0.3c0.3-0.1,0.8-0.3,1.4-0.7c0.6-0.4,1.2-0.7,1.6-0.8c0.5-0.2,0.9-0.2,1.3-0.1
			s0.7,0.3,1,0.6c0.5,0.5,0.7,1.2,0.6,1.9c-0.1,0.8-0.5,1.5-1.2,2.1c-0.5,0.5-1,0.8-1.5,1s-1.1,0.3-1.6,0.2s-0.9-0.3-1.3-0.7l1-1
			c0.4,0.3,0.8,0.5,1.2,0.4c0.5-0.1,0.9-0.3,1.3-0.7c0.4-0.4,0.6-0.8,0.7-1.2S92.1,96,91.9,95.7z"/>
		<path class="st2" d="M90,83.8l1.2-1.2l0.1,3.1l-0.8,0.8L90,83.8z M97.5,91.9c0.4-0.4,0.6-0.8,0.6-1.3c0.1-0.5-0.1-0.9-0.4-1.3l1-1
			c0.3,0.4,0.5,0.8,0.6,1.3c0.1,0.5,0,1.1-0.1,1.6c-0.2,0.5-0.5,1-0.9,1.4c-0.8,0.8-1.7,1.2-2.8,1.1c-1-0.1-2-0.6-3-1.5l-0.2-0.2
			c-0.6-0.6-1-1.2-1.2-1.9c-0.2-0.7-0.3-1.3-0.1-2c0.1-0.7,0.5-1.2,1-1.8c0.7-0.7,1.4-1,2.3-1.1c0.8,0,1.6,0.2,2.3,0.9l-1,1
			c-0.4-0.4-0.9-0.5-1.4-0.5c-0.5,0-1,0.2-1.3,0.6c-0.5,0.5-0.7,1.1-0.6,1.8c0.1,0.7,0.5,1.3,1.2,2l0.2,0.2c0.7,0.7,1.4,1.1,2,1.2
			C96.4,92.6,97,92.4,97.5,91.9z"/>
	</g>
</g>
</svg>
