<?xml version="1.0" encoding="utf-8"?>
<!-- Generator: Adobe Illustrator 23.0.1, SVG Export Plug-In . SVG Version: 6.00 Build 0)  -->
<svg version="1.1" id="Layer_1" xmlns="http://www.w3.org/2000/svg" xmlns:xlink="http://www.w3.org/1999/xlink" x="0px" y="0px"
	 viewBox="0 0 89.5 89.5" style="enable-background:new 0 0 89.5 89.5;" xml:space="preserve">
<style type="text/css">
	.st0{fill:#FFA200;}
	.st1{enable-background:new    ;}
	.st2{fill:#FFFFFF;}
</style>
<g id="Group_590" transform="translate(-42 -72)">
	<path id="Path_75" class="st0" d="M42,119.9v41.6L131.5,72H90.2L42,119.9z"/>
	<g class="st1">
		<path class="st2" d="M55.6,129.9l3.1,3.1l-1.1,1.1l-8-8l3-3c0.9-0.9,1.8-1.3,2.7-1.4c0.9,0,1.8,0.3,2.5,1c0.8,0.8,1.1,1.6,1.1,2.5
			c-0.1,0.9-0.6,1.8-1.5,2.7L55.6,129.9z M54.7,129l1.9-1.9c0.6-0.6,0.9-1.1,0.9-1.7s-0.2-1.1-0.7-1.6c-0.5-0.5-1-0.7-1.6-0.7
			c-0.6,0-1.2,0.3-1.7,0.8l-2,2L54.7,129z"/>
		<path class="st2" d="M62.5,119.2c-0.2,0.1-0.4,0.3-0.5,0.5c-0.7,0.7-0.8,1.4-0.5,2.2l4.2,4.2l-1,1l-6-6l1-1l0.7,0.7
			c-0.2-0.9,0-1.6,0.6-2.2c0.2-0.2,0.4-0.3,0.5-0.4L62.5,119.2z"/>
		<path class="st2" d="M65,120.7c-0.6-0.6-1-1.2-1.2-1.9c-0.2-0.7-0.3-1.4-0.1-2c0.2-0.7,0.5-1.3,1-1.8c0.8-0.8,1.8-1.2,2.8-1.1
			c1.1,0.1,2.1,0.6,3,1.5l0.1,0.1c0.6,0.6,1,1.2,1.2,1.9c0.2,0.7,0.3,1.4,0.1,2c-0.2,0.7-0.5,1.3-1,1.8c-0.8,0.8-1.7,1.2-2.8,1.1
			S66,121.7,65,120.7L65,120.7z M66.2,119.7c0.7,0.7,1.3,1,2.1,1.1c0.7,0.1,1.3-0.1,1.8-0.6c0.5-0.5,0.7-1.1,0.6-1.8
			s-0.5-1.4-1.3-2.2c-0.7-0.7-1.3-1-2.1-1.1c-0.7-0.1-1.3,0.1-1.8,0.6c-0.5,0.5-0.7,1.1-0.6,1.8S65.4,119,66.2,119.7z"/>
		<path class="st2" d="M69.8,110l0.7,0.6c-0.1-1,0.3-1.8,1-2.5c0.8-0.8,1.7-1.1,2.7-0.7c-0.1-0.5-0.1-1,0.1-1.5
			c0.1-0.5,0.4-1,0.9-1.4c1.3-1.3,2.7-1.3,4.1,0.1l4,4l-1,1l-3.9-3.9c-0.4-0.4-0.8-0.6-1.3-0.7c-0.4,0-0.8,0.2-1.3,0.7
			c-0.4,0.4-0.6,0.8-0.6,1.3c0,0.5,0.1,0.9,0.5,1.4l4,4l-1,1l-3.9-3.9c-0.9-0.9-1.7-0.9-2.6,0c-0.7,0.7-0.8,1.4-0.5,2.2l4.4,4.4
			l-1,1l-6-6L69.8,110z"/>
		<path class="st2" d="M81.4,104.3c-0.6-0.6-1-1.2-1.2-1.9c-0.2-0.7-0.3-1.4-0.1-2c0.2-0.7,0.5-1.3,1-1.8c0.8-0.8,1.8-1.2,2.8-1.1
			c1.1,0.1,2.1,0.6,3,1.5L87,99c0.6,0.6,1,1.2,1.2,1.9c0.2,0.7,0.3,1.4,0.1,2s-0.5,1.3-1,1.8c-0.8,0.8-1.7,1.2-2.8,1.1
			C83.4,105.8,82.4,105.3,81.4,104.3L81.4,104.3z M82.6,103.4c0.7,0.7,1.3,1,2.1,1.1s1.3-0.1,1.8-0.6c0.5-0.5,0.7-1.1,0.6-1.8
			c-0.1-0.7-0.5-1.4-1.3-2.2c-0.7-0.7-1.3-1-2.1-1.1c-0.7-0.1-1.3,0.1-1.9,0.6c-0.5,0.5-0.7,1.1-0.6,1.8
			C81.4,101.9,81.8,102.6,82.6,103.4z"/>
		<path class="st2" d="M92.8,97.5c0.4-0.4,0.6-0.8,0.6-1.3s-0.1-0.9-0.4-1.3l1-1c0.3,0.4,0.5,0.8,0.6,1.3c0.1,0.5,0,1.1-0.1,1.6
			c-0.2,0.5-0.5,1-0.9,1.4c-0.8,0.8-1.7,1.2-2.8,1.1s-2-0.6-3-1.5l-0.2-0.2c-0.6-0.6-1-1.2-1.2-1.9c-0.2-0.7-0.3-1.3-0.1-2
			c0.1-0.7,0.5-1.2,1-1.8c0.7-0.7,1.4-1,2.3-1.1c0.8,0,1.6,0.2,2.3,0.9l-1,1c-0.4-0.4-0.9-0.5-1.4-0.5c-0.5,0-1,0.2-1.3,0.6
			c-0.5,0.5-0.7,1.1-0.6,1.8c0.1,0.7,0.5,1.3,1.2,2l0.2,0.2c0.7,0.7,1.4,1.1,2,1.2C91.7,98.2,92.3,98,92.8,97.5z"/>
		<path class="st2" d="M89.5,87.2c-0.2-0.2-0.3-0.4-0.3-0.6c0-0.2,0.1-0.4,0.3-0.6c0.2-0.2,0.4-0.3,0.6-0.3c0.2,0,0.4,0.1,0.6,0.3
			c0.2,0.2,0.3,0.4,0.3,0.6c0,0.2-0.1,0.4-0.3,0.6s-0.4,0.3-0.6,0.3C89.8,87.4,89.6,87.4,89.5,87.2z M92.2,87.6l6.7,6.7
			c1.1,1.1,1.2,2.2,0.2,3.3c-0.2,0.2-0.5,0.4-0.7,0.5l-0.8-0.8c0.1-0.1,0.3-0.2,0.5-0.4c0.2-0.2,0.3-0.5,0.3-0.7
			c0-0.2-0.2-0.5-0.5-0.8l-6.7-6.7L92.2,87.6z"/>
		<path class="st2" d="M103.5,88.3c-0.2-0.1-0.4-0.2-0.8-0.5c0,1-0.3,1.8-1,2.4c-0.6,0.6-1.2,0.9-1.9,1S98.5,91,98,90.5
			c-0.6-0.6-0.9-1.3-0.7-2.2c0.1-0.8,0.6-1.7,1.5-2.5l1-1l-0.5-0.5c-0.4-0.4-0.7-0.5-1.2-0.5c-0.4,0-0.8,0.2-1.3,0.6
			c-0.4,0.4-0.6,0.8-0.6,1.2s0,0.8,0.3,1l-1,1c-0.3-0.3-0.5-0.7-0.5-1.2s0-1,0.2-1.5s0.5-1,1-1.4c0.7-0.7,1.4-1.1,2.1-1.1
			c0.7,0,1.4,0.2,2,0.8L103,86c0.5,0.5,1.1,0.9,1.5,1.1l0.1,0.1L103.5,88.3z M101,89.2c0.3-0.3,0.5-0.7,0.7-1.2
			c0.1-0.5,0.1-0.9,0-1.3l-1.2-1.2l-0.8,0.8c-1.3,1.3-1.5,2.2-0.8,3c0.3,0.3,0.7,0.5,1.1,0.4C100.3,89.7,100.7,89.5,101,89.2z"/>
	</g>
</g>
</svg>
