<?xml version="1.0" encoding="utf-8"?>
<!-- Generator: Adobe Illustrator 23.0.1, SVG Export Plug-In . SVG Version: 6.00 Build 0)  -->
<svg version="1.1" id="Layer_1" xmlns="http://www.w3.org/2000/svg" xmlns:xlink="http://www.w3.org/1999/xlink" x="0px" y="0px"
	 viewBox="0 0 89.5 89.5" style="enable-background:new 0 0 89.5 89.5;" xml:space="preserve">
<style type="text/css">
	.st0{fill:#FF2669;}
	.st1{enable-background:new    ;}
	.st2{fill:#FFFFFF;}
</style>
<g id="Group_592" transform="translate(-42 -72)">
	<path id="Path_75" class="st0" d="M42,119.9v41.6L131.5,72H90.2L42,119.9z"/>
	<g class="st1">
		<path class="st2" d="M54.9,131.2L56,132l-0.7-1.1l-3.8-6.8l0.8-0.8l6.7,3.8l1.1,0.7l-0.9-1.2l-4-6.3l1-1l5.7,9.4l-0.9,0.9l-7-3.9
			l-0.7-0.5l0.5,0.7l3.9,7.1l-0.9,0.9l-9.4-5.7l1-1L54.9,131.2z"/>
		<path class="st2" d="M65.3,122.7l-2.9-5.5l1-1l4.2,8.7c0.6,1.3,0.5,2.3-0.3,3.1l-0.2,0.2l-0.4,0.3l-0.8-0.8l0.3-0.2
			c0.3-0.3,0.5-0.6,0.6-1c0-0.3,0-0.7-0.3-1.2l-0.4-0.8l-7.5-3.5l1-1L65.3,122.7z"/>
		<path class="st2" d="M71.9,113.4c0.9,0.9,1.3,1.7,1.5,2.6c0.1,0.9-0.1,1.7-0.8,2.4c-0.7,0.7-1.4,1-2.3,1l2.7,2.7l-1,1l-7.8-7.8
			l0.9-0.9l0.7,0.6c-0.1-0.9,0.2-1.7,0.9-2.4c0.7-0.7,1.5-1,2.4-0.8C70,111.9,70.9,112.4,71.9,113.4L71.9,113.4z M70.8,114.3
			c-0.6-0.6-1.3-1-1.9-1.1c-0.6-0.1-1.2,0.1-1.7,0.6c-0.6,0.6-0.8,1.3-0.5,2.1l2.7,2.7c0.8,0.2,1.5,0,2.1-0.5c0.5-0.5,0.6-1,0.5-1.6
			C71.9,115.7,71.5,115,70.8,114.3z"/>
		<path class="st2" d="M73.8,107.5c-0.2,0.1-0.3,0.3-0.5,0.4c-0.6,0.6-0.8,1.3-0.5,2.1l4,4l-1,1l-5.6-5.6l0.9-0.9l0.7,0.6
			c-0.2-0.8,0-1.5,0.6-2.1c0.2-0.2,0.4-0.3,0.5-0.4L73.8,107.5z"/>
		<path class="st2" d="M79.5,109.7l3.3-3.3l0.8,0.8l-4.4,4.4l-0.7-0.7l-1-7.2l-3,3l-0.8-0.8l4.2-4.2l0.7,0.7L79.5,109.7z"/>
		<path class="st2" d="M87,104c-0.8,0.8-1.6,1.1-2.6,1.1c-1,0-1.9-0.5-2.7-1.3l-0.2-0.2c-0.6-0.6-0.9-1.2-1.2-1.8
			c-0.2-0.6-0.3-1.3-0.1-1.9c0.1-0.6,0.4-1.2,0.9-1.6c0.7-0.7,1.5-1.1,2.4-1c0.9,0.1,1.8,0.6,2.7,1.5l0.4,0.4l-3.8,3.8
			c0.6,0.5,1.2,0.8,1.8,0.9c0.6,0,1.2-0.2,1.7-0.7c0.3-0.3,0.6-0.7,0.7-1.1s0.1-0.8,0.1-1.2l1-0.1C88.3,102,88,103,87,104z
			 M81.9,99.1c-0.4,0.4-0.6,0.9-0.6,1.4c0,0.5,0.3,1.1,0.7,1.7l2.8-2.8l-0.1-0.1c-0.5-0.5-1-0.7-1.5-0.7
			C82.7,98.5,82.3,98.7,81.9,99.1z"/>
		<path class="st2" d="M87.1,97.9c-0.9-0.9-1.3-1.8-1.5-2.7c-0.1-0.9,0.2-1.7,0.8-2.4c0.7-0.7,1.4-1,2.2-0.9l-2.9-2.9l1-1l8,8
			L93.8,97l-0.6-0.6c0.1,0.9-0.2,1.6-0.9,2.3c-0.6,0.6-1.4,0.9-2.4,0.8C89,99.4,88.1,98.9,87.1,97.9L87.1,97.9z M88.2,97.1
			c0.6,0.6,1.3,1,1.9,1.1c0.6,0.1,1.2-0.1,1.6-0.5c0.6-0.6,0.8-1.3,0.5-2.1l-2.6-2.6c-0.8-0.2-1.5-0.1-2.1,0.5
			c-0.5,0.5-0.7,1-0.6,1.6C87.1,95.7,87.5,96.4,88.2,97.1z"/>
		<path class="st2" d="M99.7,91.1c-0.2-0.1-0.4-0.2-0.7-0.5c0,0.9-0.3,1.7-0.9,2.3c-0.6,0.6-1.2,0.8-1.8,0.9c-0.7,0-1.2-0.2-1.7-0.7
			c-0.6-0.6-0.8-1.3-0.7-2c0.1-0.8,0.6-1.6,1.4-2.4l0.9-0.9l-0.4-0.4c-0.3-0.3-0.7-0.5-1.1-0.5c-0.4,0-0.8,0.2-1.2,0.6
			c-0.3,0.3-0.5,0.7-0.6,1.1c-0.1,0.4,0,0.7,0.3,1l-1,1c-0.3-0.3-0.5-0.6-0.5-1.1c-0.1-0.5,0-0.9,0.2-1.4c0.2-0.5,0.5-0.9,0.9-1.3
			c0.6-0.6,1.3-1,2-1c0.7,0,1.3,0.2,1.9,0.8l2.6,2.6c0.5,0.5,1,0.9,1.4,1l0.1,0.1L99.7,91.1z M97.3,92c0.3-0.3,0.5-0.7,0.6-1.1
			c0.1-0.4,0.1-0.8,0-1.2l-1.2-1.2L96,89.3c-1.2,1.2-1.4,2.1-0.7,2.8c0.3,0.3,0.6,0.4,1,0.4C96.7,92.5,97,92.3,97.3,92z"/>
		<path class="st2" d="M96.3,80.4C96.1,80.2,96,80,96,79.8c0-0.2,0.1-0.4,0.3-0.6c0.2-0.2,0.4-0.3,0.6-0.3c0.2,0,0.4,0.1,0.5,0.2
			c0.2,0.2,0.2,0.3,0.2,0.5c0,0.2-0.1,0.4-0.3,0.6c-0.2,0.2-0.4,0.3-0.6,0.3C96.6,80.6,96.4,80.5,96.3,80.4z M102.1,87.1l3.3-3.3
			l0.8,0.8l-4.4,4.4l-0.7-0.7l-1-7.2l-3,3l-0.8-0.8l4.2-4.2l0.7,0.7L102.1,87.1z"/>
	</g>
</g>
</svg>
