<svg xmlns="http://www.w3.org/2000/svg" width="32" height="32" viewBox="0 0 32 32">
  <defs>
    <style>
      .cls-1 {
        fill: #fff;
      }
    </style>
  </defs>
  <g id="dentist-tools" transform="translate(-67.894 -3.408)">
    <g id="Group_43" data-name="Group 43" transform="translate(67.894 3.408)">
      <path id="Path_28" data-name="Path 28" class="cls-1" d="M6.843,18.2,5.577,14.9a.749.749,0,0,0-.7-.48H4.2V5.593l.63-.332a2.164,2.164,0,0,0-.08-3.869L1.964.073a.749.749,0,1,0-.643,1.354L4.1,2.746a.665.665,0,0,1,.025,1.19L3.1,4.478a.749.749,0,0,0-.4.663v9.277H2.016a.749.749,0,0,0-.7.48L.05,18.2a.751.751,0,0,0-.05.269V34.915a3.447,3.447,0,1,0,6.893,0V18.464a.749.749,0,0,0-.05-.269ZM2.531,15.917H4.362l.691,1.8H1.84Zm.916,20.947A1.95,1.95,0,0,1,1.5,34.915v-15.7h3.9v15.7A1.95,1.95,0,0,1,3.447,36.863Z" transform="translate(4.874 32) rotate(-135)"/>
    </g>
  </g>
</svg>
