<svg xmlns="http://www.w3.org/2000/svg" width="32" height="23.785" viewBox="0 0 32 23.785">
  <defs>
    <style>
      .cls-1 {
        fill: #fff;
      }
    </style>
  </defs>
  <g id="XMLID_1063_" transform="translate(0 -65.733)">
    <g id="XMLID_36_" transform="translate(0 65.733)">
      <path id="XMLID_39_" class="cls-1" d="M412.676,148.589a.625.625,0,1,0-.442-.183A.63.63,0,0,0,412.676,148.589Z" transform="translate(-386.302 -142.24)"/>
      <path id="XMLID_59_" class="cls-1" d="M31.167,79.33l-2.942-5.666a.625.625,0,0,0-1.109.576L28.3,76.515a6.716,6.716,0,0,0-2.032-.659l-3.58-6.894a.625.625,0,0,0-1-.154l-1.8,1.8a.75.75,0,1,1-1.06-1.06l2-2a1.913,1.913,0,0,1,3.05.471l.642,1.236a.625.625,0,1,0,1.109-.576l-.642-1.236a3.163,3.163,0,0,0-5.043-.779l-2,2a2,2,0,0,0,2.828,2.828l1.192-1.192,2.844,5.477H7.187l2.844-5.477,1.192,1.192a2,2,0,0,0,2.828-2.828l-2-2a3.163,3.163,0,0,0-5.043.779L.833,79.33a6.72,6.72,0,0,0-.442,5.5,7,7,0,0,0,12.861.827l1.208-2.409A5.149,5.149,0,0,0,15,80.52H17a5.149,5.149,0,0,0,.536,2.729l1.208,2.409a7,7,0,0,0,12.861-.827,6.72,6.72,0,0,0-.442-5.5ZM8.117,68.014a1.913,1.913,0,0,1,3.05-.471l2,2a.75.75,0,1,1-1.06,1.06l-1.8-1.8a.625.625,0,0,0-1,.154l-3.58,6.894a6.712,6.712,0,0,0-2.032.66ZM2.284,79.364a5.5,5.5,0,0,1,4.535-2.343h1.79L1.483,84.147a5.491,5.491,0,0,1,.8-4.783Zm-.271,6.021,8.332-8.332a3.874,3.874,0,0,1,2.238,1.085l-9,9a5.75,5.75,0,0,1-1.567-1.756Zm11.329-2.7L12.134,85.1A5.743,5.743,0,0,1,4.7,87.788l8.631-8.631a3.884,3.884,0,0,1,.011,3.532Zm1.392-3.419a5.237,5.237,0,0,0-1.518-2.25h5.567a5.238,5.238,0,0,0-1.518,2.25Zm4.091-.391a3.888,3.888,0,0,1,3.33-1.858h3.025c.134,0,.266.005.4.014l-6.5,6.5-.423-.843A3.888,3.888,0,0,1,18.825,78.879ZM19.866,85.1l-.195-.388,7.374-7.374a5.454,5.454,0,0,1,2.04,1.283l-8.058,8.058A5.779,5.779,0,0,1,19.866,85.1Zm10.564-.679a5.757,5.757,0,0,1-8.4,3.025L29.873,79.6A5.491,5.491,0,0,1,30.43,84.418Z" transform="translate(0 -65.733)"/>
    </g>
  </g>
</svg>
