<svg xmlns="http://www.w3.org/2000/svg" width="55" height="55" viewBox="0 0 55 55"><path d="M1.719,30.938A1.724,1.724,0,0,0,0,32.656v3.438a1.724,1.724,0,0,0,1.719,1.719H13.75V30.938ZM54.248,11.279,43.731.752A2.576,2.576,0,0,0,41.905,0H41.25V13.75H55v-.655A2.57,2.57,0,0,0,54.248,11.279Zm-16.436,3.33V0H16.328A2.572,2.572,0,0,0,13.75,2.578V30.938H27.5v-7a1.723,1.723,0,0,1,2.943-1.214l10.27,10.366a1.828,1.828,0,0,1,0,2.578L30.433,46.02a1.723,1.723,0,0,1-2.943-1.214V37.813H13.75V52.422A2.572,2.572,0,0,0,16.328,55H52.422A2.572,2.572,0,0,0,55,52.422V17.188H40.391A2.586,2.586,0,0,1,37.813,14.609Z" fill="#fff"/></svg>