<svg xmlns="http://www.w3.org/2000/svg" width="27" height="32" viewBox="0 0 27 32">
  <defs>
    <style>
      .cls-1 {
        fill: #fff;
      }
    </style>
  </defs>
  <g id="XMLID_209_" transform="translate(-40)">
    <path id="XMLID_249_" class="cls-1" d="M63.993,10.312l-.868-1.347V8.25A2.242,2.242,0,0,0,62.5,6.7V2.125a2.125,2.125,0,1,0-4.25,0V6h-1.5V5.406a3.25,3.25,0,0,0-6.5,0V6h-1.5V2.125a2.125,2.125,0,0,0-4.25,0V6.7a2.242,2.242,0,0,0-.625,1.554v.715l-.868,1.347A18.808,18.808,0,0,0,40,20.524v5.538A5.944,5.944,0,0,0,45.937,32H61.062A5.944,5.944,0,0,0,67,26.063V20.524A18.808,18.808,0,0,0,63.993,10.312ZM59.5,2.125a.875.875,0,1,1,1.75,0V6H59.5Zm-8,3.281a2,2,0,0,1,4,0V6h-4ZM45.75,2.125a.875.875,0,0,1,1.75,0V6H45.75ZM48.33,30.75a1.769,1.769,0,0,1-1.767-1.767V26.061a3.11,3.11,0,0,0,1.876.627H58.577a3.11,3.11,0,0,0,1.876-.627v2.921a1.769,1.769,0,0,1-1.767,1.767Zm-1.767-7.188A1.769,1.769,0,0,1,48.33,21.8H58.686a1.769,1.769,0,0,1,1.767,1.767,1.878,1.878,0,0,1-1.876,1.876H48.439A1.878,1.878,0,0,1,46.562,23.563Zm19.188,2.5a4.692,4.692,0,0,1-4.619,4.686,3,3,0,0,0,.573-1.765v-5.42a3.021,3.021,0,0,0-3.017-3.017H48.33a3.021,3.021,0,0,0-3.017,3.017v5.42a3,3,0,0,0,.573,1.766,4.692,4.692,0,0,1-4.635-4.686V20.524A17.56,17.56,0,0,1,44,11.083a7.247,7.247,0,0,0,6.647,5.891.625.625,0,0,0,.079-1.248,5.992,5.992,0,0,1-5.6-5.972V8.25a1,1,0,0,1,1-1h14.75a1,1,0,0,1,1,1V9.755a5.991,5.991,0,0,1-5.606,5.972.625.625,0,0,0,.038,1.249h.039A7.245,7.245,0,0,0,63,11.083a17.561,17.561,0,0,1,2.748,9.441Z"/>
    <path id="XMLID_276_" class="cls-1" d="M224.207,150a2.12,2.12,0,1,0,2.12,2.12A2.122,2.122,0,0,0,224.207,150Zm0,2.989a.87.87,0,1,1,.87-.87A.871.871,0,0,1,224.207,152.989Z" transform="translate(-170.707 -140.625)"/>
    <path id="XMLID_277_" class="cls-1" d="M246.565,251.76a.625.625,0,1,0,.442.183.631.631,0,0,0-.442-.183Z" transform="translate(-193.069 -236.025)"/>
  </g>
</svg>
