<svg id="XMLID_375_" xmlns="http://www.w3.org/2000/svg" width="32" height="32" viewBox="0 0 32 32">
  <defs>
    <style>
      .cls-1 {
        fill: #fff;
      }
    </style>
  </defs>
  <g id="XMLID_48_">
    <path id="XMLID_92_" class="cls-1" d="M60.125,296.5a.625.625,0,0,0-.625.625v2.063a3.125,3.125,0,0,1-6.25,0v-2.062a.625.625,0,0,0-1.25,0v2.063a4.375,4.375,0,0,0,8.75,0v-2.062A.625.625,0,0,0,60.125,296.5Z" transform="translate(-48.75 -277.969)"/>
    <path id="XMLID_104_" class="cls-1" d="M31.375,7.25h-4a7.374,7.374,0,0,0-14.747,0h-4A.625.625,0,0,0,8,7.875V15.75H.625A.625.625,0,0,0,0,16.375v15A.625.625,0,0,0,.625,32h30.75A.625.625,0,0,0,32,31.375V7.875A.625.625,0,0,0,31.375,7.25Zm-17.5.125a6.125,6.125,0,0,1,12.25,0v4.438a.625.625,0,0,1-1.25,0V7.375a4.875,4.875,0,0,0-9.75,0v4.438a.625.625,0,0,1-1.25,0Zm9.747-.125H16.378a3.624,3.624,0,0,1,7.244,0Zm7.128,23.5H15.25V26.688a.625.625,0,0,0-1.25,0V30.75H1.25V17H14v4.063a.625.625,0,0,0,1.25,0V16.375a.625.625,0,0,0-.625-.625H9.25V8.5h3.375v3.313a1.875,1.875,0,0,0,3.75,0V8.5h7.25v3.313a1.875,1.875,0,0,0,3.75,0V8.5H30.75Z"/>
    <path id="XMLID_122_" class="cls-1" d="M224.625,372a.625.625,0,1,0,.442.183A.63.63,0,0,0,224.625,372Z" transform="translate(-210 -348.75)"/>
  </g>
</svg>
