<svg xmlns="http://www.w3.org/2000/svg" width="81.444" height="83.104" viewBox="0 0 81.444 83.104"><g transform="translate(-0.089 -0.001)"><path d="M1.618,22.957a3.362,3.362,0,0,0-.053.5v3.419a3.389,3.389,0,0,0,2.2,3.163v5.03a3.162,3.162,0,0,0,3.012,3.148V67.275a3.163,3.163,0,0,0-3.012,3.148v5.015a3.427,3.427,0,0,0-2.2,3.193v3.344A1.13,1.13,0,0,0,2.7,83.1H78.876a1.13,1.13,0,0,0,1.129-1.129V78.631a3.427,3.427,0,0,0-2.2-3.193V70.393a3.163,3.163,0,0,0-3.012-3.148V38.214a3.163,3.163,0,0,0,3.012-3.148v-5.03a3.389,3.389,0,0,0,2.2-3.163v-3.4a3.284,3.284,0,0,0-.053-.5,1.125,1.125,0,0,0,.912-2.056L41.305.132a1.13,1.13,0,0,0-1.055,0L.692,20.9a1.13,1.13,0,0,0,.926,2.056Zm4.406,9.037v-1.74H19.052v1.725Zm29.008,6.228V67.275a3.163,3.163,0,0,0-3.012,3.148v4.8H21.3v-4.8a3.163,3.163,0,0,0-3.012-3.148V38.214A3.162,3.162,0,0,0,21.3,35.066V30.254H32v4.805a3.164,3.164,0,0,0,3.013,3.155Zm-.753-6.228v-1.74H47.307v1.725Zm29.009,6.228V67.275a3.164,3.164,0,0,0-3.013,3.148v4.8H49.551v-4.8a3.164,3.164,0,0,0-3.012-3.148V38.214a3.163,3.163,0,0,0,3.012-3.148V30.254H60.26v4.805a3.163,3.163,0,0,0,3.012,3.155Zm-.753-6.228v-1.74H75.562v1.725ZM75.562,73.5v1.724H62.519V73.5Zm-28.255,0v1.724H34.264V73.5ZM36.146,35.978h-.979a.9.9,0,0,1-.9-.9v-.821H47.292v.821a.9.9,0,0,1-.9.9Zm8.141,2.259V67.26H37.276V38.237ZM36.146,69.519H46.388a.9.9,0,0,1,.9.9v.821H34.264v-.821a.9.9,0,0,1,.9-.9ZM19.037,73.5v1.724H6.008V73.5ZM6.008,35.1v-.844H19.037v.821a.9.9,0,0,1-.9.9H6.889a.9.9,0,0,1-.881-.911Zm10.016,3.163v29h-7V38.237ZM6.008,70.446a.9.9,0,0,1,.9-.9H18.133a.9.9,0,0,1,.9.9v.821H6.008Zm71.737,8.231V80.89H3.81V78.677a1.167,1.167,0,0,1,1.167-1.168h71.6a1.168,1.168,0,0,1,1.167,1.145Zm-2.2-8.231v.821H62.519v-.821a.9.9,0,0,1,.9-.9H74.666a.9.9,0,0,1,.881.881ZM65.531,67.283V38.237h7.011V67.26ZM75.547,35.1a.9.9,0,0,1-.9.9H63.43a.9.9,0,0,1-.9-.9v-.844H75.554ZM40.778,2.391l33.64,17.682H7.138ZM3.81,23.476a1.13,1.13,0,0,1,1.129-1.129H76.617a1.13,1.13,0,0,1,1.129,1.129V26.9a1.13,1.13,0,0,1-1.129,1.129H4.939A1.13,1.13,0,0,1,3.81,26.9Zm0,0" transform="translate(0)" fill="#1d2128"/></g></svg>