<svg xmlns="http://www.w3.org/2000/svg" width="26.25" height="32" viewBox="0 0 26.25 32">
  <defs>
    <style>
      .cls-1 {
        fill: #fff;
      }
    </style>
  </defs>
  <g id="hoodie" transform="translate(0 0)">
    <path id="Path_41" data-name="Path 41" class="cls-1" d="M240.625,227.25a.625.625,0,1,0-.625-.625A.625.625,0,0,0,240.625,227.25Zm0,0" transform="translate(-225 -211.875)"/>
    <path id="Path_42" data-name="Path 42" class="cls-1" d="M160.625,227.25a.625.625,0,1,0-.625-.625A.625.625,0,0,0,160.625,227.25Zm0,0" transform="translate(-150 -211.875)"/>
    <path id="Path_43" data-name="Path 43" class="cls-1" d="M0,23.875a1.88,1.88,0,0,0,.625,1.4v2.354a.625.625,0,0,0,.625.625H3.857A1.885,1.885,0,0,0,5,29.393v1.982A.625.625,0,0,0,5.625,32h15a.625.625,0,0,0,.625-.625V29.393a1.885,1.885,0,0,0,1.143-1.143H25a.625.625,0,0,0,.625-.625V25.271a1.879,1.879,0,0,0,.625-1.4V9.707a5.652,5.652,0,0,0-2.731-4.823L20.982,3.361a3.183,3.183,0,0,0-.423-.21L19.387,1.392A3.127,3.127,0,0,0,16.787,0H9.463a3.127,3.127,0,0,0-2.6,1.391L5.691,3.15a3.2,3.2,0,0,0-.424.211L2.731,4.883A5.651,5.651,0,0,0,0,9.707ZM1.875,25.75H3.75V27H1.875Zm4.375,5V29.5H20v1.25ZM24.375,27H22.5V25.75h1.875ZM13.922,5.668A4.4,4.4,0,0,1,15.5,3.375L17.871,1.6a1.865,1.865,0,0,1,.475.488l.576.865a3.122,3.122,0,0,0-1.156.412ZM8.483,3.361a3.121,3.121,0,0,0-1.156-.412L7.9,2.085A1.871,1.871,0,0,1,8.379,1.6L10.75,3.375a4.4,4.4,0,0,1,1.578,2.293ZM10,1.25H16.25l-1.5,1.125a5.63,5.63,0,0,0-1.625,1.931A5.626,5.626,0,0,0,11.5,2.375ZM1.25,9.707A4.395,4.395,0,0,1,3.374,5.955L5.909,4.434a1.875,1.875,0,0,1,1.93,0L10,5.729V12.25a.625.625,0,1,0,1.25,0V6.479l1.553.932a.642.642,0,0,0,.32.089h0a.641.641,0,0,0,.32-.089L15,6.479V12.25a.625.625,0,0,0,1.25,0V5.729l2.16-1.3a1.876,1.876,0,0,1,1.929,0l2.536,1.522A4.395,4.395,0,0,1,25,9.707V23.875a.627.627,0,0,1-.625.625H22.5V12.25a.625.625,0,1,0-1.25,0V27.625a.626.626,0,0,1-.625.625h-15A.626.626,0,0,1,5,27.625V12.25a.625.625,0,1,0-1.25,0V24.5H1.875a.626.626,0,0,1-.625-.625Zm0,0"/>
    <path id="Path_44" data-name="Path 44" class="cls-1" d="M110.625,319.5h11.25a.625.625,0,0,0,.625-.625v-1.25a.624.624,0,0,0-.066-.28l-2.5-5a.625.625,0,0,0-.559-.345h-6.25a.625.625,0,0,0-.559.345l-2.5,5a.623.623,0,0,0-.066.28v1.25A.625.625,0,0,0,110.625,319.5Zm.625-1.728,2.261-4.522h5.478l2.261,4.522v.478h-10Zm0,0" transform="translate(-103.125 -292.5)"/>
  </g>
</svg>
