<svg xmlns="http://www.w3.org/2000/svg" width="32" height="27.119" viewBox="0 0 32 27.119">
  <defs>
    <style>
      .cls-1 {
        fill: #fff;
      }
    </style>
  </defs>
  <g id="shoes" transform="translate(0 -39.049)">
    <g id="Group_72" data-name="Group 72" transform="translate(0 39.049)">
      <path id="Path_83" data-name="Path 83" class="cls-1" d="M50.257,59.44a5.681,5.681,0,0,0-2.913-2.069l-1.356-.419A3.886,3.886,0,0,1,43.5,54.626L39.775,44.98a2.934,2.934,0,0,0-3.533-1.769h0a3.618,3.618,0,0,1-4.5-2.519l-.325-1.184a.625.625,0,0,0-.6-.46,7.975,7.975,0,0,0-7.856,6.6,3.981,3.981,0,0,0-.989,6.555l5.918,5.365h-6.18a.625.625,0,1,0,0,1.25h7.559l4.953,4.49A10.971,10.971,0,0,0,36.5,64.9H28.853a.625.625,0,1,0,0,1.25l19.179.016h.009a3.333,3.333,0,0,0,3.333-3.333A5.681,5.681,0,0,0,50.257,59.44Zm-3.282-.875a4.444,4.444,0,0,1,3.1,3.645H45.73a14.4,14.4,0,0,1-7.352-2.027,28.324,28.324,0,0,0,5.381-3.069,5.157,5.157,0,0,0,1.861,1.032ZM38.609,45.43l.369.957-.854.388a.625.625,0,1,0,.517,1.138l.788-.358L40.18,49.5l-.914.415a.625.625,0,1,0,.517,1.138l.847-.385.775,2.009-.6.273a.625.625,0,1,0,.517,1.138l.534-.243.475,1.23a5.2,5.2,0,0,0,.586,1.1q-1.032.742-2.127,1.383l-5.515-9.52a2.519,2.519,0,0,1,1.317-3.63A1.677,1.677,0,0,1,38.609,45.43ZM26.128,42.216a4.517,4.517,0,0,1,1.18,6.772l-3.067-3.355A6.692,6.692,0,0,1,26.128,42.216ZM49.511,64.31a2.069,2.069,0,0,1-1.471.608h-.005L41.562,64.9a9.694,9.694,0,0,1-6.5-2.516L22.815,51.28a2.73,2.73,0,0,1,.755-4.529l6.2,6.78h0a.624.624,0,0,0,.922-.842h0l-2.531-2.768a5.768,5.768,0,0,0-1-8.525,6.7,6.7,0,0,1,3.193-1.077l.194.708a4.881,4.881,0,0,0,3.883,3.515,3.77,3.77,0,0,0-.23,4.129l5.5,9.5a26.965,26.965,0,0,1-2.57,1.182,14.312,14.312,0,0,1-2.008-1.815l-.636-.7a.625.625,0,1,0-.923.843l.636.7A15.66,15.66,0,0,0,45.73,63.46h4.3a2.073,2.073,0,0,1-.517.85Z" transform="translate(-19.373 -39.049)"/>
      <path id="Path_84" data-name="Path 84" class="cls-1" d="M25.6,452.689H21.224a.625.625,0,0,0,0,1.25H25.6a.625.625,0,0,0,0-1.25Z" transform="translate(-19.312 -426.836)"/>
      <path id="Path_85" data-name="Path 85" class="cls-1" d="M2.965,394.67a.625.625,0,0,0-.625-.625H.625a.625.625,0,0,0,0,1.25H2.34A.625.625,0,0,0,2.965,394.67Z" transform="translate(0 -371.858)"/>
      <path id="Path_86" data-name="Path 86" class="cls-1" d="M79.39,395.3a.625.625,0,0,0,0-1.25H75.4a.625.625,0,0,0,0,1.25Z" transform="translate(-70.099 -371.858)"/>
      <circle id="Ellipse_6" data-name="Ellipse 6" class="cls-1" cx="0.625" cy="0.625" r="0.625" transform="translate(12.128 15.509)"/>
    </g>
  </g>
</svg>
