<svg xmlns="http://www.w3.org/2000/svg" width="32" height="27.5" viewBox="0 0 32 27.5">
  <defs>
    <style>
      .cls-1 {
        fill: #fff;
      }
    </style>
  </defs>
  <g id="briefcase" transform="translate(0 -35.999)">
    <g id="Group_4" data-name="Group 4" transform="translate(0 35.999)">
      <path id="Path_5" data-name="Path 5" class="cls-1" d="M28.875,41h-6V39.124A3.129,3.129,0,0,0,19.75,36h-7.5a3.129,3.129,0,0,0-3.125,3.125V41h-6A3.129,3.129,0,0,0,0,44.124v6.25a1.878,1.878,0,0,0,1.25,1.768v8.232A3.129,3.129,0,0,0,4.375,63.5h23.25a3.129,3.129,0,0,0,3.125-3.125V52.142A1.878,1.878,0,0,0,32,50.374v-6.25A3.129,3.129,0,0,0,28.875,41Zm-18.5,0V39.124a1.877,1.877,0,0,1,1.875-1.875h7.5a1.877,1.877,0,0,1,1.875,1.875V41h-1.25V39.124a.625.625,0,0,0-.625-.625h-7.5a.625.625,0,0,0-.625.625V41Zm8.75,0h-6.25v-1.25h6.25Zm8.5,21.25H4.375A1.877,1.877,0,0,1,2.5,60.374V52.249h9.125v.625a.625.625,0,0,0,.424.592,12.494,12.494,0,0,0,1.763.458v1.762a2.187,2.187,0,1,0,4.375,0V53.924a12.486,12.486,0,0,0,1.763-.458.625.625,0,0,0,.424-.592v-.625H29.5v8.125A1.877,1.877,0,0,1,27.625,62.249ZM15.063,54.087q.468.036.938.037t.938-.037v1.6a.937.937,0,1,1-1.875,0Zm-2.187-1.67V51a.626.626,0,0,1,.625-.625h5a.626.626,0,0,1,.625.625v1.418A10.954,10.954,0,0,1,12.875,52.417ZM30.75,50.374a.626.626,0,0,1-.625.625h-9.75A1.877,1.877,0,0,0,18.5,49.124h-5A1.877,1.877,0,0,0,11.625,51H1.875a.626.626,0,0,1-.625-.625v-6.25a1.877,1.877,0,0,1,1.875-1.875h25.75a1.877,1.877,0,0,1,1.875,1.875Z" transform="translate(0 -35.999)"/>
      <path id="Path_6" data-name="Path 6" class="cls-1" d="M150.62,156a.625.625,0,0,0,0,1.25h0a.625.625,0,1,0,0-1.25Z" transform="translate(-140.62 -148.502)"/>
      <path id="Path_7" data-name="Path 7" class="cls-1" d="M54.064,156H50.627a.625.625,0,0,0,0,1.25h3.437a.625.625,0,0,0,0-1.25Z" transform="translate(-46.877 -148.502)"/>
    </g>
  </g>
</svg>
