<svg xmlns="http://www.w3.org/2000/svg" width="37.001" height="37" viewBox="0 0 37.001 37"><path d="M11.744,21.75A7.116,7.116,0,0,0,4.91,26.834a1.073,1.073,0,0,1-1.026.7C3.1,27.536.688,25.59,0,25.121,0,30.911,2.667,36,9,36c5.334,0,9-3.078,9-8.451a6.092,6.092,0,0,0-.068-.642L11.744,21.75ZM32.2,0a4.294,4.294,0,0,0-2.827,1.157C15,14,13.5,14.3,13.5,18.077a6.509,6.509,0,0,0,.614,2.721L18.6,24.537a6.47,6.47,0,0,0,1.574.213c4.367,0,6.9-3.2,14.847-18.032A7.235,7.235,0,0,0,36,3.484,3.661,3.661,0,0,0,32.2,0Z" transform="translate(0.501 0.5)" fill="none" stroke="#707070" stroke-width="1"/></svg>