<svg xmlns="http://www.w3.org/2000/svg" width="58" height="57.999" viewBox="0 0 58 57.999"><path d="M17.942,33.229C13.632,33.506,9.721,35.148,7.5,41a1.639,1.639,0,0,1-1.567,1.072c-1.193,0-4.883-2.972-5.935-3.69C0,47.224,4.075,55,13.75,55,21.9,55,27.5,50.3,27.5,42.088a9.307,9.307,0,0,0-.1-.981ZM49.187,0a6.56,6.56,0,0,0-4.319,1.767C22.91,21.382,20.625,21.843,20.625,27.617a9.945,9.945,0,0,0,.938,4.157l6.856,5.713a9.884,9.884,0,0,0,2.405.325c6.672,0,10.539-4.884,22.683-27.549A11.053,11.053,0,0,0,55,5.323C55,2.217,52.206,0,49.187,0Z" transform="translate(1.501 1.5)" fill="none" stroke="#fff" stroke-width="3"/></svg>