<svg xmlns="http://www.w3.org/2000/svg" xmlns:xlink="http://www.w3.org/1999/xlink" width="95" height="92" viewBox="0 0 95 92"><defs><style>.a{fill:#2cb5ff;}.b{fill:none;stroke:#fff;stroke-linecap:round;stroke-linejoin:round;stroke-width:3px;}.c{fill:#fff;}.d{filter:url(#a);}</style><filter id="a" x="0" y="0" width="95" height="92" filterUnits="userSpaceOnUse"><feOffset dy="10" input="SourceAlpha"/><feGaussianBlur stdDeviation="5" result="b"/><feFlood flood-opacity="0.161"/><feComposite operator="in" in2="b"/><feComposite in="SourceGraphic"/></filter></defs><g transform="translate(-1638.057 -619)"><g class="d" transform="matrix(1, 0, 0, 1, 1638.06, 619)"><path class="a" d="M31,0h3A31,31,0,0,1,65,31v0A31,31,0,0,1,34,62H0a0,0,0,0,1,0,0V31A31,31,0,0,1,31,0Z" transform="translate(15 5)"/></g><path class="b" d="M49.39,25.367A20.311,20.311,0,0,1,47.146,34.7a21.362,21.362,0,0,1-28.431,9.329L4.5,48.689,9.238,34.7a20.311,20.311,0,0,1-2.245-9.329A20.836,20.836,0,0,1,18.715,6.709,21.17,21.17,0,0,1,28.192,4.5h1.247A20.985,20.985,0,0,1,49.39,24.14Z" transform="translate(1657.377 628.975)"/><circle class="c" cx="2.5" cy="2.5" r="2.5" transform="translate(1675.057 653)"/><circle class="c" cx="2.5" cy="2.5" r="2.5" transform="translate(1684.057 653)"/><circle class="c" cx="2.5" cy="2.5" r="2.5" transform="translate(1693.057 653)"/></g></svg>