<svg xmlns="http://www.w3.org/2000/svg" width="30" height="30" viewBox="0 0 30 30"><g fill="none"><path d="M15,0A15,15,0,1,1,0,15,15,15,0,0,1,15,0Z" stroke="none"/><path d="M 15 2 C 11.5275707244873 2 8.262990951538086 3.352239608764648 5.807609558105469 5.807609558105469 C 3.352239608764648 8.262990951538086 2 11.5275707244873 2 15 C 2 18.47243118286133 3.352239608764648 21.73701095581055 5.807609558105469 24.19239044189453 C 8.262990951538086 26.64776039123535 11.5275707244873 28 15 28 C 18.47243118286133 28 21.73701095581055 26.64776039123535 24.19239044189453 24.19239044189453 C 26.64776039123535 21.73701095581055 28 18.47243118286133 28 15 C 28 11.5275707244873 26.64776039123535 8.262990951538086 24.19239044189453 5.807609558105469 C 21.73701095581055 3.352239608764648 18.47243118286133 2 15 2 M 15 0 C 23.28426933288574 0 30 6.715730667114258 30 15 C 30 23.28426933288574 23.28426933288574 30 15 30 C 6.715730667114258 30 0 23.28426933288574 0 15 C 0 6.715730667114258 6.715730667114258 0 15 0 Z" stroke="none" fill="#fff"/></g><g transform="translate(9 6)" fill="none"><path d="M6,0A6,6,0,1,1,0,6,6,6,0,0,1,6,0Z" stroke="none"/><path d="M 6 2 C 3.794389724731445 2 2 3.794389724731445 2 6 C 2 8.205610275268555 3.794389724731445 10 6 10 C 8.205610275268555 10 10 8.205610275268555 10 6 C 10 3.794389724731445 8.205610275268555 2 6 2 M 6 0 C 9.31371021270752 0 12 2.68628978729248 12 6 C 12 9.31371021270752 9.31371021270752 12 6 12 C 2.68628978729248 12 0 9.31371021270752 0 6 C 0 2.68628978729248 2.68628978729248 0 6 0 Z" stroke="none" fill="#fff"/></g><path d="M1419.039,36.862s9.907-18.788,19.68,0" transform="translate(-1414 -11)" fill="none" stroke="#fff" stroke-width="2"/></svg>