<svg xmlns="http://www.w3.org/2000/svg" xmlns:xlink="http://www.w3.org/1999/xlink" width="161.018" height="70.492" viewBox="0 0 161.018 70.492"><defs><linearGradient id="a" x1="1.694" y1="-3.032" x2="3.905" y2="-1.44" gradientUnits="objectBoundingBox"><stop offset="0" stop-color="#a90034"/><stop offset="0.272" stop-color="#b03"/><stop offset="0.723" stop-color="#d30032"/><stop offset="1" stop-color="#dc0032"/></linearGradient></defs><g transform="translate(-83.57 -298.624)"><path d="M328.047,377.444a43.7,43.7,0,0,1-10.442,1.2c-8.836,0-14.688-4.7-14.688-13.309,0-8.146,5.45-13.422,13.426-13.422a11.9,11.9,0,0,1,4.819.8V340.893h6.885ZM321.162,358.8a10.008,10.008,0,0,0-4.248-.8c-4.185,0-7,2.583-7,7.115,0,4.878,3.04,7.632,7.917,7.632a18.325,18.325,0,0,0,3.328-.287Zm63.38,18.646a43.73,43.73,0,0,1-10.444,1.2c-8.835,0-14.689-4.7-14.689-13.309,0-8.146,5.452-13.422,13.429-13.422a11.9,11.9,0,0,1,4.819.8V340.893h6.885v36.551ZM377.657,358.8a10.015,10.015,0,0,0-4.247-.8c-4.188,0-7,2.583-7,7.115,0,4.878,3.04,7.632,7.917,7.632a18.329,18.329,0,0,0,3.328-.287Zm-38.783-.056a11.954,11.954,0,0,1,4.128-.631c4.247,0,7.173,2.466,7.173,6.883,0,5.21-3.241,7.565-7.575,7.626v6.024c.114,0,.229,0,.346,0,8.891,0,14.229-4.99,14.229-13.882,0-8.09-5.679-12.85-14.057-12.85a30.841,30.841,0,0,0-11.188,2.122v34.368h6.944V358.741Z" transform="translate(-139.954 -26.97)" fill="#414042"/><path d="M125.6,330.084a1.068,1.068,0,0,1-1.009-.019l-1.637-.973a1.073,1.073,0,0,1-.348-.374l-.016-.028a1.085,1.085,0,0,1-.17-.515l-.042-1.908a1.066,1.066,0,0,1,.486-.88l19.676-11.463-27.611-15.049a2.569,2.569,0,0,0-2.214,0L85.1,313.924l30.932,18.007a1.052,1.052,0,0,1,.5.865v26.269a1.069,1.069,0,0,1-.525.863l-1.665.924a1.077,1.077,0,0,1-.5.113h-.032a1.078,1.078,0,0,1-.531-.113l-1.67-.925a1.065,1.065,0,0,1-.516-.863V335.647a.657.657,0,0,0-.278-.46L83.57,319.324V350.4a2.449,2.449,0,0,0,1.091,1.9l28.067,16.553a2.4,2.4,0,0,0,2.18,0L142.979,352.3a2.453,2.453,0,0,0,1.087-1.9V319.324Z" transform="translate(0 0)" fill="url(#a)"/></g></svg>