<svg xmlns="http://www.w3.org/2000/svg" width="75.963" height="55" viewBox="0 0 75.963 55"><g transform="translate(-910 -260.769)"><g transform="translate(910 286.571)"><g transform="translate(0 0)"><path d="M721.494,575.372,698.18,558.185,696,559.792l24.023,17.7a3.886,3.886,0,0,1,1.4,4.385,3.721,3.721,0,0,1-3.619,2.717H654.574a3.728,3.728,0,0,1-3.625-2.717,3.89,3.89,0,0,1,1.409-4.385l24.016-17.7-2.176-1.607-23.315,17.188c-5.014,3.691-2.474,11.829,3.692,11.829H717.8C723.969,587.2,726.5,579.063,721.494,575.372Z" transform="translate(-648.22 -558.185)" fill="#707070"/></g></g><g transform="translate(910 260.769)"><path d="M686.186,588.138a3.68,3.68,0,0,0,2.216-.736L696,581.8l24.023-17.7a3.887,3.887,0,0,0,1.4-4.386A3.721,3.721,0,0,0,717.8,557H654.574a3.728,3.728,0,0,0-3.625,2.717,3.891,3.891,0,0,0,1.409,4.386L674.2,580.2l2.176,1.607,7.6,5.6a3.694,3.694,0,0,0,2.217.736m0,2.608a6.24,6.24,0,0,1-3.692-1.219l-31.611-23.3c-5.014-3.691-2.474-11.829,3.692-11.829H717.8c6.166,0,8.7,8.137,3.691,11.829l-31.617,23.3A6.225,6.225,0,0,1,686.186,590.746Z" transform="translate(-648.22 -554.396)" fill="#707070"/><g transform="translate(0 0.181)" fill="none" stroke="#707070" stroke-width="2"><rect width="75.963" height="54.819" rx="5" stroke="none"/><rect x="1" y="1" width="73.963" height="52.819" rx="4" fill="none"/></g></g></g></svg>