<svg xmlns="http://www.w3.org/2000/svg" width="30.75" height="32" viewBox="0 0 30.75 32">
  <defs>
    <style>
      .cls-1 {
        fill: #fff;
      }
    </style>
  </defs>
  <g id="jacket_2_" data-name="jacket (2)" transform="translate(-0.5 0)">
    <path id="Path_48" data-name="Path 48" class="cls-1" d="M26.78,2.714,20.5.05A.623.623,0,0,0,20.26,0H11.491a.621.621,0,0,0-.244.05L4.972,2.713A6.415,6.415,0,0,0,.545,8.236a.625.625,0,0,0,.556.687.6.6,0,0,0,.066,0,.625.625,0,0,0,.621-.56,5.065,5.065,0,0,1,3.04-4.241,52.046,52.046,0,0,1,.48,8.229c.057,4.408-.017,9.393-.065,12.691l0,.274H2.392a.642.642,0,0,1-.642-.642V13.3a.625.625,0,1,0-1.25,0V24.679a1.9,1.9,0,0,0,1.267,1.785v1.981a.625.625,0,0,0,.625.625H6.472a2.367,2.367,0,0,0,2.092,2.361q.535.085,1.075.156l.019,0a47.238,47.238,0,0,0,6.218.41,47.238,47.238,0,0,0,6.218-.41l.019,0q.54-.072,1.075-.156a2.366,2.366,0,0,0,2.092-2.361h4.08a.625.625,0,0,0,.625-.625V26.465a1.9,1.9,0,0,0,1.267-1.785V9.095A6.43,6.43,0,0,0,26.78,2.714ZM15.251,29.5v1.247a45.969,45.969,0,0,1-4.908-.328V29.252c1.622.147,3.263.23,4.908.247Zm1.25,0c1.645-.017,3.286-.1,4.908-.247v1.165a45.973,45.973,0,0,1-4.908.328ZM11.259,1.4a8.342,8.342,0,0,0,3.992,2.86v1.19a10.759,10.759,0,0,1-5.133-3.566Zm4.617,1.748a7.229,7.229,0,0,1-3.12-1.9H19A7.23,7.23,0,0,1,15.876,3.151ZM16.5,4.263A8.344,8.344,0,0,0,20.492,1.4l1.141.484A10.759,10.759,0,0,1,16.5,5.453ZM8.943,2.386a12.072,12.072,0,0,0,6.308,4.383v21.48a59.19,59.19,0,0,1-7.5-.551,2.43,2.43,0,0,1-.417-.091.622.622,0,0,0-.1-.035c-.491-.2-.774-.623-.76-1.617l.013-.89c0-.287.009-.588.013-.9l3.252-3.252a.625.625,0,1,0-.884-.884L6.531,22.373c.039-3.02.071-6.689.027-10.034-.071-5.464-.311-7.694-.565-8.7ZM3.017,26.571H5.26a2.97,2.97,0,0,0,.4,1.25H3.017Zm4.7,2.383q.686.093,1.378.172v1.123L8.759,30.2c-.457-.072-.939-.241-1.044-1.243ZM22.992,30.2l-.334.051V29.126q.692-.078,1.378-.172c-.1,1-.587,1.171-1.044,1.243Zm3.1-2.376a2.97,2.97,0,0,0,.4-1.25h2.242v1.25ZM30,24.679a.643.643,0,0,1-.642.642H26.512l0-.271c-.013-.871-.028-1.867-.041-2.943a.625.625,0,0,0-.625-.617h-.008a.625.625,0,0,0-.617.633c0,.084,0,.167,0,.251L22.877,20.03a.625.625,0,0,0-.884.884l3.252,3.252c0,.313.009.615.013.9l.013.887c.014.994-.269,1.421-.76,1.617a.636.636,0,0,0-.1.035A2.418,2.418,0,0,1,24,27.7a59.138,59.138,0,0,1-7.5.551V6.769a12.071,12.071,0,0,0,6.308-4.383l2.95,1.252c-.325,1.287-.615,4.508-.584,13.478a.625.625,0,0,0,.625.623h0a.625.625,0,0,0,.623-.627c-.012-3.678.027-6.546.121-8.768a28.959,28.959,0,0,1,.379-4.217A5.129,5.129,0,0,1,30,9.095Zm0,0" transform="translate(-0.001 0)"/>
    <path id="Path_49" data-name="Path 49" class="cls-1" d="M396.152,303.824a.625.625,0,1,0,.625.625h0A.625.625,0,0,0,396.152,303.824Zm0,0" transform="translate(-370.338 -284.835)"/>
    <path id="Path_50" data-name="Path 50" class="cls-1" d="M1.125,164.078a.625.625,0,0,0,.625-.625h0a.625.625,0,1,0-.625.625Zm0,0" transform="translate(0 -152.651)"/>
  </g>
</svg>
