<svg xmlns="http://www.w3.org/2000/svg" width="32" height="28.75" viewBox="0 0 32 28.75">
  <defs>
    <style>
      .cls-1 {
        fill: #fff;
      }
    </style>
  </defs>
  <g id="fabric" transform="translate(0 -26)">
    <g id="Group_44" data-name="Group 44" transform="translate(0 26)">
      <path id="Path_30" data-name="Path 30" class="cls-1" d="M49.375,373.188a2.187,2.187,0,1,0-2.187,2.188A2.19,2.19,0,0,0,49.375,373.188Zm-3.125,0a.937.937,0,1,1,.937.938A.939.939,0,0,1,46.25,373.188Z" transform="translate(-42.188 -349.438)"/>
      <path id="Path_31" data-name="Path 31" class="cls-1" d="M31.375,30.375H9.961A5,5,0,0,0,0,31V49.75a5.006,5.006,0,0,0,5,5H31.375A.625.625,0,0,0,32,54.125V31a.625.625,0,0,0-.625-.625ZM1.25,49.75A3.75,3.75,0,1,1,5,53.5,3.754,3.754,0,0,1,1.25,49.75Zm29.5,3.75H8.3A4.99,4.99,0,0,0,10,49.75V41.242a.625.625,0,0,0-1.25,0v5.2a4.993,4.993,0,0,0-7.5,0V31a3.75,3.75,0,0,1,7.5,0v4.617a.625.625,0,1,0,1.25,0V31.625H30.75Z" transform="translate(0 -26)"/>
      <path id="Path_32" data-name="Path 32" class="cls-1" d="M394.29,150.752a.625.625,0,0,0,.625-.625V149.5a.625.625,0,0,0-1.25,0v.625A.625.625,0,0,0,394.29,150.752Z" transform="translate(-369.061 -141.197)"/>
      <path id="Path_33" data-name="Path 33" class="cls-1" d="M359.29,185.127h.625a.625.625,0,1,0,0-1.25h-.625a.625.625,0,1,0,0,1.25Z" transform="translate(-336.249 -174.01)"/>
      <path id="Path_34" data-name="Path 34" class="cls-1" d="M394.29,210.751a.625.625,0,0,0,.625-.625V209.5a.625.625,0,1,0-1.25,0v.625A.625.625,0,0,0,394.29,210.751Z" transform="translate(-369.061 -197.446)"/>
      <path id="Path_35" data-name="Path 35" class="cls-1" d="M419.29,185.127h.625a.625.625,0,1,0,0-1.25h-.625a.625.625,0,1,0,0,1.25Z" transform="translate(-392.499 -174.01)"/>
      <path id="Path_36" data-name="Path 36" class="cls-1" d="M263.29,298.752a.625.625,0,0,0,.625-.625V297.5a.625.625,0,1,0-1.25,0v.625A.625.625,0,0,0,263.29,298.752Z" transform="translate(-246.248 -279.947)"/>
      <path id="Path_37" data-name="Path 37" class="cls-1" d="M228.29,333.127h.625a.625.625,0,0,0,0-1.25h-.625a.625.625,0,0,0,0,1.25Z" transform="translate(-213.436 -312.76)"/>
      <path id="Path_38" data-name="Path 38" class="cls-1" d="M263.29,358.751a.625.625,0,0,0,.625-.625V357.5a.625.625,0,0,0-1.25,0v.625A.625.625,0,0,0,263.29,358.751Z" transform="translate(-246.248 -336.196)"/>
      <path id="Path_39" data-name="Path 39" class="cls-1" d="M288.29,333.127h.625a.625.625,0,0,0,0-1.25h-.625a.625.625,0,0,0,0,1.25Z" transform="translate(-269.686 -312.76)"/>
      <path id="Path_40" data-name="Path 40" class="cls-1" d="M140.629,214.878h0a.625.625,0,1,0,.625.625A.625.625,0,0,0,140.629,214.878Z" transform="translate(-131.254 -203.073)"/>
    </g>
  </g>
</svg>
