<svg xmlns="http://www.w3.org/2000/svg" width="32" height="28.628" viewBox="0 0 32 28.628">
  <defs>
    <style>
      .cls-1 {
        fill: #fff;
      }
    </style>
  </defs>
  <g id="XMLID_773_" transform="translate(0 -26.97)">
    <g id="XMLID_1169_" transform="translate(0 26.97)">
      <path id="XMLID_1174_" class="cls-1" d="M31.926,34.723A2.161,2.161,0,0,0,30,33.129a2.16,2.16,0,0,0-1.828-2.9l.013-.023a2.156,2.156,0,0,0-3.735-2.156l-.014.024a2.156,2.156,0,0,0-3.631.163l-2.955,5.118a2.154,2.154,0,0,0-2.683-.68,2.156,2.156,0,0,0-3.033-1.6V31.05a2.156,2.156,0,1,0-4.313,0v.028a2.156,2.156,0,0,0-3.063,1.957v8.629l-.705-.753a2.348,2.348,0,0,0-3.65,2.934,36.348,36.348,0,0,0,4.259,5.125l.1.1v5.908a.625.625,0,0,0,.625.625h10.72a.625.625,0,0,0,.625-.625V51.939l2.619,1.512a.625.625,0,0,0,.854-.229l2.422-4.2a17.4,17.4,0,0,0,3.23-3.021.625.625,0,1,0-.963-.8,16.154,16.154,0,0,1-3.1,2.878.625.625,0,0,0-.18.2l-2.177,3.771-2.7-1.56V50.13a17.275,17.275,0,0,0,1.531-7.138V35.145l3.628-6.283a.906.906,0,0,1,1.572.9L19.42,36.769a.625.625,0,0,0,1.083.625l5.034-8.72a.906.906,0,0,1,1.57.906L22.072,38.3a.625.625,0,1,0,1.083.625l4.042-7a.906.906,0,0,1,1.57.906l-4.042,7a.625.625,0,1,0,1.083.625l3.253-5.634a.906.906,0,0,1,1.567.911L27.847,40.55a.625.625,0,1,0,1.083.625l2.781-4.817a2.142,2.142,0,0,0,.215-1.636ZM17.014,42.992a16.039,16.039,0,0,1-1.474,6.741.625.625,0,0,0-.057.261v4.355H6.013V48.807a.625.625,0,0,0-.183-.442l-.279-.279a35.085,35.085,0,0,1-4.112-4.948,1.1,1.1,0,0,1,1.706-1.372l1.779,1.9a.625.625,0,0,0,1.089-.437V33.034a.906.906,0,1,1,1.813,0v8.084a.625.625,0,0,0,1.25,0V31.05a.906.906,0,0,1,1.813,0V41.118a.625.625,0,1,0,1.25,0V33.034a.906.906,0,1,1,1.813,0v8.084a.625.625,0,1,0,1.25,0v-6.5a.906.906,0,0,1,1.813,0v8.374Z" transform="translate(0 -26.97)"/>
      <path id="XMLID_1175_" class="cls-1" d="M422.3,278.2a.625.625,0,1,0,.442.183A.626.626,0,0,0,422.3,278.2Z" transform="translate(-395.313 -262.499)"/>
    </g>
  </g>
</svg>
