<svg xmlns="http://www.w3.org/2000/svg" width="117.17" height="80" viewBox="0 0 117.17 80"><g transform="translate(-0.999 -12.42)"><path d="M19.638,27.905a1.628,1.628,0,1,1-.057-3.255A163.394,163.394,0,0,0,43.42,22.633a1.564,1.564,0,0,1,.426-.029,11.691,11.691,0,0,1,5.574,1.758,1.627,1.627,0,0,1-.945,2.944,1.674,1.674,0,0,1-1.053-.372,8.12,8.12,0,0,0-3.588-1.063,169.054,169.054,0,0,1-24.153,2.036Z" transform="translate(10.654 6.386)" fill="#707070"/><path d="M73.027,66.934a6.561,6.561,0,0,1-3.865-1.253l-.35-.242a1.6,1.6,0,0,1-.194-.163L49.464,51.481a1.627,1.627,0,1,1,1.89-2.65l1.3.928L70.58,62.685a1.532,1.532,0,0,1,.153.125l.311.216a3.39,3.39,0,0,0,4.623-.64,3.338,3.338,0,0,0,.584-3.02,3.264,3.264,0,0,0-1.082-1.645L49.548,36.848c-9.811,5.207-16.761,2.529-20.08.408a3.743,3.743,0,0,1,.317-6.459L44.452,23.01a8,8,0,0,1,6.132-.537l8.675,2.815a11.281,11.281,0,0,0,7.811-.282l3.779-1.548a1.628,1.628,0,0,1,1.235,3.012l-3.775,1.546a14.509,14.509,0,0,1-10.06.365l-8.667-2.814a4.719,4.719,0,0,0-3.611.325L31.3,33.683a.488.488,0,0,0-.28.428.446.446,0,0,0,.208.415c3.417,2.184,9.284,3.785,17.683-1.04a1.627,1.627,0,0,1,1.839.15L77.211,55.2a6.488,6.488,0,0,1,2.161,3.255,6.644,6.644,0,0,1-1.139,5.932,6.561,6.561,0,0,1-5.206,2.55Z" transform="translate(16.793 6.071)" fill="#707070"/><path d="M59.971,63.909a6.635,6.635,0,0,1-3.849-1.225L38.531,50.2a1.627,1.627,0,1,1,1.883-2.654l17.591,12.48a3.417,3.417,0,0,0,3.971-5.556L44.444,41.836a1.627,1.627,0,0,1,1.9-2.638L63.879,51.836a6.672,6.672,0,0,1-3.906,12.076Z" transform="translate(23.115 16.639)" fill="#707070"/><path d="M54.534,67.219a6.413,6.413,0,0,1-3.663-1.151L35.107,55.149a1.628,1.628,0,1,1,1.854-2.677L52.725,63.392A3.2,3.2,0,0,0,56.4,58.144L40.715,47.016A1.627,1.627,0,1,1,42.6,44.362L58.285,55.489a6.482,6.482,0,0,1,1.577,8.939,6.415,6.415,0,0,1-4.148,2.685,6.509,6.509,0,0,1-1.18.106Z" transform="translate(20.957 19.85)" fill="#707070"/><path d="M46,69.228a6.509,6.509,0,0,1-3.24-.882L34.007,63.3a1.627,1.627,0,1,1,1.627-2.819l8.748,5.045a3.255,3.255,0,0,0,4.394-1.165,3.19,3.19,0,0,0-.955-4.265l-11.18-7.744a1.627,1.627,0,0,1,1.854-2.675l11.178,7.743A6.48,6.48,0,0,1,46,69.228Z" transform="translate(20.196 23.191)" fill="#707070"/><path d="M32.264,67.5a6.542,6.542,0,0,1-4.322-11.461l4.347-3.808a6.545,6.545,0,1,1,8.635,9.837L36.576,65.88A6.519,6.519,0,0,1,32.264,67.5ZM36.6,53.854a3.276,3.276,0,0,0-2.169.814l-4.348,3.813a3.291,3.291,0,0,0,4.34,4.947l4.347-3.816A3.289,3.289,0,0,0,36.6,53.854Z" transform="translate(15.503 23.952)" fill="#707070"/><path d="M26.224,65.783c-.145,0-.29,0-.434-.013a6.585,6.585,0,0,1-3.933-11.5l7.261-6.374a6.545,6.545,0,0,1,9.237.6L37.178,49.62,38.4,48.546a6.543,6.543,0,0,1-.6,9.237l-7.268,6.374A6.493,6.493,0,0,1,26.224,65.783Zm7.2-16.263a3.266,3.266,0,0,0-2.166.814L24,56.707a3.339,3.339,0,0,0,2,5.81,3.255,3.255,0,0,0,2.384-.814l7.261-6.374a3.29,3.29,0,0,0,.3-4.644l-.047-.054a3.264,3.264,0,0,0-2.252-1.1c-.076,0-.153,0-.226,0Z" transform="translate(11.691 21.232)" fill="#707070"/><path d="M21.232,62.563c-.143,0-.288,0-.434-.013A6.509,6.509,0,0,1,16.3,60.337l-.177-.212a6.545,6.545,0,0,1,.6-9.233l8.418-7.39a6.543,6.543,0,0,1,9.237.6l.184.21a6.543,6.543,0,0,1-.6,9.233l-8.418,7.39a6.5,6.5,0,0,1-4.314,1.627Zm8.223-17.432a3.268,3.268,0,0,0-2.166.814l-8.418,7.39a3.294,3.294,0,0,0-.3,4.648l.184.21a3.292,3.292,0,0,0,4.643.3l8.418-7.39a3.29,3.29,0,0,0,.3-4.644l-.181-.207a3.266,3.266,0,0,0-2.257-1.11c-.076-.007-.148-.01-.221-.01Z" transform="translate(8.471 18.478)" fill="#707070"/><path d="M16.838,56.992a4.327,4.327,0,0,1-.434-.015,6.587,6.587,0,0,1-3.945-11.513l5.271-4.626a6.543,6.543,0,0,1,9.237.6l.057.065a6.543,6.543,0,0,1-.6,9.237l-5.271,4.626a6.5,6.5,0,0,1-4.314,1.626Zm5.207-14.527a3.268,3.268,0,0,0-2.166.814L14.609,47.9a3.334,3.334,0,0,0,4.4,5.012l5.271-4.626a3.29,3.29,0,0,0,.3-4.644l-.057-.065a3.266,3.266,0,0,0-2.259-1.111c-.08,0-.153,0-.226,0Z" transform="translate(5.791 16.806)" fill="#707070"/><path d="M15.245,47.5a1.618,1.618,0,0,1-.976-.325L8.708,42.939a1.628,1.628,0,0,1,1.971-2.591l5.561,4.231a1.627,1.627,0,0,1-.986,2.929Z" transform="translate(4.433 17.312)" fill="#707070"/><path d="M59.146,50.5A1.627,1.627,0,0,1,58,47.718l9.131-9.134a1.627,1.627,0,1,1,2.3,2.3L60.3,50.016a1.627,1.627,0,0,1-1.151.48Z" transform="translate(35.457 16.114)" fill="#707070"/><path d="M74.458,63.234a1.627,1.627,0,0,1-1.388-.775L53.2,30.14A1.627,1.627,0,0,1,53.59,28L73.27,12.76a1.627,1.627,0,0,1,2.583.923L85.53,55.907a1.627,1.627,0,0,1-.789,1.79L75.252,63.03a1.618,1.618,0,0,1-.794.2ZM56.738,29.678,75.022,59.417l7.064-3.971L73.25,16.892Z" transform="translate(32.596 0)" fill="#707070"/><path d="M12.115,63.585a1.627,1.627,0,0,1-.8-.208L1.831,58.052a1.627,1.627,0,0,1-.789-1.79l9.679-42.219A1.627,1.627,0,0,1,13.3,13.12L32.984,28.36a1.627,1.627,0,0,1,.391,2.138L13.5,62.817a1.627,1.627,0,0,1-1.388.768ZM4.487,55.81l7.064,3.969L29.835,30.038,13.323,17.252Z" transform="translate(0 0.226)" fill="#707070"/></g></svg>