<svg xmlns="http://www.w3.org/2000/svg" width="32" height="30.615" viewBox="0 0 32 30.615">
  <defs>
    <style>
      .cls-1 {
        fill: #fff;
      }
    </style>
  </defs>
  <g id="XMLID_2215_" transform="translate(0 -11.078)">
    <g id="XMLID_108_" transform="translate(0 11.078)">
      <path id="XMLID_109_" class="cls-1" d="M246.6,290.778a.625.625,0,1,0,.442.183A.63.63,0,0,0,246.6,290.778Z" transform="translate(-230.602 -273.295)"/>
      <path id="XMLID_561_" class="cls-1" d="M31.8,37.392l-1.655-4.52V28.15A14.158,14.158,0,0,0,19.409,14.417a3.407,3.407,0,0,0-6.813,0A14.158,14.158,0,0,0,1.859,28.15v4.7L.2,37.395a3.2,3.2,0,0,0,2.991,4.3,3.233,3.233,0,0,0,1.089-.19,34.947,34.947,0,0,1,23.443,0,3.2,3.2,0,0,0,4.079-4.11ZM28.9,28.15V31.9a26.657,26.657,0,0,0-5.268-2.214V21.632a7.594,7.594,0,0,0-1.9-5.033A12.909,12.909,0,0,1,28.9,28.15ZM16,12.328a2.161,2.161,0,0,1,2.134,1.838,14.371,14.371,0,0,0-4.268,0A2.161,2.161,0,0,1,16,12.328ZM10.279,16.6a7.594,7.594,0,0,0-1.9,5.033v8.041a26.66,26.66,0,0,0-5.268,2.207V28.15A12.908,12.908,0,0,1,10.279,16.6Zm19.9,23.263a1.908,1.908,0,0,1-2.04.463,36.2,36.2,0,0,0-24.284,0,1.908,1.908,0,0,1-2.039-.462,1.9,1.9,0,0,1-.446-2.04l1.622-4.438a25.448,25.448,0,0,1,10.264-3.429.625.625,0,0,0-.134-1.243,26.477,26.477,0,0,0-3.5.618v-7.7a6.376,6.376,0,0,1,12.751,0V29.34a26.475,26.475,0,0,0-3.5-.622.625.625,0,1,0-.135,1.243A25.448,25.448,0,0,1,29.01,33.4l1.618,4.418A1.9,1.9,0,0,1,30.182,39.861Z" transform="translate(0 -11.078)"/>
      <path id="XMLID_565_" class="cls-1" d="M214.3,180.083a.625.625,0,0,0-.625-.625h-4.7a.625.625,0,0,0,0,1.25h4.7A.625.625,0,0,0,214.3,180.083Z" transform="translate(-195.32 -168.933)"/>
      <path id="XMLID_566_" class="cls-1" d="M226.769,223.458h-2.834a.625.625,0,1,0,0,1.25h2.834a.625.625,0,1,0,0-1.25Z" transform="translate(-209.352 -210.183)"/>
    </g>
  </g>
</svg>
