<svg xmlns="http://www.w3.org/2000/svg" width="32" height="28.75" viewBox="0 0 32 28.75">
  <defs>
    <style>
      .cls-1 {
        fill: #fff;
      }
    </style>
  </defs>
  <g id="bath-towel" transform="translate(0 -26)">
    <g id="Group_2" data-name="Group 2" transform="translate(14.178 29.816)">
      <g id="Group_1" data-name="Group 1">
        <path id="Path_1" data-name="Path 1" class="cls-1" d="M228.673,88.839a.622.622,0,0,1-.251-.053l-1.2-.526a.625.625,0,1,1,.5-1.144l1.2.526a.625.625,0,0,1-.252,1.2Z" transform="translate(-226.852 -87.063)"/>
      </g>
    </g>
    <g id="Group_3" data-name="Group 3" transform="translate(0 26)">
      <path id="Path_2" data-name="Path 2" class="cls-1" d="M32,41.625v-1.25A4.38,4.38,0,0,0,27.625,36H20.432q.3-.146.589-.316a7.436,7.436,0,0,0,3.724-5.194.625.625,0,0,0-.375-.654,6.049,6.049,0,0,0-2.8-.424,5.859,5.859,0,0,0-.323-3.024.625.625,0,0,0-.66-.383,5.7,5.7,0,0,0-3.018,1.456,5.486,5.486,0,0,0-1.179-1.325.625.625,0,0,0-.773,0,5.314,5.314,0,0,0-1.191,1.324,5.7,5.7,0,0,0-3.011-1.45.625.625,0,0,0-.66.383,5.861,5.861,0,0,0-.323,3.024,6.049,6.049,0,0,0-2.8.424.625.625,0,0,0-.376.654,7.436,7.436,0,0,0,3.724,5.194c.194.114.391.219.591.316H4.375A4.38,4.38,0,0,0,0,40.375v1.25a4.377,4.377,0,0,0,2.124,3.75A4.377,4.377,0,0,0,0,49.125v1.25A4.38,4.38,0,0,0,4.375,54.75h23.25A4.38,4.38,0,0,0,32,50.375v-1.25a4.377,4.377,0,0,0-2.124-3.75A4.377,4.377,0,0,0,32,41.625Zm-8.586-10.8a6.391,6.391,0,0,1-3.026,3.785,6.573,6.573,0,0,1-3.763.947v-2.1A7.09,7.09,0,0,1,18.709,31.6,6.176,6.176,0,0,1,23.414,30.821ZM20.25,27.348a5.032,5.032,0,0,1,.015,2.276,8.343,8.343,0,0,0-2.189.9,8.608,8.608,0,0,0-1.289.93c-.037-.159-.08-.318-.128-.475a6.657,6.657,0,0,1,.45-.967A5.544,5.544,0,0,1,20.25,27.348ZM16,27.469a4.7,4.7,0,0,1,.684.941,7.957,7.957,0,0,0-.659.986L16,29.435l-.021-.039a7.964,7.964,0,0,0-.664-.992A4.513,4.513,0,0,1,16,27.469Zm-4.246-.121a5.544,5.544,0,0,1,3.141,2.664,6.478,6.478,0,0,1,.691,1.783,8.55,8.55,0,0,0-1.658-1.271,8.341,8.341,0,0,0-2.189-.9A5.036,5.036,0,0,1,11.75,27.348ZM8.586,30.821a6.177,6.177,0,0,1,4.7.781,7.09,7.09,0,0,1,2.084,1.849v2.1a6.573,6.573,0,0,1-3.762-.947,6.391,6.391,0,0,1-3.026-3.785Zm22.164,18.3v1.25A3.129,3.129,0,0,1,27.625,53.5h-.711a2.5,2.5,0,0,0-2.164-3.75H6A.625.625,0,0,1,6,48.5a.625.625,0,0,0,0-1.25A1.875,1.875,0,0,0,6,51H24.75a1.25,1.25,0,0,1,0,2.5H4.375A3.129,3.129,0,0,1,1.25,50.375v-1.25A3.129,3.129,0,0,1,4.375,46h23.25a3.129,3.129,0,0,1,3.125,3.125ZM26.914,44.75A2.5,2.5,0,0,0,24.75,41H18.812a.625.625,0,0,0,0,1.25H24.75a1.25,1.25,0,0,1,0,2.5H4.375A3.129,3.129,0,0,1,1.25,41.625v-1.25A3.129,3.129,0,0,1,4.375,37.25h23.25a3.129,3.129,0,0,1,3.125,3.125v1.25a3.129,3.129,0,0,1-3.125,3.125h-.711Z" transform="translate(0 -26)"/>
      <path id="Path_3" data-name="Path 3" class="cls-1" d="M75.062,228.5H67.875a.625.625,0,0,1,0-1.25.625.625,0,1,0,0-1.25,1.875,1.875,0,0,0,0,3.75h7.187a.625.625,0,1,0,0-1.25Z" transform="translate(-61.875 -213.501)"/>
      <path id="Path_4" data-name="Path 4" class="cls-1" d="M246.622,266h0a.625.625,0,1,0,.625.625A.625.625,0,0,0,246.622,266Z" transform="translate(-230.622 -251.001)"/>
    </g>
  </g>
</svg>
