<svg xmlns="http://www.w3.org/2000/svg" width="30" height="30" viewBox="0 0 30 30"><defs><style>.a{fill:#fff;}</style></defs><path class="a" d="M15,0c-4.075,0-4.584.019-6.184.09a11.061,11.061,0,0,0-3.641.7,7.346,7.346,0,0,0-2.657,1.73A7.319,7.319,0,0,0,.787,5.175a11.028,11.028,0,0,0-.7,3.641C.015,10.416,0,10.925,0,15s.019,4.584.09,6.184a11.068,11.068,0,0,0,.7,3.641,7.356,7.356,0,0,0,1.73,2.657,7.335,7.335,0,0,0,2.658,1.73,11.074,11.074,0,0,0,3.641.7c1.6.075,2.109.09,6.184.09s4.584-.019,6.184-.09a11.1,11.1,0,0,0,3.641-.7,7.666,7.666,0,0,0,4.387-4.387,11.068,11.068,0,0,0,.7-3.641c.075-1.6.09-2.109.09-6.184s-.019-4.584-.09-6.184a11.093,11.093,0,0,0-.7-3.641,7.362,7.362,0,0,0-1.73-2.657A7.308,7.308,0,0,0,24.825.787a11.035,11.035,0,0,0-3.641-.7C19.584.015,19.075,0,15,0Zm0,2.7c4,0,4.481.02,6.063.089a8.264,8.264,0,0,1,2.784.519,4.936,4.936,0,0,1,2.848,2.846,8.282,8.282,0,0,1,.516,2.784c.071,1.582.087,2.057.087,6.062s-.019,4.481-.092,6.063a8.441,8.441,0,0,1-.526,2.784,4.763,4.763,0,0,1-1.124,1.728,4.68,4.68,0,0,1-1.725,1.12,8.343,8.343,0,0,1-2.794.516c-1.592.071-2.061.087-6.074.087s-4.482-.019-6.074-.092a8.505,8.505,0,0,1-2.795-.526A4.645,4.645,0,0,1,4.37,25.555,4.555,4.555,0,0,1,3.245,23.83a8.513,8.513,0,0,1-.525-2.794c-.056-1.575-.076-2.061-.076-6.055S2.664,10.5,2.72,8.9a8.5,8.5,0,0,1,.525-2.792A4.446,4.446,0,0,1,4.37,4.386,4.437,4.437,0,0,1,6.094,3.264,8.3,8.3,0,0,1,8.87,2.738c1.594-.056,2.063-.075,6.074-.075L15,2.7Zm0,4.6A7.7,7.7,0,1,0,22.7,15,7.7,7.7,0,0,0,15,7.3ZM15,20a5,5,0,1,1,5-5A5,5,0,0,1,15,20ZM24.807,6.994a1.8,1.8,0,1,1-1.8-1.8A1.8,1.8,0,0,1,24.807,6.994Z"/></svg>