<svg xmlns="http://www.w3.org/2000/svg" width="32" height="29.364" viewBox="0 0 32 29.364">
  <defs>
    <style>
      .cls-1 {
        fill: #fff;
      }
    </style>
  </defs>
  <g id="jacket_3_" data-name="jacket (3)" transform="translate(0 -21.089)">
    <path id="Path_51" data-name="Path 51" class="cls-1" d="M1.185,49.783l2.394.62A1.582,1.582,0,0,0,5.5,49.278l.429-1.614a11.513,11.513,0,0,0,1.047-1.5c.044.3.095.591.155.886a.789.789,0,0,0,.612.614A5.129,5.129,0,0,0,8.258,49.3a1.664,1.664,0,0,0,1.487.9H22.209a1.664,1.664,0,0,0,1.487-.9,5.131,5.131,0,0,0,.511-1.631.791.791,0,0,0,.612-.613c.063-.307.116-.614.16-.922a11.673,11.673,0,0,0,1.088,1.534l.429,1.612A1.582,1.582,0,0,0,28.42,50.4l2.395-.62a1.586,1.586,0,0,0,1.139-1.912l-.412-1.658.173-1.9a7.234,7.234,0,0,0-.1-2.027c-.156-.806-.3-1.614-.476-2.416l.008-1.9a7.282,7.282,0,0,0-.707-3.154l-.477-1-.064-.854a7.25,7.25,0,0,0-.112-.836.625.625,0,0,0-1.227.237,5.953,5.953,0,0,1,.093.692l.035.475-3.7,1.134q-.064-.564-.173-1.121A16.223,16.223,0,0,0,25,28.453l.589.274a.625.625,0,0,0,.527-1.134l-4.647-2.009a3.566,3.566,0,0,0-.05-2.141l-.114-.409a.635.635,0,0,0-.285-.37,11.811,11.811,0,0,0-5.047-1.574,11.81,11.81,0,0,0-5.047,1.574.632.632,0,0,0-.279.351l-.08.253a3.722,3.722,0,0,0-.1,2.32L4.8,28.1a3.8,3.8,0,0,0-1.418,1.252,8.488,8.488,0,0,0-1.348,4.464l-.477,1a7.282,7.282,0,0,0-.707,3.154l.009,1.9c-.178.8-.321,1.61-.476,2.416a7.229,7.229,0,0,0-.1,2.027l.173,1.9L.046,47.87a1.586,1.586,0,0,0,1.139,1.912ZM2.1,37.959a6.026,6.026,0,0,1,.585-2.61l.3-.618,3.881,1.19a20.988,20.988,0,0,0,.271,4.738v0l-.038.2L2.112,39.473ZM8.068,30.2a13.8,13.8,0,0,1,.25-2.364l2.931-1.213,4.1,1.68v4.62H8.3A14.686,14.686,0,0,1,8.068,30.2Zm15.567-2.364a13.807,13.807,0,0,1,.022,5.086H16.6V28.3l4.1-1.68Zm5.379,6.9.3.618a6.023,6.023,0,0,1,.585,2.61l-.007,1.514-5.031,1.4-.04-.215v0a19.012,19.012,0,0,0,.3-3.511c0-.407-.008-.814-.027-1.211Zm1.37,7.789a5.983,5.983,0,0,1,.084,1.676l-.142,1.569-3.467.895a10.846,10.846,0,0,1-1.72-3.118c-.01-.475-.041-.949-.094-1.421l4.99-1.392c.072.365.183.929.349,1.791Zm-6.72,3.913H16.6V41.282H23.66A14.585,14.585,0,0,1,23.665,46.434ZM23.66,34.168a21.087,21.087,0,0,1,0,5.864H16.6V34.168Zm-8.308,5.864H8.294a18.507,18.507,0,0,1-.2-2.906,18.057,18.057,0,0,1,.2-2.959h7.059ZM8.061,43.791c.069-.843.082-1.672.233-2.508h7.058v5.153H8.289A14.526,14.526,0,0,1,8.061,43.791ZM20.2,25.473l-3.6,1.474V25.526l3.686-1.482A2.283,2.283,0,0,1,20.2,25.473Zm-4.851.052v1.422L11.743,25.47a2.349,2.349,0,0,1-.089-1.432ZM6.91,42.109c-.057.505-.09,1.014-.1,1.523A11.653,11.653,0,0,1,5.137,46.66l-3.464-.894L1.53,44.2a5.982,5.982,0,0,1,.085-1.676c.167-.862.277-1.426.349-1.791ZM4.3,48.956a.332.332,0,0,1-.4.236L1.5,48.572a.332.332,0,0,1-.239-.4l.285-1.148,3.056.788Zm5.074-.231a3.844,3.844,0,0,1-.354-1.041h6.336v1.267H9.745A.419.419,0,0,1,9.37,48.726Zm13.215,0a.419.419,0,0,1-.375.226H16.6V47.685h6.336A3.841,3.841,0,0,1,22.584,48.726Zm7.917-.153-2.395.62a.332.332,0,0,1-.4-.236l-.3-1.144,3.056-.788.285,1.148A.333.333,0,0,1,30.5,48.572ZM19.18,23.142l-3.2,1.288-3.2-1.288a8.63,8.63,0,0,1,3.2-.8A8.629,8.629,0,0,1,19.18,23.142Zm-15.5,8.344a5.976,5.976,0,0,1,.733-1.421,2.775,2.775,0,0,1,.944-.845l1.593-.756a16.225,16.225,0,0,0,.19,5.074c-.073.367-.13.736-.172,1.108l-3.653-1.12a7.638,7.638,0,0,1,.365-2.039Z" transform="translate(0)"/>
    <path id="Path_52" data-name="Path 52" class="cls-1" d="M439.911,150.129a.625.625,0,1,0-.24-.733A.629.629,0,0,0,439.911,150.129Z" transform="translate(-412.156 -119.902)"/>
  </g>
</svg>
