<svg xmlns="http://www.w3.org/2000/svg" width="32" height="32" viewBox="0 0 32 32">
  <defs>
    <style>
      .cls-1 {
        fill: #fff;
      }
    </style>
  </defs>
  <g id="dungarees" transform="translate(-0.001 -0.001)">
    <path id="Path_29" data-name="Path 29" class="cls-1" d="M31.494,1.887,21.753.014A.7.7,0,0,0,21.616,0H10.386a.649.649,0,0,0-.138.013L.508,1.887A.625.625,0,0,0,0,2.5v3.75a.625.625,0,0,0,.507.614L9.751,8.642V10a1.251,1.251,0,0,1-1.25,1.25.625.625,0,0,0-.625.625v19.5A.625.625,0,0,0,8.5,32h5.625a.625.625,0,0,0,.625-.625v-9.75a1.25,1.25,0,0,1,2.5,0v9.75a.625.625,0,0,0,.625.625H23.5a.625.625,0,0,0,.625-.625v-19.5a.625.625,0,0,0-.625-.625A1.251,1.251,0,0,1,22.251,10V8.642l9.243-1.777A.625.625,0,0,0,32,6.251V2.5a.625.625,0,0,0-.507-.614ZM14.751,1.251h2.5V7.5h-2.5ZM1.251,3.017l2.875-.553V6.287L1.251,5.735ZM5.376,6.528v-4.3l4.375-.841V7.369Zm3.75,24.223v-2.5H13.5v2.5Zm9.375,0v-2.5h4.375v2.5Zm4.375-18.329v2.954H18.814a.625.625,0,0,0,0,1.25h4.063V27H18.5V21.626a2.5,2.5,0,0,0-5,0V27H9.126V16.626h4.062a.625.625,0,0,0,0-1.25H9.126V12.422A2.5,2.5,0,0,0,11,10V1.251h2.5V8.126a.625.625,0,0,0,.625.625h3.75a.625.625,0,0,0,.625-.625V1.251H21V10A2.5,2.5,0,0,0,22.876,12.422ZM22.251,1.382l4.375.841v4.3l-4.375.841Zm8.5,4.352-2.875.553V2.464l2.875.553Z"/>
    <circle id="Ellipse_2" data-name="Ellipse 2" class="cls-1" cx="0.625" cy="0.625" r="0.625" transform="translate(15.376 15.376)"/>
  </g>
</svg>
