<svg xmlns="http://www.w3.org/2000/svg" width="32" height="21.064" viewBox="0 0 32 21.064">
  <defs>
    <style>
      .cls-1 {
        fill: #fff;
      }
    </style>
  </defs>
  <g id="key-room" transform="translate(0 -87.485)">
    <path id="Path_54" data-name="Path 54" class="cls-1" d="M32,93.151a.625.625,0,0,0-.625-.625h-.929a1.564,1.564,0,0,1-1.271-.655,2.816,2.816,0,0,0-2.29-1.18H25.824a5.968,5.968,0,0,0-5.286-3.206h-.414a5.924,5.924,0,0,0-4.216,1.746l-.671.671a14.792,14.792,0,0,0-2.447-1.815,1.878,1.878,0,0,0-1.842-.046A10.6,10.6,0,0,0,6.393,92.6a1.878,1.878,0,0,0,.045,1.842q.344.579.732,1.117L4.631,98.094a.625.625,0,0,0-.183.442v1.05l-1.1.031a.625.625,0,0,0-.424.183L.493,102.233a.625.625,0,0,0-.179.37L0,105.274a.631.631,0,0,0,.621.7.619.619,0,0,0,.064,0l2.736-.28a.625.625,0,0,0,.378-.18l6.658-6.658q.545.393,1.131.742a1.9,1.9,0,0,0,1.842.045,10.6,10.6,0,0,0,4.555-4.555,1.878,1.878,0,0,0-.045-1.842,14.791,14.791,0,0,0-1.822-2.455l.671-.671a4.682,4.682,0,0,1,3.332-1.38h.414a4.709,4.709,0,0,1,3.848,2,2.817,2.817,0,0,0-1.81,1.138,1.564,1.564,0,0,1-1.271.655h-.929a.625.625,0,0,0-.625.625v14.773a.625.625,0,0,0,.625.625h2.808a.625.625,0,0,0,0-1.25H21V93.776h.3a2.816,2.816,0,0,0,2.29-1.18,1.564,1.564,0,0,1,1.271-.655H25a4.691,4.691,0,0,1,.249,1.507.625.625,0,0,0,1.25,0,5.952,5.952,0,0,0-.193-1.507h.578a1.564,1.564,0,0,1,1.271.655,2.816,2.816,0,0,0,2.29,1.18h.3V107.3H28.66a.625.625,0,0,0,0,1.25h2.715a.625.625,0,0,0,.625-.625V93.151ZM3.076,104.467l-1.741.178.195-1.682,2.1-2.1,1.457-.041a.625.625,0,0,0,.607-.625V98.8l2.249-2.249a14.414,14.414,0,0,0,1.524,1.525ZM16.868,93.879a.644.644,0,0,1,.013.624,9.374,9.374,0,0,1-4.027,4.027.645.645,0,0,1-.624-.013A13.356,13.356,0,0,1,7.513,93.8a.644.644,0,0,1-.013-.624,9.374,9.374,0,0,1,4.027-4.027.644.644,0,0,1,.624.013,13.546,13.546,0,0,1,2.2,1.625l-1.48,1.48-.752-.752a.625.625,0,0,0-.884.884l2.4,2.4a.625.625,0,1,0,.884-.884l-.767-.767,1.48-1.48A13.538,13.538,0,0,1,16.868,93.879Z" transform="translate(0)"/>
    <path id="Path_55" data-name="Path 55" class="cls-1" d="M367.626,219.822v-9.507a.625.625,0,0,0-.625-.625h-5.407a.625.625,0,0,0-.625.625v9.507a.625.625,0,0,0,.625.625H367A.625.625,0,0,0,367.626,219.822Zm-1.25-.625h-4.157V210.94h4.157Z" transform="translate(-338.408 -114.567)"/>
    <path id="Path_56" data-name="Path 56" class="cls-1" d="M405,405.179a.625.625,0,1,0,1.138-.255A.63.63,0,0,0,405,405.179Z" transform="translate(-379.683 -297.346)"/>
  </g>
</svg>
