<svg xmlns="http://www.w3.org/2000/svg" width="28.623" height="32" viewBox="0 0 28.623 32">
  <defs>
    <style>
      .cls-1 {
        fill: #fff;
      }
    </style>
  </defs>
  <g id="necklace" transform="translate(-27.017 0)">
    <g id="Group_47" data-name="Group 47" transform="translate(27.017 0)">
      <path id="Path_63" data-name="Path 63" class="cls-1" d="M284.183,339.81a.623.623,0,0,0,.442-.183l4.084-4.084a2.263,2.263,0,0,0-3.2-3.2l-1.326,1.326-1.326-1.326a2.263,2.263,0,1,0-3.2,3.2l4.084,4.084A.623.623,0,0,0,284.183,339.81Zm-3.642-6.583a1.013,1.013,0,0,1,1.432,0l1.768,1.768a.625.625,0,0,0,.884,0l1.768-1.768a1.013,1.013,0,0,1,1.432,1.432l-3.642,3.642-3.642-3.642A1.014,1.014,0,0,1,280.54,333.227Z" transform="translate(-263.246 -310.95)"/>
      <path id="Path_64" data-name="Path 64" class="cls-1" d="M54.247,19.625a4.732,4.732,0,0,0-3.368-1.4,4.811,4.811,0,0,0-.954.1,1.961,1.961,0,0,0-.34-1.093,3.681,3.681,0,0,0,2.045-3.294V8.86a3.015,3.015,0,0,0-3.012-3.012,1.764,1.764,0,0,1-1.762-1.762A4.091,4.091,0,0,0,42.77,0h-10.8a4.949,4.949,0,0,0,0,9.9h9.876a2.432,2.432,0,0,1,2.427,2.417l.007,1.638a3.684,3.684,0,0,0,2.046,3.278,1.961,1.961,0,0,0-.34,1.094,4.807,4.807,0,0,0-.954-.1,4.763,4.763,0,0,0-4.743,5.2.625.625,0,0,0,1.245-.114,3.513,3.513,0,0,1,5.982-2.806.625.625,0,0,0,.884,0,3.513,3.513,0,0,1,4.968,4.968l-5.177,5.177a.33.33,0,0,1-.466,0l-3.188-3.188a.625.625,0,0,0-.884.884l3.188,3.188a1.58,1.58,0,0,0,2.234,0l5.177-5.177a4.768,4.768,0,0,0,0-6.736Zm-8.721-5.676-.007-1.638a3.685,3.685,0,0,0-3.677-3.662H31.966a3.7,3.7,0,1,1,0-7.4h10.8a2.84,2.84,0,0,1,2.837,2.837A3.015,3.015,0,0,0,48.619,7.1a1.764,1.764,0,0,1,1.762,1.762v5.078a2.427,2.427,0,0,1-4.855.01Zm3.149,4.39a.722.722,0,1,1-.722-.722A.723.723,0,0,1,48.675,18.338Z" transform="translate(-27.017 0)"/>
      <circle id="Ellipse_5" data-name="Ellipse 5" class="cls-1" cx="0.625" cy="0.625" r="0.625" transform="translate(14.459 25.294)"/>
    </g>
  </g>
</svg>
