<svg xmlns="http://www.w3.org/2000/svg" width="58.008" height="42" viewBox="0 0 58.008 42"><g transform="translate(-910 -260.769)"><g transform="translate(910 280.472)"><g transform="translate(0 0)"><path d="M704.175,571.31l-17.8-13.125-1.667,1.227,18.345,13.516a2.968,2.968,0,0,1,1.071,3.349,2.841,2.841,0,0,1-2.764,2.075H653.072a2.847,2.847,0,0,1-2.768-2.075,2.971,2.971,0,0,1,1.076-3.349l18.339-13.516-1.662-1.227-17.8,13.125c-3.829,2.819-1.89,9.033,2.819,9.033h48.284C706.065,580.342,708,574.128,704.175,571.31Z" transform="translate(-648.22 -558.185)" fill="#3e3e3e"/></g></g><g transform="translate(910 260.769)"><path d="M677.212,580.163a2.81,2.81,0,0,0,1.693-.562l5.8-4.274,18.345-13.515a2.968,2.968,0,0,0,1.071-3.349,2.841,2.841,0,0,0-2.764-2.075H653.072a2.847,2.847,0,0,0-2.768,2.075,2.971,2.971,0,0,0,1.076,3.349L668.057,574.1l1.662,1.227,5.8,4.274a2.82,2.82,0,0,0,1.693.562m0,1.991a4.765,4.765,0,0,1-2.819-.931l-24.14-17.8c-3.829-2.819-1.89-9.033,2.819-9.033h48.284c4.709,0,6.644,6.214,2.819,9.033l-24.144,17.8A4.753,4.753,0,0,1,677.212,582.154Z" transform="translate(-648.22 -554.396)" fill="#3e3e3e"/><g transform="translate(0 0.138)" fill="none" stroke="#3e3e3e" stroke-width="2"><rect width="58.008" height="41.862" rx="5" stroke="none"/><rect x="1" y="1" width="56.008" height="39.862" rx="4" fill="none"/></g></g></g></svg>