<svg xmlns="http://www.w3.org/2000/svg" width="31" height="31" viewBox="0 0 31 31"><defs><style>.a{fill:#707070;}</style></defs><path class="a" d="M128.422,60a2.422,2.422,0,1,0,2.422,2.422A2.425,2.425,0,0,0,128.422,60Zm0,3.633a1.211,1.211,0,1,1,1.211-1.211A1.212,1.212,0,0,1,128.422,63.633Z" transform="translate(-118.371 -56.367)"/><circle class="a" cx="0.605" cy="0.605" r="0.605" transform="translate(14.895 29.789)"/><path class="a" d="M26.762,3.633H24.945a.605.605,0,0,0-.605.605V7.266H15.983a6.055,6.055,0,1,0-11.865,0H.605A.605.605,0,0,0,0,7.871V30.395A.605.605,0,0,0,.605,31h12.17a.605.605,0,0,0,0-1.211H1.211V27H6.418A2.4,2.4,0,0,0,8.84,24.6a1.21,1.21,0,0,1,1.211-1.226H19.5a2.422,2.422,0,0,0,0-4.844h-2.18a1.212,1.212,0,0,1-1.211-1.211,2.425,2.425,0,0,0-2.422-2.422H11.939L15.3,9.078a6.072,6.072,0,0,0,.3-.6h8.74v2.785H21.313a2.422,2.422,0,0,0,0,4.844H24.34v7.023a.605.605,0,0,0,.605.605h1.816a3.027,3.027,0,0,1,0,6.055H18.225a.605.605,0,0,0,0,1.211h8.537A4.243,4.243,0,0,0,31,26.762V7.871A4.243,4.243,0,0,0,26.762,3.633ZM4.5,8.477a6.1,6.1,0,0,0,.3.6l3.359,5.816H1.211V8.477Zm9.182,7.629a1.212,1.212,0,0,1,1.211,1.211,2.425,2.425,0,0,0,2.422,2.422H19.5a1.211,1.211,0,0,1,0,2.422H10.051a2.421,2.421,0,0,0-2.422,2.452,1.2,1.2,0,0,1-1.211,1.181H1.211V16.105H8.862l.664,1.15a.605.605,0,0,0,1.049,0l.664-1.15Zm-3.633-.363-4.2-7.269a4.844,4.844,0,1,1,8.4,0Zm11.262-.848a1.211,1.211,0,0,1,0-2.422H24.34v2.422Zm8.477,8.9a4.225,4.225,0,0,0-3.027-1.275H25.551V4.844h1.211a3.031,3.031,0,0,1,3.027,3.027Z"/></svg>