<svg xmlns="http://www.w3.org/2000/svg" xmlns:xlink="http://www.w3.org/1999/xlink" width="98.001" height="114" viewBox="0 0 98.001 114"><defs><style>.a{fill:#fff;}.b,.e{fill:#707070;}.b{font-size:13px;font-family:Roboto-Medium, Roboto;font-weight:500;}.c{fill:#2cb5ff;}.d,.f{fill:none;stroke:#fff;}.d{stroke-linecap:round;stroke-linejoin:round;stroke-width:3px;}.f{stroke-width:2px;}.g{filter:url(#a);}</style><filter id="a" x="0" y="3" width="95" height="92" filterUnits="userSpaceOnUse"><feOffset dy="10" input="SourceAlpha"/><feGaussianBlur stdDeviation="5" result="b"/><feFlood flood-opacity="0.161"/><feComposite operator="in" in2="b"/><feComposite in="SourceGraphic"/></filter></defs><g transform="translate(1.001)"><rect class="a" width="97" height="36" rx="8" transform="translate(0 78)"/><g transform="translate(-1639.057 -616)"><text class="b" transform="translate(1645.057 709)"><tspan x="0" y="0">Masz pytanie?</tspan><tspan x="0" y="15">Napisz do nas</tspan></text><g class="g" transform="matrix(1, 0, 0, 1, 1638.06, 616)"><path class="c" d="M31,0h3A31,31,0,0,1,65,31v0A31,31,0,0,1,34,62H0a0,0,0,0,1,0,0V31A31,31,0,0,1,31,0Z" transform="translate(15 8)"/></g><path class="d" d="M49.39,25.367A20.311,20.311,0,0,1,47.146,34.7a21.362,21.362,0,0,1-28.431,9.329L4.5,48.689,9.238,34.7a20.311,20.311,0,0,1-2.245-9.329A20.836,20.836,0,0,1,18.715,6.709,21.17,21.17,0,0,1,28.192,4.5h1.247A20.985,20.985,0,0,1,49.39,24.14Z" transform="translate(1657.377 628.975)"/><circle class="a" cx="2.5" cy="2.5" r="2.5" transform="translate(1675.057 653)"/><circle class="a" cx="2.5" cy="2.5" r="2.5" transform="translate(1684.057 653)"/><circle class="a" cx="2.5" cy="2.5" r="2.5" transform="translate(1693.057 653)"/></g><g transform="translate(-1777 -798.987)"><path class="e" d="M8.5,0A8.5,8.5,0,1,1,0,8.5,8.5,8.5,0,0,1,8.5,0Z" transform="translate(1850 798.987)"/><line class="f" x2="6.067" y2="6.067" transform="translate(1855.46 804.46)"/><line class="f" x1="6.067" y2="6.067" transform="translate(1855.46 804.46)"/></g></g></svg>