<svg xmlns="http://www.w3.org/2000/svg" version="1.1" xmlns:xlink="http://www.w3.org/1999/xlink" xmlns:svgjs="http://svgjs.com/svgjs" width="512" height="512" x="0" y="0" viewBox="0 0 512 512" style="enable-background:new 0 0 512 512" xml:space="preserve" class=""><g><path d="M17.07 198.93C15.21 197.07 12.63 196 10 196s-5.21 1.07-7.07 2.93S0 203.37 0 206s1.07 5.21 2.93 7.07S7.37 216 10 216s5.21-1.07 7.07-2.93S20 208.63 20 206s-1.07-5.21-2.93-7.07z" fill="#ffffff" data-original="#000000" class="" opacity="1"></path><path d="M454 115h-50V37c0-5.523-4.477-10-10-10H10C4.477 27 0 31.477 0 37v127c0 5.523 4.477 10 10 10s10-4.477 10-10V47h308v98.667c0 5.523 4.477 10 10 10s10-4.477 10-10V47h36v364c0 29.776-24.224 54-54 54H74c-29.776 0-54-24.224-54-54V246c0-5.523-4.477-10-10-10s-10 4.477-10 10v165c0 40.804 33.196 74 74 74h256c40.804 0 74-33.196 74-74v-44h50c31.981 0 58-26.019 58-58V173c0-31.981-26.019-58-58-58zm-50 68h40v116h-40V183zm88 126c0 20.953-17.047 38-38 38h-50v-28h50c5.523 0 10-4.477 10-10V173c0-5.523-4.477-10-10-10h-50v-28h50c20.953 0 38 17.047 38 38v136z" fill="#ffffff" data-original="#000000" class="" opacity="1"></path><path d="M345.07 177.26c-1.86-1.86-4.44-2.93-7.07-2.93s-5.21 1.07-7.07 2.93a10.076 10.076 0 0 0-2.93 7.07c0 2.64 1.07 5.21 2.93 7.07 1.86 1.87 4.44 2.93 7.07 2.93s5.21-1.06 7.07-2.93c1.86-1.86 2.93-4.43 2.93-7.07 0-2.63-1.07-5.21-2.93-7.07z" fill="#ffffff" data-original="#000000" class="" opacity="1"></path></g></svg>