<svg xmlns="http://www.w3.org/2000/svg" width="32" height="18.756" viewBox="0 0 32 18.756">
  <defs>
    <style>
      .cls-1 {
        fill: #fff;
      }
    </style>
  </defs>
  <g id="speaker" transform="translate(0 -102.381)">
    <circle id="Ellipse_8" data-name="Ellipse 8" class="cls-1" cx="0.647" cy="0.647" r="0.647" transform="translate(15.353 102.381)"/>
    <path id="Path_92" data-name="Path 92" class="cls-1" d="M22.622,102.388H18.878a.647.647,0,0,0,0,1.294h3.744a8.084,8.084,0,1,1,0,16.169H9.378a8.084,8.084,0,1,1,0-16.169h3.744a.647.647,0,0,0,0-1.294H9.378a9.378,9.378,0,1,0,0,18.756H22.622a9.378,9.378,0,1,0,0-18.756Z" transform="translate(0 -0.007)"/>
    <path id="Path_93" data-name="Path 93" class="cls-1" d="M332.353,318.588a.647.647,0,1,0-.237-.884A.647.647,0,0,0,332.353,318.588Z" transform="translate(-310.555 -201.094)"/>
    <path id="Path_94" data-name="Path 94" class="cls-1" d="M372.353,300.921a.647.647,0,1,0-.237-.884A.647.647,0,0,0,372.353,300.921Z" transform="translate(-347.967 -184.57)"/>
    <path id="Path_95" data-name="Path 95" class="cls-1" d="M372.353,260.921a.647.647,0,1,0-.237-.883A.647.647,0,0,0,372.353,260.921Z" transform="translate(-347.967 -147.157)"/>
    <path id="Path_96" data-name="Path 96" class="cls-1" d="M372.353,220.921a.647.647,0,1,0-.237-.883A.647.647,0,0,0,372.353,220.921Z" transform="translate(-347.967 -109.744)"/>
    <path id="Path_97" data-name="Path 97" class="cls-1" d="M372.353,180.921a.647.647,0,1,0-.237-.883A.647.647,0,0,0,372.353,180.921Z" transform="translate(-347.967 -72.331)"/>
    <path id="Path_98" data-name="Path 98" class="cls-1" d="M332.353,278.588a.647.647,0,1,0-.237-.883A.647.647,0,0,0,332.353,278.588Z" transform="translate(-310.555 -163.681)"/>
    <path id="Path_99" data-name="Path 99" class="cls-1" d="M332.353,238.588a.647.647,0,1,0-.237-.884A.647.647,0,0,0,332.353,238.588Z" transform="translate(-310.555 -126.268)"/>
    <path id="Path_100" data-name="Path 100" class="cls-1" d="M332.353,198.588a.647.647,0,1,0-.237-.883A.647.647,0,0,0,332.353,198.588Z" transform="translate(-310.555 -88.855)"/>
    <path id="Path_101" data-name="Path 101" class="cls-1" d="M411.688,278.588a.647.647,0,1,0-.237-.883A.647.647,0,0,0,411.688,278.588Z" transform="translate(-384.758 -163.681)"/>
    <path id="Path_102" data-name="Path 102" class="cls-1" d="M411.688,238.588a.647.647,0,1,0-.237-.884A.647.647,0,0,0,411.688,238.588Z" transform="translate(-384.758 -126.268)"/>
    <path id="Path_103" data-name="Path 103" class="cls-1" d="M411.688,198.588a.647.647,0,1,0-.237-.883A.647.647,0,0,0,411.688,198.588Z" transform="translate(-384.758 -88.855)"/>
    <path id="Path_104" data-name="Path 104" class="cls-1" d="M332.353,158.588a.647.647,0,1,0-.237-.884A.647.647,0,0,0,332.353,158.588Z" transform="translate(-310.555 -51.442)"/>
    <path id="Path_105" data-name="Path 105" class="cls-1" d="M143.694,157.466a.647.647,0,1,0,.237.884A.647.647,0,0,0,143.694,157.466Z" transform="translate(-133.493 -51.441)"/>
    <path id="Path_106" data-name="Path 106" class="cls-1" d="M103.694,175.132a.647.647,0,1,0,.237.884A.647.647,0,0,0,103.694,175.132Z" transform="translate(-96.08 -67.965)"/>
    <path id="Path_107" data-name="Path 107" class="cls-1" d="M103.694,215.132a.647.647,0,1,0,.237.883A.647.647,0,0,0,103.694,215.132Z" transform="translate(-96.08 -105.378)"/>
    <path id="Path_108" data-name="Path 108" class="cls-1" d="M103.694,255.132a.647.647,0,1,0,.237.883A.647.647,0,0,0,103.694,255.132Z" transform="translate(-96.08 -142.791)"/>
    <path id="Path_109" data-name="Path 109" class="cls-1" d="M103.694,295.132a.647.647,0,1,0,.237.883A.647.647,0,0,0,103.694,295.132Z" transform="translate(-96.08 -180.203)"/>
    <path id="Path_110" data-name="Path 110" class="cls-1" d="M143.694,197.466a.647.647,0,1,0,.237.883A.647.647,0,0,0,143.694,197.466Z" transform="translate(-133.493 -88.854)"/>
    <path id="Path_111" data-name="Path 111" class="cls-1" d="M143.694,237.466a.647.647,0,1,0,.237.884A.647.647,0,0,0,143.694,237.466Z" transform="translate(-133.493 -126.267)"/>
    <path id="Path_112" data-name="Path 112" class="cls-1" d="M143.694,277.466a.647.647,0,1,0,.237.884A.647.647,0,0,0,143.694,277.466Z" transform="translate(-133.493 -163.68)"/>
    <path id="Path_113" data-name="Path 113" class="cls-1" d="M64.359,197.466a.647.647,0,1,0,.237.883A.647.647,0,0,0,64.359,197.466Z" transform="translate(-59.289 -88.854)"/>
    <path id="Path_114" data-name="Path 114" class="cls-1" d="M64.359,237.466a.647.647,0,1,0,.237.884A.647.647,0,0,0,64.359,237.466Z" transform="translate(-59.289 -126.267)"/>
    <path id="Path_115" data-name="Path 115" class="cls-1" d="M64.359,277.466a.647.647,0,1,0,.237.884A.647.647,0,0,0,64.359,277.466Z" transform="translate(-59.289 -163.68)"/>
    <path id="Path_116" data-name="Path 116" class="cls-1" d="M143.694,317.466a.647.647,0,1,0,.237.884A.647.647,0,0,0,143.694,317.466Z" transform="translate(-133.493 -201.093)"/>
    <path id="Path_117" data-name="Path 117" class="cls-1" d="M190.044,162.617a.647.647,0,0,0,.289.868l1.377.689-1.457,1.012a.647.647,0,0,0,.738,1.063l1.284-.891v3.894a.653.653,0,0,0,1.067.491l3.832-3.279a.647.647,0,0,0-.131-1.07l-2.8-1.4,2.883-2a.647.647,0,0,0-.023-1.078l-3.832-2.427a.647.647,0,0,0-.993.546v3.978l-1.363-.682A.647.647,0,0,0,190.044,162.617Zm3.525-2.41,2.016,1.277-2.016,1.4Zm0,4.9,2.024,1.012-2.024,1.732Z" transform="translate(-177.689 -52.381)"/>
  </g>
</svg>
