<svg xmlns="http://www.w3.org/2000/svg" width="30.798" height="32" viewBox="0 0 30.798 32">
  <defs>
    <style>
      .cls-1 {
        fill: #fff;
      }
    </style>
  </defs>
  <g id="mask" transform="translate(-9.615 0)">
    <path id="Path_59" data-name="Path 59" class="cls-1" d="M75.936,183.057a7.845,7.845,0,0,1-2.723-.206.625.625,0,0,0-.776.7c.015.1.035.237.059.4.075.509.188,1.278.306,1.964.336,1.939,1.507,2.079,3.4,2.079.249,0,.487,0,.717,0a13.349,13.349,0,0,1,4.293.455.625.625,0,0,0,.789-.7C81.436,184.324,79.284,182.66,75.936,183.057Zm1.595,3.679-.625,0c-.227,0-.463,0-.709,0a4.615,4.615,0,0,1-1.747-.192c-.15-.077-.3-.207-.416-.85-.083-.481-.164-1.009-.23-1.454a9.346,9.346,0,0,0,2.258.055l.016,0c2.368-.283,3.839.6,4.47,2.7A14.112,14.112,0,0,0,77.53,186.737Z" transform="translate(-58.888 -171.404)"/>
    <path id="Path_60" data-name="Path 60" class="cls-1" d="M292.419,183.057c-3.35-.4-5.5,1.266-6.061,4.686a.625.625,0,0,0,.789.7,13.341,13.341,0,0,1,4.293-.455c.23,0,.468,0,.717,0,1.889,0,3.06-.14,3.4-2.078.113-.646.217-1.355.294-1.873.03-.2.055-.37.073-.488a.625.625,0,0,0-.776-.7A7.857,7.857,0,0,1,292.419,183.057Zm2.132,1.189c-.067.448-.147.971-.231,1.454-.111.643-.267.773-.416.85a4.615,4.615,0,0,1-1.747.192c-.246,0-.482,0-.709,0a16.194,16.194,0,0,0-3.64.255,3.483,3.483,0,0,1,3.65-2.747,6.939,6.939,0,0,1,.822.052l.016,0A9.344,9.344,0,0,0,294.551,184.246Z" transform="translate(-259.438 -171.404)"/>
    <path id="Path_61" data-name="Path 61" class="cls-1" d="M40.063,6.05a.625.625,0,0,0-.729.131C36.095,9.6,33.567,8.989,31.123,8.4l-.1-.024a6.929,6.929,0,0,0,.752-4.2.625.625,0,0,0-.594-.556,7.338,7.338,0,0,0-3.342.6c-.017-.107-.036-.215-.06-.322A6.926,6.926,0,0,0,25.419.15a.625.625,0,0,0-.813,0,6.931,6.931,0,0,0-2.357,3.743c-.023.107-.043.214-.06.322a7.327,7.327,0,0,0-3.341-.6.625.625,0,0,0-.594.555,6.921,6.921,0,0,0,.75,4.2l-.1.024c-2.444.589-4.971,1.2-8.21-2.219a.625.625,0,0,0-1.071.525l1.194,7.752v7.011a.625.625,0,1,0,1.25,0V17.98a3.55,3.55,0,0,0,1.45,1.078V30.025a.725.725,0,1,1-1.45,0V27.082a.625.625,0,1,0-1.25,0v2.943a1.975,1.975,0,1,0,3.95,0V19.359a6.248,6.248,0,0,0,.654.033h4.122c2.89,0,3.906.267,4.873,3.442a.625.625,0,0,0,1.2,0c.969-3.176,1.984-3.442,4.875-3.442h4.121c3.409,0,4.227-2.483,4.559-4.645l1.24-8.041a.625.625,0,0,0-.342-.656ZM27.89,5.593a5.633,5.633,0,0,1,2.683-.731,5.341,5.341,0,0,1-.845,3.232,6.214,6.214,0,0,0-2.255-.045,4.041,4.041,0,0,0-.154-.378,5.946,5.946,0,0,0,.572-2.077ZM25.013,1.475a4.895,4.895,0,0,1,1.423,5.041,2.18,2.18,0,0,0-2.846,0A4.9,4.9,0,0,1,25.013,1.475Zm1.459,8.108c0,1.295-.655,2.345-1.463,2.345s-1.463-1.05-1.463-2.345.655-2.345,1.463-2.345S26.472,8.288,26.472,9.583ZM19.454,4.862a5.623,5.623,0,0,1,2.682.731,5.943,5.943,0,0,0,.571,2.078,4.07,4.07,0,0,0-.154.378,6.219,6.219,0,0,0-2.255.045A5.34,5.34,0,0,1,19.454,4.862Zm18.476,9.7c-.4,2.614-1.3,3.585-3.324,3.585H30.485c-2.391,0-3.823.3-4.847,1.664V16.782a.625.625,0,0,0-1.25,0v3.024c-1.024-1.358-2.455-1.663-4.846-1.663H15.42c-2.02,0-2.921-.972-3.324-3.586L11.13,8.284c3.153,2.515,5.848,1.865,8.067,1.33a7.622,7.622,0,0,1,3.11-.341c-.007.1-.011.2-.011.308a4.294,4.294,0,0,0,.728,2.459,2.308,2.308,0,0,0,3.978,0,4.294,4.294,0,0,0,.728-2.459c0-.1,0-.206-.011-.308a7.615,7.615,0,0,1,3.111.341c2.219.535,4.914,1.184,8.067-1.33Z" transform="translate(0 0)"/>
    <path id="Path_62" data-name="Path 62" class="cls-1" d="M29.458,379.641a.625.625,0,0,0,.625-.625v0a.625.625,0,1,0-.625.629Z" transform="translate(-18.017 -354.74)"/>
  </g>
</svg>
