<svg xmlns="http://www.w3.org/2000/svg" version="1.1" xmlns:xlink="http://www.w3.org/1999/xlink" xmlns:svgjs="http://svgjs.com/svgjs" width="512" height="512" x="0" y="0" viewBox="0 0 503.869 503.869" style="enable-background:new 0 0 512 512" xml:space="preserve" class=""><g><path d="M264.916 35.553c0-16.542-13.458-30-30-30h-191.5c-16.542 0-30 13.458-30 30v142.975c0 16.542 13.458 30 30 30h66.203v25.619H10c-5.523 0-10 4.477-10 10v45.487c0 5.523 4.477 10 10 10h24.468v172.129c0 2.261.286 4.456.82 6.553H10c-12.84 0-12.859 20 0 20h483.869c12.84 0 12.859-20 0-20h-23.816V299.634h23.816c5.523 0 10-4.477 10-10v-45.487c0-5.523-4.477-10-10-10h-25.321V118.54c0-5.523-4.477-10-10-10h-78.831c-5.523 0-10 4.477-10 10v115.607h-19.556c.418-23.656-14.321-45.543-39.973-45.543-25.618 0-40.441 21.885-39.973 45.543H168.713v-25.619h66.203c16.542 0 30-13.458 30-30zm-231.5 0c0-5.514 4.486-10 10-10h191.5c5.514 0 10 4.486 10 10v103.375h-211.5zm0 142.975v-19.6h211.5v19.6c0 5.514-4.486 10-10 10h-191.5c-5.515 0-10-4.486-10-10zm300.15 181.815h116.486v40.71H333.566zm116.486-20H333.566v-40.709h116.486zM389.716 128.54h58.831v18.407h-58.831zm0 38.406h58.831v67.2h-58.831zm-99.501 61.63c0-11.013 8.959-19.973 19.973-19.973s19.973 8.959 19.973 19.973v5.57h-39.945v-5.57zm-160.597-19.972h19.095v25.543h-19.095zm354.251 45.542v25.487H20v-25.487zM313.566 478.315H86.754c.534-2.097.82-4.292.82-6.553v-50.456c0-12.84-20-12.859-20 0v50.456c0 8.197-13.106 8.573-13.106 0V299.634h13.106v41.18c0 12.84 20 12.859 20 0v-41.18h225.993v178.681zm20 0v-57.262h116.486v57.262z" fill="#ffffff" data-original="#000000" class="" opacity="1"></path><path d="M401.042 445.855c-2.096-5.032-8.023-7.49-13.06-5.4-5.032 2.088-7.49 8.014-5.41 13.05 2.081 5.039 8.03 7.487 13.06 5.41 5.051-2.086 7.476-8.018 5.41-13.06zM401.042 376.875c-2.096-5.031-8.014-7.5-13.06-5.41-5.03 2.083-7.497 8.029-5.41 13.06 2.088 5.033 8.029 7.487 13.06 5.41 5.026-2.076 7.504-8.036 5.41-13.06zM382.571 323.815c3.539 8.488 16.131 7.851 18.8-.928 2.576-8.47-6.814-15.938-14.485-11.593-4.351 2.465-6.208 7.899-4.315 12.521zM68.341 384.525c2.095 5.029 8.019 7.497 13.06 5.41 5.031-2.084 7.491-8.032 5.41-13.06-2.085-5.036-8.027-7.489-13.06-5.41-5.052 2.087-7.475 8.019-5.41 13.06z" fill="#ffffff" data-original="#000000" class="" opacity="1"></path></g></svg>