<svg xmlns="http://www.w3.org/2000/svg" width="17.25" height="32" viewBox="0 0 17.25 32">
  <defs>
    <style>
      .cls-1 {
        fill: #fff;
      }
    </style>
  </defs>
  <g id="XMLID_2_" transform="translate(-118)">
    <g id="XMLID_682_" transform="translate(118 0)">
      <path id="XMLID_683_" class="cls-1" d="M245.6,1.25a.625.625,0,0,0,.625-.625.625.625,0,1,0-1.068.442A.631.631,0,0,0,245.6,1.25Z" transform="translate(-237.044 0)"/>
      <path id="XMLID_724_" class="cls-1" d="M135.25.625A.625.625,0,0,0,134.625,0h-5.251a.625.625,0,0,0,0,1.25H134V3H119.25V1.25h4.5a.625.625,0,0,0,0-1.25h-5.123A.625.625,0,0,0,118,.625v30.75a.625.625,0,0,0,.625.625h5.5a.625.625,0,0,0,.621-.554l1.879-16.388L128.5,31.446a.625.625,0,0,0,.621.554h5.5a.625.625,0,0,0,.625-.625V.625ZM134,7.854l-.768-.588-.395-3.016H134Zm-5.5-3.6V7.072a1.878,1.878,0,0,1-1.25,1.768V4.25Zm-9.25,0h1.163l-.395,3.016-.768.588V4.25Zm4.318,26.5H119.25V9.428L120.984,8.1a.625.625,0,0,0,.24-.415l.45-3.436H126V9.536Zm6.115,0-2.366-20.631a3.13,3.13,0,0,0,2.433-3.047V4.25h1.826l.45,3.436a.625.625,0,0,0,.24.415L134,9.428V30.75Z" transform="translate(-118 0)"/>
    </g>
  </g>
</svg>
