<svg xmlns="http://www.w3.org/2000/svg" width="30" height="31.837" viewBox="0 0 30 31.837"><g transform="translate(6638.231 -1784)"><path d="M-6629.31,1786.3v27.416l1.694,1.635h18.558l1.617-1.635v-20.639l-8.243-8.337H-6628Z" transform="translate(-1.591 0.488)" fill="#fff"/><g transform="translate(-6638.231 1784)"><g transform="translate(0)"><rect width="19.283" height="12.052" rx="1" transform="translate(0.473 11.329)" fill="#db0000"/><path d="M44.6,8.616,36.487.188A.613.613,0,0,0,36.046,0H23.957A2.456,2.456,0,0,0,21.5,2.453V11.02H16.6a1.837,1.837,0,0,0-1.836,1.835v9.187A1.837,1.837,0,0,0,16.6,23.877h4.9v5.511a2.454,2.454,0,0,0,2.454,2.448H42.315a2.453,2.453,0,0,0,2.454-2.447V9.04A.613.613,0,0,0,44.6,8.616ZM36.2,1.653l6.658,6.919H36.2Zm-19.593,21a.612.612,0,0,1-.611-.611V12.856a.612.612,0,0,1,.611-.611H33.137a.612.612,0,0,1,.611.611v9.187a.612.612,0,0,1-.611.611Zm26.94,6.737a1.227,1.227,0,0,1-1.229,1.222H23.957a1.228,1.228,0,0,1-1.229-1.224V23.877H33.137a1.837,1.837,0,0,0,1.836-1.835V12.856a1.837,1.837,0,0,0-1.836-1.835H22.728V2.453a1.23,1.23,0,0,1,1.229-1.228H34.973V9.184a.612.612,0,0,0,.612.612h7.959V29.39Z" transform="translate(-14.769)"/></g><g transform="translate(3.596 14.945)"><path d="M76.32,240.94a1.379,1.379,0,0,0-.757-.515,6.182,6.182,0,0,0-1.263-.079H72.6v5.259h1.062v-1.984h.692a6.061,6.061,0,0,0,1.1-.075A1.539,1.539,0,0,0,76,243.3a1.442,1.442,0,0,0,.447-.518,1.715,1.715,0,0,0,.176-.814A1.633,1.633,0,0,0,76.32,240.94Zm-.909,1.448a.7.7,0,0,1-.332.258,2.746,2.746,0,0,1-.839.082h-.581v-1.492h.513a5.1,5.1,0,0,1,.764.036.734.734,0,0,1,.427.233.679.679,0,0,1,.169.473A.707.707,0,0,1,75.41,242.387Z" transform="translate(-72.596 -240.346)" fill="#fff"/></g><g transform="translate(8.492 14.945)"><path d="M155.583,241.783a2.3,2.3,0,0,0-.5-.852,1.759,1.759,0,0,0-.793-.484,3.79,3.79,0,0,0-1-.1h-1.941v5.259h2a3.211,3.211,0,0,0,.94-.111,1.866,1.866,0,0,0,.746-.42,2.319,2.319,0,0,0,.563-.929,3.456,3.456,0,0,0,.161-1.119A3.882,3.882,0,0,0,155.583,241.783Zm-1.033,2.16a1.113,1.113,0,0,1-.278.508.98.98,0,0,1-.429.219,2.891,2.891,0,0,1-.642.05h-.793v-3.483h.477a4.811,4.811,0,0,1,.872.05,1.01,1.01,0,0,1,.491.248,1.2,1.2,0,0,1,.3.509,3.141,3.141,0,0,1,.108.936A3.43,3.43,0,0,1,154.55,243.942Z" transform="translate(-151.346 -240.346)" fill="#fff"/></g><g transform="translate(13.809 14.945)"><path d="M240.451,241.236v-.89h-3.605v5.259h1.062V243.37h2.2v-.89h-2.2v-1.245Z" transform="translate(-236.846 -240.346)" fill="#fff"/></g></g></g></svg>