<svg xmlns="http://www.w3.org/2000/svg" width="28.647" height="32" viewBox="0 0 28.647 32">
  <defs>
    <style>
      .cls-1 {
        fill: #fff;
      }
    </style>
  </defs>
  <g id="sketchbook" transform="translate(-26.821)">
    <g id="Group_74" data-name="Group 74" transform="translate(26.821)">
      <g id="Group_73" data-name="Group 73" transform="translate(0)">
        <path id="Path_87" data-name="Path 87" class="cls-1" d="M127.487,0h-20.04a.625.625,0,0,0-.625.625V28.7a.625.625,0,0,0,.625.625H109.5v2.049a.625.625,0,0,0,.9.559l1.058-.529,1.058.529a.625.625,0,0,0,.9-.559V29.326h14.067a2.986,2.986,0,0,0,2.982-2.982V2.983A2.986,2.986,0,0,0,127.487,0ZM111.458,30.082a.624.624,0,0,0-.279.066l-.433.216V29.326h1.424v1.038l-.433-.216A.623.623,0,0,0,111.458,30.082Zm10.07-2.005H108.072V19.968H109.5v4.4a.625.625,0,1,0,1.25,0v-4.4h10.782Zm0-9.358H108.072V10.609h13.456Zm0-9.359H110.746V4.94a.625.625,0,0,0-1.25,0V9.359h-1.424V1.25h13.456ZM124.2,28.076h-1.424V1.25H124.2Zm5.017-1.732a1.734,1.734,0,0,1-1.732,1.732h-2.035V19.968h3.767Zm0-7.626h-3.767V10.609h3.767Zm0-9.359h-3.767V1.25h2.035a1.734,1.734,0,0,1,1.732,1.732Z" transform="translate(-101.822)"/>
        <path id="Path_88" data-name="Path 88" class="cls-1" d="M150.23,409.75a.625.625,0,0,0-.625.625v.016a.625.625,0,0,0,1.25,0v-.016A.625.625,0,0,0,150.23,409.75Z" transform="translate(-141.931 -384.141)"/>
        <path id="Path_89" data-name="Path 89" class="cls-1" d="M150.23,40.487a.625.625,0,0,0,.625-.625v-.016a.625.625,0,0,0-1.25,0v.016A.625.625,0,0,0,150.23,40.487Z" transform="translate(-141.931 -36.77)"/>
        <path id="Path_90" data-name="Path 90" class="cls-1" d="M29.255.353a.625.625,0,0,0-1.118,0l-1.25,2.5a.625.625,0,0,0-.066.279V28.709a.625.625,0,0,0,.625.625h2.5a.625.625,0,0,0,.625-.625V3.133a.624.624,0,0,0-.066-.28Zm.066,27.73h-1.25V4.542h1.25Zm0-24.791h-1.25V3.281l.625-1.25.625,1.25Z" transform="translate(-26.821 -0.007)"/>
      </g>
    </g>
  </g>
</svg>
