<svg xmlns="http://www.w3.org/2000/svg" width="30.769" height="32" viewBox="0 0 30.769 32">
  <defs>
    <style>
      .cls-1 {
        fill: #fff;
      }
    </style>
  </defs>
  <g id="polo-shirt" transform="translate(-9.845)">
    <g id="Group_49" data-name="Group 49" transform="translate(9.845)">
      <g id="Group_48" data-name="Group 48" transform="translate(0)">
        <path id="Path_71" data-name="Path 71" class="cls-1" d="M40.6,18.341,38.141,6.033a.615.615,0,0,0-.287-.407L31.819,2.005,30.665.274a.607.607,0,0,0-.045-.059L30.609.2a.6.6,0,0,0-.045-.046L30.543.141,30.5.108,30.477.093c-.016-.01-.033-.019-.051-.028l-.02-.01a.612.612,0,0,0-.074-.028l-.015,0a.624.624,0,0,0-.063-.014l-.027,0L30.2,0H20.265l-.03,0-.027,0a.6.6,0,0,0-.063.014l-.015,0a.619.619,0,0,0-.074.028l-.02.01c-.017.009-.034.018-.051.028L19.96.108c-.015.01-.029.021-.043.033L19.9.158A.612.612,0,0,0,19.851.2L19.84.215A.617.617,0,0,0,19.8.274L18.641,2.005,12.606,5.626a.615.615,0,0,0-.287.407L9.857,18.341a.615.615,0,0,0,.6.736H16V31.385a.615.615,0,0,0,.615.615H33.845a.615.615,0,0,0,.615-.615V19.077H40a.616.616,0,0,0,.6-.736ZM30.656,2.479,27.57,7.623,26.076,6.129,30.084,1.62ZM28.783,1.231l-3.553,4-3.553-4Zm-8.406.389,4.008,4.509L22.891,7.623,19.8,2.479ZM34.461,17.846V13.538a.615.615,0,0,0-1.231,0V30.769h-16V29.538h3.077a.615.615,0,0,0,0-1.231H17.23V13.538a.615.615,0,0,0-1.231,0v4.308H11.212l2.261-11.3,5.393-3.236,3.376,5.626a.613.613,0,0,0,.525.3h0a.618.618,0,0,0,.064,0l.01,0,.055-.009.019,0L22.96,9.2l.021-.008.04-.016.022-.01.037-.02.02-.012.037-.026.016-.012a.613.613,0,0,0,.05-.044L24.615,7.64V9.846a.615.615,0,1,0,1.231,0V7.64l1.411,1.411a.613.613,0,0,0,.05.044l.016.012.037.026.02.012.038.021.021.01.04.017L27.5,9.2l.045.013.018,0,.057.009h.008a.621.621,0,0,0,.064,0h0a.613.613,0,0,0,.525-.3L31.6,3.306l5.393,3.236,2.261,11.3H34.461Z" transform="translate(-9.845)"/>
      </g>
    </g>
    <g id="Group_51" data-name="Group 51" transform="translate(24.615 11.077)">
      <g id="Group_50" data-name="Group 50">
        <path id="Path_72" data-name="Path 72" class="cls-1" d="M247.372,177.73a.6.6,0,0,0-.035-.116.622.622,0,0,0-.057-.106.6.6,0,0,0-.17-.17.611.611,0,0,0-.106-.057.578.578,0,0,0-.115-.035.606.606,0,0,0-.24,0,.578.578,0,0,0-.115.035.6.6,0,0,0-.106.057.6.6,0,0,0-.17.17.627.627,0,0,0-.057.106.6.6,0,0,0-.035.116.592.592,0,0,0,0,.24.579.579,0,0,0,.035.115.6.6,0,0,0,.057.106.6.6,0,0,0,.17.17.61.61,0,0,0,.106.057.577.577,0,0,0,.115.035.607.607,0,0,0,.12.012.62.62,0,0,0,.435-.18.586.586,0,0,0,.076-.094.61.61,0,0,0,.057-.106.578.578,0,0,0,.035-.115.592.592,0,0,0,0-.24Z" transform="translate(-246.154 -177.235)"/>
      </g>
    </g>
    <g id="Group_53" data-name="Group 53" transform="translate(21.538 28.308)">
      <g id="Group_52" data-name="Group 52" transform="translate(0)">
        <path id="Path_73" data-name="Path 73" class="cls-1" d="M198.142,453.425a.6.6,0,0,0-.035-.116.622.622,0,0,0-.057-.106.587.587,0,0,0-.076-.094.614.614,0,0,0-.67-.133.6.6,0,0,0-.106.057.6.6,0,0,0-.17.17.627.627,0,0,0-.057.106.6.6,0,0,0-.035.116.591.591,0,0,0,0,.24.578.578,0,0,0,.035.115.6.6,0,0,0,.057.106.6.6,0,0,0,.17.17.611.611,0,0,0,.106.057.579.579,0,0,0,.115.035.59.59,0,0,0,.24,0,.578.578,0,0,0,.115-.035.6.6,0,0,0,.106-.057.6.6,0,0,0,.17-.17.61.61,0,0,0,.057-.106.578.578,0,0,0,.035-.115.605.605,0,0,0,.012-.12A.615.615,0,0,0,198.142,453.425Z" transform="translate(-196.924 -452.93)"/>
      </g>
    </g>
  </g>
</svg>
