<svg xmlns="http://www.w3.org/2000/svg" width="32.526" height="30" viewBox="0 0 32.526 30"><g transform="translate(0 -9.633)"><g transform="translate(0 9.633)"><rect width="18.526" height="28.718" transform="translate(7 0.641)" fill="#fff"/><rect width="30.526" height="16" transform="translate(1 7.43)" fill="#fff"/><path d="M30.232,16.565H26.588V10.616a.983.983,0,0,0-.983-.983H6.921a.983.983,0,0,0-.983.983v5.948H2.295A2.3,2.3,0,0,0,0,18.859V31.477a2.3,2.3,0,0,0,2.295,2.295H5.938V38.65a.983.983,0,0,0,.983.983H25.6a.983.983,0,0,0,.983-.983V33.771h3.643a2.3,2.3,0,0,0,2.295-2.295V18.859A2.3,2.3,0,0,0,30.232,16.565ZM7.9,11.6H24.621v4.965H7.9ZM24.621,37.666H7.9V27.91H24.621Zm5.938-6.189a.332.332,0,0,1-.328.328H26.588V26.927a.983.983,0,0,0-.983-.983H6.921a.983.983,0,0,0-.983.983V31.8H2.295a.332.332,0,0,1-.328-.328V18.859a.332.332,0,0,1,.328-.328H30.231a.332.332,0,0,1,.328.328V31.477Z" transform="translate(0 -9.633)"/></g><circle cx="1.507" cy="1.507" r="1.507" transform="translate(24.03 20.75)"/><path d="M93.1,163.822H83.466a1.059,1.059,0,1,0,0,2.119H93.1a1.059,1.059,0,0,0,0-2.119Z" transform="translate(-72.022 -134.081)"/><path d="M93.1,193.623H83.466a1.059,1.059,0,1,0,0,2.118H93.1a1.059,1.059,0,1,0,0-2.118Z" transform="translate(-72.022 -160.318)"/></g></svg>