<svg xmlns="http://www.w3.org/2000/svg" width="80" height="79.398" viewBox="0 0 80 79.398"><g transform="translate(0 -0.181)"><path d="M15.167,9.09l29.367,5.833A4.925,4.925,0,0,1,48.5,19.79v34a4.993,4.993,0,0,1-5,5h-30a1.65,1.65,0,0,0,1.667-1.667V55.457H43.5a1.672,1.672,0,0,0,1.667-1.667v-34a1.675,1.675,0,0,0-1.3-1.633l-28.7-5.667Z" transform="translate(31.5 20.789)" fill="#fff"/><path d="M25.333,14a1.667,1.667,0,1,1,0,3.333H18.667a1.667,1.667,0,1,1,0-3.333Z" transform="translate(39.667 32.245)" fill="#fff"/><path d="M25.333,17a1.667,1.667,0,1,1,0,3.333H18.667a1.667,1.667,0,1,1,0-3.333Z" transform="translate(39.667 39.245)" fill="#fff"/><path d="M25.333,20a1.667,1.667,0,1,1,0,3.333H18.667a1.667,1.667,0,1,1,0-3.333Z" transform="translate(39.667 46.245)" fill="#fff"/><path d="M16.333,57.333a1.667,1.667,0,0,1-3.333,0V10.666a1.772,1.772,0,0,1,.6-1.3A1.752,1.752,0,0,1,15,9.033l1.333.267V57.333Z" transform="translate(30.333 20.579)" fill="#fff"/><path d="M21.167,23v1.667a1.65,1.65,0,0,0,1.667,1.667H9.5a1.65,1.65,0,0,0,1.667-1.667V23Z" transform="translate(22.167 53.245)" fill="#fff"/><path d="M16.333,5a1.667,1.667,0,1,1,0,3.333H9.667A1.667,1.667,0,1,1,9.667,5Z" transform="translate(18.667 11.245)" fill="#fff"/><path d="M18,9.667a1.65,1.65,0,0,1-1.667,1.667H9.667A1.667,1.667,0,1,1,9.667,8h6.667A1.65,1.65,0,0,1,18,9.667Z" transform="translate(18.667 18.245)" fill="#fff"/><path d="M16.333,11a1.667,1.667,0,1,1,0,3.333H9.667a1.667,1.667,0,1,1,0-3.333Z" transform="translate(18.667 25.245)" fill="#fff"/><path d="M16.333,14a1.667,1.667,0,1,1,0,3.333H9.667a1.667,1.667,0,1,1,0-3.333Z" transform="translate(18.667 32.245)" fill="#fff"/><path d="M13,15.667a1.65,1.65,0,0,1-1.667,1.667H4.667a1.667,1.667,0,1,1,0-3.333h6.667A1.65,1.65,0,0,1,13,15.667Z" transform="translate(7 32.245)" fill="#fff"/><path d="M11.333,5a1.667,1.667,0,0,1,0,3.333H4.667A1.667,1.667,0,1,1,4.667,5Z" transform="translate(7 11.245)" fill="#fff"/><path d="M11.333,8a1.667,1.667,0,0,1,0,3.333H4.667A1.667,1.667,0,1,1,4.667,8Z" transform="translate(7 18.245)" fill="#fff"/><path d="M11.333,11a1.667,1.667,0,0,1,0,3.333H4.667a1.667,1.667,0,1,1,0-3.333Z" transform="translate(7 25.245)" fill="#fff"/><path d="M20.667,22A1.672,1.672,0,0,0,19,20.333H9A1.65,1.65,0,0,0,7.333,22V37H4V22a4.993,4.993,0,0,1,5-5H19a4.993,4.993,0,0,1,5,5V37H20.667Z" transform="translate(9.333 39.245)" fill="#fff"/><path d="M7.333,23H24v1.667a1.65,1.65,0,0,1-1.667,1.667H5.667A1.65,1.65,0,0,1,4,24.667V23Z" transform="translate(9.333 53.245)" fill="#fff"/><path d="M5.833.245,42.467,5.812a4.982,4.982,0,0,1,4.2,4.933V29.879l-1.333-.267a1.752,1.752,0,0,0-1.4.333,1.772,1.772,0,0,0-.6,1.3v-20.5a1.685,1.685,0,0,0-1.4-1.667L5.3,3.545A.923.923,0,0,0,5,3.512a1.572,1.572,0,0,0-1.067.4,1.594,1.594,0,0,0-.6,1.267v69.4A1.672,1.672,0,0,0,5,76.245h8.333v1.667A1.65,1.65,0,0,0,15,79.579H5a4.993,4.993,0,0,1-5-5V5.179a4.908,4.908,0,0,1,1.767-3.8A5,5,0,0,1,5.833.245Z" transform="translate(0 0)" fill="#fff"/></g></svg>