<svg xmlns="http://www.w3.org/2000/svg" width="22.133" height="26.56" viewBox="0 0 22.133 26.56"><path d="M23.52.72H5.813A2.22,2.22,0,0,0,3.6,2.933V25.067A2.22,2.22,0,0,0,5.813,27.28H23.52a2.22,2.22,0,0,0,2.213-2.213V2.933A2.22,2.22,0,0,0,23.52.72ZM10.24,22.853A1.11,1.11,0,0,1,9.133,23.96H6.92a1.11,1.11,0,0,1-1.107-1.107V22.3A1.11,1.11,0,0,1,6.92,21.193H9.133A1.11,1.11,0,0,1,10.24,22.3Zm0-4.427a1.11,1.11,0,0,1-1.107,1.107H6.92a1.11,1.11,0,0,1-1.107-1.107v-.553A1.11,1.11,0,0,1,6.92,16.767H9.133a1.11,1.11,0,0,1,1.107,1.107Zm0-4.427a1.11,1.11,0,0,1-1.107,1.107H6.92A1.11,1.11,0,0,1,5.813,14v-.553A1.11,1.11,0,0,1,6.92,12.34H9.133a1.11,1.11,0,0,1,1.107,1.107Zm6.64,8.853a1.11,1.11,0,0,1-1.107,1.107H13.56a1.11,1.11,0,0,1-1.107-1.107V22.3a1.11,1.11,0,0,1,1.107-1.107h2.213A1.11,1.11,0,0,1,16.88,22.3v.553Zm0-4.427a1.11,1.11,0,0,1-1.107,1.107H13.56a1.11,1.11,0,0,1-1.107-1.107v-.553a1.11,1.11,0,0,1,1.107-1.107h2.213a1.11,1.11,0,0,1,1.107,1.107v.553Zm0-4.427a1.11,1.11,0,0,1-1.107,1.107H13.56A1.11,1.11,0,0,1,12.453,14v-.553A1.11,1.11,0,0,1,13.56,12.34h2.213a1.11,1.11,0,0,1,1.107,1.107V14Zm6.64,8.853a1.11,1.11,0,0,1-1.107,1.107H20.2a1.11,1.11,0,0,1-1.107-1.107V22.3A1.11,1.11,0,0,1,20.2,21.193h2.213A1.11,1.11,0,0,1,23.52,22.3v.553Zm0-4.427a1.11,1.11,0,0,1-1.107,1.107H20.2a1.11,1.11,0,0,1-1.107-1.107v-.553A1.11,1.11,0,0,1,20.2,16.767h2.213a1.11,1.11,0,0,1,1.107,1.107v.553Zm0-4.427a1.11,1.11,0,0,1-1.107,1.107H20.2A1.11,1.11,0,0,1,19.093,14v-.553A1.11,1.11,0,0,1,20.2,12.34h2.213a1.11,1.11,0,0,1,1.107,1.107V14Zm0-4.98a1.11,1.11,0,0,1-1.107,1.107H6.92A1.11,1.11,0,0,1,5.813,9.02V4.593A1.11,1.11,0,0,1,6.92,3.487H22.413A1.11,1.11,0,0,1,23.52,4.593Z" transform="translate(-3.6 -0.72)" fill="#fff"/></svg>