<svg xmlns="http://www.w3.org/2000/svg" width="32" height="31.618" viewBox="0 0 32 31.618">
  <defs>
    <style>
      .cls-1 {
        fill: #fff;
      }
    </style>
  </defs>
  <g id="summer-holidays" transform="translate(-0.001 -3.057)">
    <circle id="Ellipse_9" data-name="Ellipse 9" class="cls-1" cx="0.627" cy="0.627" r="0.627" transform="translate(16.554 29.527)"/>
    <path id="Path_118" data-name="Path 118" class="cls-1" d="M31.981,124.179a.627.627,0,0,0-.292-.381l-6.3-3.637a.625.625,0,0,0-.451-.192H9.637V111.36h6.978a.627.627,0,0,0,.627-.627,8.231,8.231,0,0,0-16.463,0,.627.627,0,0,0,.627.627H8.383v8.609h-.39L2.329,116.7a.633.633,0,0,0-.856.229l-1.388,2.4a.627.627,0,0,0,.229.856l5.973,3.449-1.462,3.393a.627.627,0,1,0,1.151.5L7.5,124h6.837a.627.627,0,1,0,0-1.254H7.249l-5.765-3.328.761-1.319,5.266,3.041a.627.627,0,0,0,.313.084h16.9l5.8,3.348-.761,1.319-5.3-3.06a.627.627,0,0,0-.313-.084H19.975a.627.627,0,0,0,0,1.254h4l5.7,3.289c.629.363.946-.386,1.19-.808l.913-1.581a.921.921,0,0,0,.2-.72ZM9.637,104.422A7.163,7.163,0,0,1,10.7,105.6a8.359,8.359,0,0,1,1.52,4.5H9.637Zm6.323,5.685H13.473a9.408,9.408,0,0,0-2.409-6.042A6.994,6.994,0,0,1,15.96,110.107ZM7,104.049a9.4,9.4,0,0,0-2.423,6.057H2.06A6.994,6.994,0,0,1,7,104.049Zm-1.167,6.057a8.359,8.359,0,0,1,1.52-4.5,7.184,7.184,0,0,1,1.025-1.15v5.653Z" transform="translate(0 -93.23)"/>
    <path id="Path_119" data-name="Path 119" class="cls-1" d="M350.975,13.443a5.193,5.193,0,1,0-5.193-5.193A5.2,5.2,0,0,0,350.975,13.443Zm0-9.132a3.94,3.94,0,1,1-3.94,3.94A3.944,3.944,0,0,1,350.975,4.311Z" transform="translate(-324.17)"/>
    <path id="Path_120" data-name="Path 120" class="cls-1" d="M313.074,173.634a.633.633,0,0,0,.88-.107l1.352-1.727a.627.627,0,1,0-.987-.773l-1.352,1.727A.627.627,0,0,0,313.074,173.634Z" transform="translate(-293.28 -157.247)"/>
    <path id="Path_121" data-name="Path 121" class="cls-1" d="M393.388,198.541l-.269,2.177a.627.627,0,0,0,1.244.154l.269-2.177a.627.627,0,1,0-1.244-.154Z" transform="translate(-368.543 -182.751)"/>
    <path id="Path_122" data-name="Path 122" class="cls-1" d="M267.8,45.8l2.019.372a.732.732,0,0,0,.668-.122.633.633,0,0,0-.143-1.033c-.145-.07-1.568-.312-2.11-.412a.8.8,0,0,0-.73.1A.632.632,0,0,0,267.8,45.8Z" transform="translate(-250.585 -38.919)"/>
    <path id="Path_123" data-name="Path 123" class="cls-1" d="M274.3,115.793l-2.134.5a.627.627,0,1,0,.288,1.22l2.134-.5a.627.627,0,0,0-.289-1.22Z" transform="translate(-254.7 -105.674)"/>
  </g>
</svg>
