<svg xmlns="http://www.w3.org/2000/svg" width="66.471" height="80" viewBox="0 0 66.471 80"><g transform="translate(-15.359)"><g transform="translate(39.208)"><path d="M97.165,9.885A11.424,11.424,0,0,0,85.979,0a11.273,11.273,0,0,0-9.13,4.734,1.373,1.373,0,0,0,.289,1.895A1.313,1.313,0,0,0,79,6.333a8.627,8.627,0,0,1,6.983-3.621,8.734,8.734,0,0,1,8.554,7.556,1.339,1.339,0,0,0,1.315,1.165,1.4,1.4,0,0,0,.189-.014A1.352,1.352,0,0,0,97.165,9.885Z" transform="translate(-76.593)" fill="#fff"/></g><g transform="translate(18.017 17.627)"><g transform="translate(0)"><path d="M83.148,51.81,79.16,45.03a1.323,1.323,0,0,0-1.14-.658H74.2a1.356,1.356,0,0,0,0,2.712h3.069l2.393,4.068h-53.8l2.393-4.068h1.408a1.356,1.356,0,0,0,0-2.712H27.5a1.323,1.323,0,0,0-1.14.658l-3.988,6.78a1.381,1.381,0,0,0-.017,1.366,1.324,1.324,0,0,0,1.157.688H82.008a1.325,1.325,0,0,0,1.157-.688A1.38,1.38,0,0,0,83.148,51.81Z" transform="translate(-22.185 -44.372)" fill="#fff"/></g></g><g transform="translate(50.405 7.598)"><path d="M127.292,24.09a1.329,1.329,0,0,0-.827-.605l-18.123-4.323a1.31,1.31,0,0,0-1,.168,1.356,1.356,0,0,0-.593.843l-1.367,5.959a1.356,1.356,0,0,0,.992,1.628,1.328,1.328,0,0,0,1.6-1.011l1.064-4.638,15.533,3.706-2.441,10.644a1.356,1.356,0,0,0,.992,1.628,1.319,1.319,0,0,0,.3.036,1.333,1.333,0,0,0,1.292-1.047l2.744-11.964A1.373,1.373,0,0,0,127.292,24.09Z" transform="translate(-105.343 -19.126)" fill="#fff"/></g><g transform="translate(23.201 4.121)"><g transform="translate(0)"><path d="M61.59,22.02l-1.211-10.45a1.361,1.361,0,0,0-.5-.906,1.311,1.311,0,0,0-.979-.282L36.667,13.063A1.351,1.351,0,0,0,35.5,14.569L37.523,32a1.339,1.339,0,0,0,1.319,1.2,1.424,1.424,0,0,0,.158-.01,1.351,1.351,0,0,0,1.164-1.506L38.3,15.6l19.595-2.362,1.055,9.1a1.337,1.337,0,0,0,1.476,1.188A1.35,1.35,0,0,0,61.59,22.02Z" transform="translate(-35.494 -10.374)" fill="#fff"/></g></g><g transform="translate(33.133 13.017)"><path d="M87.674,45,85.035,33.807a1.358,1.358,0,0,0-.6-.839,1.315,1.315,0,0,0-1.005-.161L62.016,38.06a1.358,1.358,0,0,0-.982,1.635l1.319,5.594a1.327,1.327,0,0,0,1.6,1,1.358,1.358,0,0,0,.982-1.635l-1.008-4.276L82.76,35.761l2.328,9.873a1.335,1.335,0,0,0,1.291,1.039,1.3,1.3,0,0,0,.312-.038A1.358,1.358,0,0,0,87.674,45Z" transform="translate(-60.997 -32.769)" fill="#fff"/></g><g transform="translate(15.359 24.407)"><g transform="translate(0)"><path d="M79.169,62.727a1.342,1.342,0,0,0-1.328-1.286H19.347a1.341,1.341,0,0,0-1.328,1.286L15.36,115.609a1.372,1.372,0,0,0,.364,1,1.319,1.319,0,0,0,.964.422H80.5a1.323,1.323,0,0,0,.965-.422,1.375,1.375,0,0,0,.364-1ZM18.087,114.322,20.61,64.153H76.577L79.1,114.322Z" transform="translate(-15.359 -61.441)" fill="#fff"/></g></g><g transform="translate(54.576 29.83)"><path d="M120.04,75.093a4.069,4.069,0,1,0,3.988,4.068A4.033,4.033,0,0,0,120.04,75.093Zm0,5.424a1.356,1.356,0,1,1,1.329-1.356A1.344,1.344,0,0,1,120.04,80.517Z" transform="translate(-116.052 -75.093)" fill="#fff"/></g><g transform="translate(34.635 29.83)"><g transform="translate(0)"><path d="M68.84,75.093a4.069,4.069,0,1,0,3.988,4.068A4.033,4.033,0,0,0,68.84,75.093Zm0,5.424a1.356,1.356,0,1,1,1.329-1.356A1.344,1.344,0,0,1,68.84,80.517Z" transform="translate(-64.852 -75.093)" fill="#fff"/></g></g><g transform="translate(37.294 33.898)"><g transform="translate(0)"><path d="M92.949,85.333h-.1a1.343,1.343,0,0,0-1.329,1.356,1.364,1.364,0,0,0,.1.523v6.935a8.643,8.643,0,1,1-17.282,0V86.689a1.33,1.33,0,1,0-2.659,0v7.457a11.3,11.3,0,1,0,22.6,0V86.689A1.344,1.344,0,0,0,92.949,85.333Z" transform="translate(-71.679 -85.333)" fill="#fff"/></g></g></g></svg>