<svg xmlns="http://www.w3.org/2000/svg" xmlns:xlink="http://www.w3.org/1999/xlink" width="68" height="68" viewBox="0 0 68 68"><defs><filter id="a" x="0" y="0" width="68" height="68" filterUnits="userSpaceOnUse"><feOffset dy="3" input="SourceAlpha"/><feGaussianBlur stdDeviation="3" result="b"/><feFlood flood-opacity="0.161"/><feComposite operator="in" in2="b"/><feComposite in="SourceGraphic"/></filter></defs><g transform="translate(-920 -4422)"><g transform="matrix(1, 0, 0, 1, 920, 4422)" filter="url(#a)"><circle cx="25" cy="25" r="25" transform="translate(9 6)" fill="#2cb5ff"/></g><g transform="translate(1.448 1.298)"><path d="M10.02,12.539.527,3.053a1.785,1.785,0,0,1,0-2.532,1.808,1.808,0,0,1,2.54,0L13.822,11.269a1.79,1.79,0,0,1,.052,2.472L3.074,24.565a1.793,1.793,0,0,1-2.54-2.532Z" transform="translate(940.008 4452.495) rotate(-90)" fill="#fff"/><path d="M10.02,12.539.527,3.053a1.785,1.785,0,0,1,0-2.532,1.808,1.808,0,0,1,2.54,0L13.822,11.269a1.79,1.79,0,0,1,.052,2.472L3.074,24.565a1.793,1.793,0,0,1-2.54-2.532Z" transform="translate(940.008 4463.253) rotate(-90)" fill="#fff"/></g></g></svg>