<svg xmlns="http://www.w3.org/2000/svg" width="32" height="28.625" viewBox="0 0 32 28.625">
  <defs>
    <style>
      .cls-1 {
        fill: #fff;
      }
    </style>
  </defs>
  <g id="shirt" transform="translate(0 -27.001)">
    <g id="Group_55" data-name="Group 55" transform="translate(14.75 49.583)">
      <g id="Group_54" data-name="Group 54">
        <path id="Path_74" data-name="Path 74" class="cls-1" d="M236.627,388.322a.625.625,0,0,0-.625.625v.012a.625.625,0,0,0,1.25,0v-.012A.625.625,0,0,0,236.627,388.322Z" transform="translate(-236.002 -388.322)"/>
      </g>
    </g>
    <g id="Group_57" data-name="Group 57" transform="translate(14.75 45.974)">
      <g id="Group_56" data-name="Group 56" transform="translate(0 0)">
        <path id="Path_75" data-name="Path 75" class="cls-1" d="M236.627,330.566a.625.625,0,0,0-.625.625v.012a.625.625,0,0,0,1.25,0v-.012A.625.625,0,0,0,236.627,330.566Z" transform="translate(-236.002 -330.566)"/>
      </g>
    </g>
    <g id="Group_59" data-name="Group 59" transform="translate(14.75 42.364)">
      <g id="Group_58" data-name="Group 58">
        <path id="Path_76" data-name="Path 76" class="cls-1" d="M236.627,272.81a.625.625,0,0,0-.625.625v.012a.625.625,0,0,0,1.25,0v-.012A.625.625,0,0,0,236.627,272.81Z" transform="translate(-236.002 -272.81)"/>
      </g>
    </g>
    <g id="Group_61" data-name="Group 61" transform="translate(14.75 38.754)">
      <g id="Group_60" data-name="Group 60" transform="translate(0 0)">
        <path id="Path_77" data-name="Path 77" class="cls-1" d="M236.627,215.054a.625.625,0,0,0-.625.625v.012a.625.625,0,0,0,1.25,0v-.012A.625.625,0,0,0,236.627,215.054Z" transform="translate(-236.002 -215.054)"/>
      </g>
    </g>
    <g id="Group_63" data-name="Group 63" transform="translate(14.75 35.144)">
      <g id="Group_62" data-name="Group 62">
        <path id="Path_78" data-name="Path 78" class="cls-1" d="M236.627,157.3a.625.625,0,0,0-.625.625v.012a.625.625,0,0,0,1.25,0v-.012A.625.625,0,0,0,236.627,157.3Z" transform="translate(-236.002 -157.298)"/>
      </g>
    </g>
    <g id="Group_65" data-name="Group 65" transform="translate(0 27.001)">
      <g id="Group_64" data-name="Group 64" transform="translate(0 0)">
        <path id="Path_79" data-name="Path 79" class="cls-1" d="M31.992,54.032,28.819,33.506a3.132,3.132,0,0,0-1.678-2.311s-1.519-.767-1.535-.774l-3.442-1.374-1.769-1.852A.623.623,0,0,0,19.943,27H12.056a.623.623,0,0,0-.452.193L9.835,29.046l-3.492,1.4-1.485.751A3.132,3.132,0,0,0,3.18,33.506L.007,54.032a.625.625,0,0,0,.461.7l3.375.874a.625.625,0,0,0,.768-.476L6,48.529V55a.625.625,0,0,0,.625.625h18.75A.625.625,0,0,0,26,55V48.529l1.388,6.6a.625.625,0,0,0,.768.476l3.375-.874A.625.625,0,0,0,31.992,54.032Zm-28.469.2-2.194-.568.233-1.505,2.28.56ZM6,42.456,4.1,51.494l-2.345-.576L4.415,33.7A1.879,1.879,0,0,1,5.422,32.31L6,32.018ZM20.888,29.52l-3.224,2.632L16.855,31.1l3.045-2.61Zm-2.634-1.269L16,30.183l-2.254-1.932Zm-6.155.235,3.045,2.61-.808,1.055-3.224-2.632Zm12.65,14.036V54.376H20.5v-3.9a.625.625,0,1,0-1.25,0v3.9H18V35a.625.625,0,1,0-1.25,0V54.376H7.25V31.424l2.833-1.131,3.961,3.234a.625.625,0,0,0,.891-.1L16,32.034l1.064,1.389a.625.625,0,0,0,.891.1l3.962-3.234,2.833,1.131ZM27.9,51.494,26,42.457V32.018h0l.578.292A1.879,1.879,0,0,1,27.584,33.7l2.662,17.222Zm.576,2.737-.318-1.513,2.28-.56.233,1.505Z" transform="translate(0 -27.001)"/>
      </g>
    </g>
    <g id="Group_67" data-name="Group 67" transform="translate(19.25 47.687)">
      <g id="Group_66" data-name="Group 66" transform="translate(0 0)">
        <path id="Path_80" data-name="Path 80" class="cls-1" d="M309.069,358.165a.625.625,0,1,0,.183.442A.63.63,0,0,0,309.069,358.165Z" transform="translate(-308.002 -357.982)"/>
      </g>
    </g>
    <g id="Group_69" data-name="Group 69" transform="translate(9 40.82)">
      <g id="Group_68" data-name="Group 68" transform="translate(0 0)">
        <path id="Path_81" data-name="Path 81" class="cls-1" d="M145.069,248.3a.625.625,0,1,0,.183.442A.629.629,0,0,0,145.069,248.3Z" transform="translate(-144.002 -248.112)"/>
      </g>
    </g>
    <g id="Group_71" data-name="Group 71" transform="translate(9 34.194)">
      <g id="Group_70" data-name="Group 70" transform="translate(0 0)">
        <path id="Path_82" data-name="Path 82" class="cls-1" d="M144.627,142.094a.625.625,0,0,0-.625.625v4.465a.625.625,0,1,0,1.25,0v-4.465A.625.625,0,0,0,144.627,142.094Z" transform="translate(-144.002 -142.094)"/>
      </g>
    </g>
  </g>
</svg>
