<svg xmlns="http://www.w3.org/2000/svg" width="23.75" height="32" viewBox="0 0 23.75 32">
  <defs>
    <style>
      .cls-1 {
        fill: #fff;
      }
    </style>
  </defs>
  <g id="jacket_1_" data-name="jacket (1)" transform="translate(-66)">
    <circle id="Ellipse_3" data-name="Ellipse 3" class="cls-1" cx="0.625" cy="0.625" r="0.625" transform="translate(82.875 28.875)"/>
    <path id="Path_47" data-name="Path 47" class="cls-1" d="M66,25.563v2.062a2.5,2.5,0,0,0,2.5,2.5h8.75v1.25a.625.625,0,1,0,1.25,0v-1.25h2.188a.625.625,0,0,0,0-1.25H78.5V24.313h8.75a1.251,1.251,0,0,1,1.25,1.25v2.062a1.251,1.251,0,0,1-1.25,1.25h-.937a.625.625,0,1,0,0,1.25h.937a2.5,2.5,0,0,0,2.5-2.5V25.563a2.494,2.494,0,0,0-.849-1.875,2.494,2.494,0,0,0,.849-1.875V19.75a2.494,2.494,0,0,0-.849-1.875A2.494,2.494,0,0,0,89.75,16V13.937a2.494,2.494,0,0,0-.849-1.875,2.494,2.494,0,0,0,.849-1.875V8.125a2.5,2.5,0,0,0-2.5-2.5H84.125v-5A.627.627,0,0,0,83.5,0H72.249a.627.627,0,0,0-.624.625v5H68.5a2.5,2.5,0,0,0-2.5,2.5v2.063a2.494,2.494,0,0,0,.849,1.875A2.494,2.494,0,0,0,66,13.937V16a2.494,2.494,0,0,0,.849,1.875A2.494,2.494,0,0,0,66,19.75v2.063a2.494,2.494,0,0,0,.849,1.875A2.494,2.494,0,0,0,66,25.563ZM88.5,19.75v2.063a1.251,1.251,0,0,1-1.25,1.25H78.5V18.5h8.75A1.251,1.251,0,0,1,88.5,19.75ZM72.875,1.793,77.25,4.71V7.258L72.875,5.8Zm10,4.007L78.5,7.258V4.71l4.375-2.917Zm-5-2.176L74.314,1.25h7.122ZM88.5,13.937V16a1.251,1.251,0,0,1-1.25,1.25H78.5V12.688h8.75A1.251,1.251,0,0,1,88.5,13.937Zm0-5.812v2.063a1.251,1.251,0,0,1-1.25,1.25H78.5V8.576l5.1-1.7H87.25A1.251,1.251,0,0,1,88.5,8.125ZM67.25,10.188V8.125a1.251,1.251,0,0,1,1.25-1.25h3.648l5.1,1.7v2.862H68.5A1.251,1.251,0,0,1,67.25,10.188Zm0,5.812V13.937a1.251,1.251,0,0,1,1.25-1.25h8.75V17.25H68.5A1.251,1.251,0,0,1,67.25,16Zm0,5.813V19.75A1.251,1.251,0,0,1,68.5,18.5h8.75v4.562H68.5A1.251,1.251,0,0,1,67.25,21.813Zm10,2.5v4.563H68.5a1.251,1.251,0,0,1-1.25-1.25V25.563a1.251,1.251,0,0,1,1.25-1.25Z"/>
  </g>
</svg>
