<svg xmlns="http://www.w3.org/2000/svg" width="32" height="32" viewBox="0 0 32 32">
  <defs>
    <style>
      .cls-1 {
        fill: #fff;
      }
    </style>
  </defs>
  <g id="jacket" transform="translate(0 0)">
    <path id="Path_53" data-name="Path 53" class="cls-1" d="M.625,32h3.75A.625.625,0,0,0,5,31.375v-3.2a2.506,2.506,0,0,0,1.859-2.141A2.484,2.484,0,0,0,7.5,26.3v3.2a.625.625,0,0,0,.625.625h5.062a.625.625,0,0,0,0-1.25H8.75v-2.5h14.5v2.5H18.813a.625.625,0,0,0,0,1.25h5.063A.625.625,0,0,0,24.5,29.5V26.3a2.484,2.484,0,0,0,.641-.266A2.506,2.506,0,0,0,27,28.171v3.2a.625.625,0,0,0,.625.625h3.75A.625.625,0,0,0,32,31.375V11.487A7.9,7.9,0,0,0,24.075,3.75h-.047a3.307,3.307,0,0,1-2.856-1.678L20.309.345A.631.631,0,0,0,19.75,0h-7.5a.632.632,0,0,0-.534.3C10.6,2.133,10.662,2.029,10.64,2.072A3.307,3.307,0,0,1,7.784,3.75H7.736A7.729,7.729,0,0,0,0,11.487V31.375A.625.625,0,0,0,.625,32Zm.625-1.25v-2.5h2.5v2.5Zm27,0v-2.5h2.5v2.5Zm2.5-19.263V27H27.625a1.251,1.251,0,0,1-1.25-1.25V14.986A11.332,11.332,0,0,1,29.243,7.42a6.278,6.278,0,0,1,1.507,4.067ZM24.047,5a6.787,6.787,0,0,1,4.3,1.542,12.656,12.656,0,0,0-3.226,8.444v5.13l-2.683-2.683a.625.625,0,0,0-.884.884l3.567,3.567v1.991a1.251,1.251,0,0,1-1.25,1.25h-7.25V8.384l.915-.915a9.615,9.615,0,0,0,2.595-4.687A4.573,4.573,0,0,0,24.047,5ZM19.1,1.25a8.366,8.366,0,0,1-2.446,5.335L16,7.241l-.656-.656A8.366,8.366,0,0,1,12.9,1.25ZM7.736,5h.049a4.557,4.557,0,0,0,3.962-2.345l.068-.112A9.611,9.611,0,0,0,14.46,7.469l.915.915V25.125H8.125a1.251,1.251,0,0,1-1.25-1.25V21.884l3.567-3.567a.625.625,0,0,0-.884-.884L6.875,20.116v-5.13A12.653,12.653,0,0,0,3.6,6.489,6.432,6.432,0,0,1,7.736,5ZM1.25,11.487A6.438,6.438,0,0,1,2.718,7.377a11.323,11.323,0,0,1,2.907,7.609V25.75A1.251,1.251,0,0,1,4.375,27H1.25Z"/>
    <circle id="Ellipse_4" data-name="Ellipse 4" class="cls-1" cx="0.625" cy="0.625" r="0.625" transform="translate(15.375 28.875)"/>
  </g>
</svg>
