<svg xmlns="http://www.w3.org/2000/svg" width="32" height="26.938" viewBox="0 0 32 26.938">
  <defs>
    <style>
      .cls-1 {
        fill: #fff;
      }
    </style>
  </defs>
  <g id="plotter" transform="translate(0 -40.497)">
    <path id="Path_65" data-name="Path 65" class="cls-1" d="M30.008,40.5H1.992A1.994,1.994,0,0,0,0,42.489V50.42a1.994,1.994,0,0,0,1.732,1.974v13.79H.625a.625.625,0,1,0,0,1.25H6.712a.625.625,0,0,0,0-1.25H5.588V59.923H7.144v3.366a.625.625,0,0,0,.625.625H24.274a.625.625,0,0,0,.625-.625V59.923h1.674v6.262H25.288a.625.625,0,0,0,0,1.25h6.087a.625.625,0,1,0,0-1.25H30.3V52.39A2,2,0,0,0,32,50.42V42.489A1.994,1.994,0,0,0,30.008,40.5ZM1.25,42.489a.743.743,0,0,1,.742-.742H30.008a.743.743,0,0,1,.742.742v5.668H24.906V46.674a.625.625,0,0,0-.625-.625H7.769a.625.625,0,0,0-.625.625v1.483H1.25Zm0,7.932V49.407H7.144v1.755H1.992a.743.743,0,0,1-.742-.742ZM2.982,66.185V52.412H4.338V66.185Zm2.606-7.512V52.412H7.144v6.261Zm2.805,3.991V47.3H23.649V62.664ZM24.9,58.673V52.412h1.674v6.261Zm2.924,7.512V52.412h1.231V66.185ZM30.75,50.42a.743.743,0,0,1-.742.742H24.9V49.407H30.75Z"/>
    <path id="Path_66" data-name="Path 66" class="cls-1" d="M186.552,193.089h-8.677a.625.625,0,0,0,0,1.25h8.677a.625.625,0,0,0,0-1.25Z" transform="translate(-166.172 -143.055)"/>
    <path id="Path_67" data-name="Path 67" class="cls-1" d="M186.552,246.2h-8.677a.625.625,0,0,0,0,1.25h8.677a.625.625,0,0,0,0-1.25Z" transform="translate(-166.172 -192.847)"/>
    <path id="Path_68" data-name="Path 68" class="cls-1" d="M186.552,298.311h-8.677a.625.625,0,0,0-.625.625v2.749a.625.625,0,0,0,.625.625h8.677a.625.625,0,0,0,.625-.625v-2.749A.625.625,0,0,0,186.552,298.311Zm-.625,2.749H178.5v-1.5h7.427Z" transform="translate(-166.172 -241.701)"/>
    <path id="Path_69" data-name="Path 69" class="cls-1" d="M341.773,86.8h4.116a.625.625,0,0,0,0-1.25h-4.116a.625.625,0,0,0,0,1.25Z" transform="translate(-319.826 -42.241)"/>
    <path id="Path_70" data-name="Path 70" class="cls-1" d="M451.265,86.444a.625.625,0,1,0,.217-.75A.629.629,0,0,0,451.265,86.444Z" transform="translate(-423.017 -42.267)"/>
  </g>
</svg>
