<svg id="XMLID_1641_" xmlns="http://www.w3.org/2000/svg" width="32" height="32" viewBox="0 0 32 32">
  <defs>
    <style>
      .cls-1 {
        fill: #fff;
      }
    </style>
  </defs>
  <g id="XMLID_104_">
    <path id="XMLID_123_" class="cls-1" d="M28.875,6.166h-3.5V.625A.625.625,0,0,0,24.75,0H7.25a.625.625,0,0,0-.625.625V6.166h-3.5A3.129,3.129,0,0,0,0,9.291v12.5a3.129,3.129,0,0,0,3.125,3.125h3.5v6.459A.625.625,0,0,0,7.25,32h17.5a.625.625,0,0,0,.625-.625V24.916h3.5A3.129,3.129,0,0,0,32,21.791V9.291A3.129,3.129,0,0,0,28.875,6.166Zm-23.75,17.5V19h1.5v4.666Zm19,4.056-3.153-4.664a.625.625,0,0,0-.514-.275h0a.625.625,0,0,0-.514.27l-3.014,4.36L12.453,20.8a.625.625,0,0,0-.514-.275h0a.625.625,0,0,0-.514.27L7.875,25.92V24.291h0V19h16.25Zm-16.25.4,4.055-5.865,5.744,8.5h-9.8ZM19.182,30.75l-1.5-2.226,2.771-4.009,3.676,5.438v.8ZM25.375,19h1.5v4.666h-1.5Zm5.375,2.791a1.877,1.877,0,0,1-1.875,1.875h-.75V18.375a.625.625,0,0,0-.625-.625H4.5a.625.625,0,0,0-.625.625v5.291h-.75A1.877,1.877,0,0,1,1.25,21.791V9.291A1.877,1.877,0,0,1,3.125,7.416H13.2a.625.625,0,0,0,0-1.25H7.875V1.25h16.25V6.166h-5.3a.625.625,0,0,0,0,1.25H28.875A1.877,1.877,0,0,1,30.75,9.291Z"/>
    <path id="XMLID_415_" class="cls-1" d="M64,159.444a2,2,0,1,0,2,2A2,2,0,0,0,64,159.444Zm0,2.75a.75.75,0,1,1,.75-.75A.751.751,0,0,1,64,162.194Z" transform="translate(-58.125 -149.479)"/>
    <path id="XMLID_494_" class="cls-1" d="M152,159.444a2,2,0,1,0,2,2A2,2,0,0,0,152,159.444Zm0,2.75a.75.75,0,1,1,.75-.75A.751.751,0,0,1,152,162.194Z" transform="translate(-140.625 -149.479)"/>
    <path id="XMLID_495_" class="cls-1" d="M246.755,98.65a.625.625,0,1,0,.442.183A.629.629,0,0,0,246.755,98.65Z" transform="translate(-230.747 -92.484)"/>
  </g>
</svg>
