<svg id="sweater" xmlns="http://www.w3.org/2000/svg" width="32" height="32" viewBox="0 0 32 32">
  <defs>
    <style>
      .cls-1 {
        fill: #fff;
      }
    </style>
  </defs>
  <path id="XMLID_837_" class="cls-1" d="M30.864,6.175A10.274,10.274,0,0,0,21.513,0H10.487a10.275,10.275,0,0,0-9.35,6.175A13.59,13.59,0,0,0,0,11.632V26.125a1.25,1.25,0,0,0,.625,1.081v1.419a1.251,1.251,0,0,0,1.25,1.25h2.5a1.251,1.251,0,0,0,1.25-1.25v-.548A2.628,2.628,0,0,0,7,28.924V30.75A1.251,1.251,0,0,0,8.25,32h15.5A1.251,1.251,0,0,0,25,30.75V28.924a2.628,2.628,0,0,0,1.375-.852v.553a1.251,1.251,0,0,0,1.25,1.25h2.5a1.251,1.251,0,0,0,1.25-1.25V27.206A1.25,1.25,0,0,0,32,26.125v-4.5a.625.625,0,0,0-1.25,0v4.5H27V11.906L30.36,8.542a12.367,12.367,0,0,1,.39,3.09V16A.625.625,0,1,0,32,16V11.632a13.59,13.59,0,0,0-1.136-5.457ZM13.021,4.48l.893-.893a3.6,3.6,0,0,0,1.461.608V5.459a4.849,4.849,0,0,1-2.354-.979Zm3.6-.285a3.605,3.605,0,0,0,1.461-.608l.893.893a4.85,4.85,0,0,1-2.354.979Zm3.237-.6L18.969,2.7a3.6,3.6,0,0,0,.6-1.452h1.265A4.85,4.85,0,0,1,19.862,3.6ZM18.292,1.25a2.375,2.375,0,0,1-4.583,0Zm-5.861,0a3.6,3.6,0,0,0,.6,1.452l-.893.893a4.849,4.849,0,0,1-.973-2.345H12.43ZM5,26.125H1.25V11.632a12.369,12.369,0,0,1,.39-3.09L5,11.9Zm-.621,2.5h-2.5v-1.25h2.5ZM8.25,29H9.875v1.75H8.25Zm12.625,0v1.75h-1.5V29Zm-2.75,1.75h-1.5V29h1.5Zm-2.75,0h-1.5V29h1.5Zm-2.75,0h-1.5V29h1.5Zm11.121,0H22.125V29h1.621v1.75h0Zm6.379-3.375v1.25h-2.5v-1.25ZM27,10.138V7.716a.625.625,0,0,0-1.25,0V26.375a1.377,1.377,0,0,1-1.375,1.375H7.625A1.377,1.377,0,0,1,6.25,26.375V7.716a.625.625,0,0,0-1.25,0v2.419L2.067,7.2c.068-.177.139-.353.215-.528a9.025,9.025,0,0,1,7.627-5.4,6.109,6.109,0,0,0,1.751,3.67l.006.007,0,0a6.115,6.115,0,0,0,8.658,0l0,0,.006-.007a6.11,6.11,0,0,0,1.751-3.67,9.025,9.025,0,0,1,7.627,5.4c.076.175.147.351.215.528Z"/>
  <path id="XMLID_1517_" class="cls-1" d="M492.625,291a.625.625,0,1,0,.442.183A.63.63,0,0,0,492.625,291Z" transform="translate(-461.25 -272.813)"/>
</svg>
