<svg xmlns="http://www.w3.org/2000/svg" width="31.197" height="32" viewBox="0 0 31.197 32">
  <defs>
    <style>
      .cls-1 {
        fill: #fff;
      }
    </style>
  </defs>
  <g id="tshirt" transform="translate(-6.424 0)">
    <circle id="Ellipse_10" data-name="Ellipse 10" class="cls-1" cx="0.625" cy="0.625" r="0.625" transform="translate(21.398 30.75)"/>
    <path id="Path_124" data-name="Path 124" class="cls-1" d="M37.542,11.688l-2.726-7.3A4.379,4.379,0,0,0,32.3,1.843L27.667.042a.631.631,0,0,0-.516.029h0a11.1,11.1,0,0,1-5.128,1.262A11.1,11.1,0,0,1,16.894.071h0a.631.631,0,0,0-.516-.029l-4.635,1.8A4.379,4.379,0,0,0,9.23,4.39L6.5,11.688a1.25,1.25,0,0,0,.455,1.462L11.5,16.326V30.75A1.251,1.251,0,0,0,12.752,32H19.21a.625.625,0,1,0,0-1.25H12.752V29.5h18.54v1.25H24.835a.625.625,0,1,0,0,1.25h6.458a1.251,1.251,0,0,0,1.25-1.25V16.326l4.544-3.176a1.25,1.25,0,0,0,.455-1.462Zm-21.3-10.25a6.386,6.386,0,0,0,2.052,2.631,6.169,6.169,0,0,0,3.733,1.256,6.168,6.168,0,0,0,3.733-1.256,6.386,6.386,0,0,0,2.052-2.631l1.166.453a7.634,7.634,0,0,1-2.467,3.177,7.408,7.408,0,0,1-4.484,1.508,7.409,7.409,0,0,1-4.484-1.508,7.634,7.634,0,0,1-2.467-3.177Zm9.912.43a5.065,5.065,0,0,1-4.126,2.207A5.065,5.065,0,0,1,17.9,1.868a12.3,12.3,0,0,0,4.126.715A12.3,12.3,0,0,0,26.149,1.868ZM32.543,14.8V10.46a.625.625,0,1,0-1.25,0V28.25H12.752V10.46a.625.625,0,0,0-1.25,0V14.8L7.674,12.126l2.726-7.3a3.128,3.128,0,0,1,1.8-1.819l1.709-.664a8.878,8.878,0,0,0,2.881,3.723,8.65,8.65,0,0,0,5.236,1.759,8.649,8.649,0,0,0,5.236-1.759,8.878,8.878,0,0,0,2.881-3.723l1.709.664a3.128,3.128,0,0,1,1.8,1.819l2.726,7.3Z" transform="translate(0 0)"/>
  </g>
</svg>
