<svg xmlns="http://www.w3.org/2000/svg" width="32" height="30.125" viewBox="0 0 32 30.125">
  <defs>
    <style>
      .cls-1 {
        fill: #fff;
      }
    </style>
  </defs>
  <g id="iron" transform="translate(0.002)">
    <path id="Path_45" data-name="Path 45" class="cls-1" d="M31.373,18.875H20.5V13.25H31.373a.625.625,0,0,0,.606-.777l-.152-.606A3.121,3.121,0,0,0,28.8,9.5H21.623A4.972,4.972,0,0,0,21.2,7.494,3.75,3.75,0,0,0,21,0H11a3.75,3.75,0,0,0-.2,7.494A4.968,4.968,0,0,0,10.373,9.5H3.2A3.12,3.12,0,0,0,.168,11.867l-.152.606a.625.625,0,0,0,.606.777H11.5v5.625H.623a.625.625,0,0,0-.606.777l.152.606a3.119,3.119,0,0,0,2.955,2.365V25.75A4.38,4.38,0,0,0,7.5,30.125h17a4.38,4.38,0,0,0,4.375-4.375V22.623a3.12,3.12,0,0,0,2.955-2.365l.152-.606a.625.625,0,0,0-.606-.777ZM8.5,3.75A2.5,2.5,0,0,1,11,1.25H21a2.5,2.5,0,1,1,0,5h-.58a4.99,4.99,0,0,0-3.8-1.75h-1.25a4.989,4.989,0,0,0-3.795,1.75H11a2.5,2.5,0,0,1-2.5-2.5ZM20.373,9.5h-8.75a3.754,3.754,0,0,1,3.75-3.75h1.25A3.754,3.754,0,0,1,20.373,9.5ZM1.432,12A1.872,1.872,0,0,1,3.2,10.75H28.8A1.872,1.872,0,0,1,30.564,12Zm11.316,2.5V13.25h6.5V14.5Zm6.5,1.25v3.125h-6.5V15.75Zm8.375,9.375H18.5a.625.625,0,0,0,0,1.25H27.56a3.13,3.13,0,0,1-3.062,2.5H7.5a3.13,3.13,0,0,1-3.062-2.5H13.5a.625.625,0,0,0,0-1.25H4.373v-2.5h23.25Zm1.173-3.75H3.2a1.872,1.872,0,0,1-1.768-1.25H30.564a1.872,1.872,0,0,1-1.768,1.25Zm0,0" transform="translate(0)"/>
    <path id="Path_46" data-name="Path 46" class="cls-1" d="M246.625,403.25a.625.625,0,1,0-.625-.625A.626.626,0,0,0,246.625,403.25Zm0,0" transform="translate(-230.627 -376.875)"/>
  </g>
</svg>
