<svg id="carpenter" xmlns="http://www.w3.org/2000/svg" width="32" height="32" viewBox="0 0 32 32">
  <defs>
    <style>
      .cls-1 {
        fill: #fff;
      }
    </style>
  </defs>
  <g id="Group_6" data-name="Group 6" transform="translate(0 0)">
    <g id="Group_5" data-name="Group 5">
      <path id="Path_8" data-name="Path 8" class="cls-1" d="M31.375,7.267H29.5a.625.625,0,0,0-.6.45l-.631,2.158H25.514V5.68a.68.68,0,0,1,.68-.68H27.58a1.17,1.17,0,0,1,1.169,1.169.625.625,0,0,0,.625.625h1.339a.625.625,0,0,0,.625-.625v-1.6A4.578,4.578,0,0,0,26.765,0H21.791a.625.625,0,0,0-.6.449l-.072.244h-.166L20.731.311A.625.625,0,0,0,20.191,0h-2.12a.625.625,0,0,0-.625.625V4.987a.625.625,0,0,0,.625.625h2.12a.625.625,0,0,0,.54-.311l.222-.382h.094l.119.807V9.875H19.188v-.26A.629.629,0,0,0,19.1,9.3l-2-3.445a.625.625,0,0,0-1.081,0l-2,3.445a.629.629,0,0,0-.085.314v.26H12.525L14.049.728A.625.625,0,0,0,13.433,0H5.75a.625.625,0,0,0-.625.625v9.25H3.731L3.1,7.717a.625.625,0,0,0-.6-.45H.625A.625.625,0,0,0,0,7.892V31.375A.625.625,0,0,0,.625,32h30.75A.625.625,0,0,0,32,31.375V7.892A.625.625,0,0,0,31.375,7.267ZM27.9,11.125,26.552,15.75h-.3v-3.5a1.8,1.8,0,0,0-.392-1.124Zm-7.31-7.456a.625.625,0,0,0-.54.311l-.222.382H18.7V1.25h1.135l.222.382a.625.625,0,0,0,.54.311h.993a.625.625,0,0,0,.6-.449l.072-.244h4.506a3.327,3.327,0,0,1,3.323,3.323v.972h-.17A2.423,2.423,0,0,0,27.58,3.751H26.194a1.933,1.933,0,0,0-1.826,1.3H22.331L22.205,4.2a.625.625,0,0,0-.618-.534h-.993Zm3.841,8.018a.563.563,0,0,1,.563.563v3.5H21.682v-3.5a.563.563,0,0,1,.563-.562Zm-2.02-1.25V6.305h1.848v4.131Zm-3.228.688h1.637a1.8,1.8,0,0,0-.392,1.124v3.5H19.188Zm-2.625-3.71.915,1.576H15.648ZM15.188,10.24h2.75v5.51h-2.75Zm-1.25.885V15.75H11.546l.771-4.625ZM8.686,1.25h1.707l-.238,1.5H8.686Zm-2.311,0H7.436V3.375A.625.625,0,0,0,8.061,4h2.627a.625.625,0,0,0,.617-.527l.353-2.223H12.7l-.716,4.294h-5.6Zm0,5.544h5.4L10.279,15.75h-3.9Zm-1.25,4.33v3.521L4.1,11.125ZM30.75,23.25H21.484a.625.625,0,0,0,0,1.25H30.75v3.75H19.913a.625.625,0,0,0,0,1.25H30.75v1.25H1.25V8.517h.781l.633,2.167v0L4.379,16.55a.625.625,0,0,0,.6.45H27.021a.625.625,0,0,0,.6-.45l2.348-8.033h.781Z" transform="translate(0 0)"/>
    </g>
  </g>
  <g id="Group_8" data-name="Group 8" transform="translate(2.5 28.25)">
    <g id="Group_7" data-name="Group 7">
      <path id="Path_9" data-name="Path 9" class="cls-1" d="M41.067,452.183a.625.625,0,1,0,.183.442A.63.63,0,0,0,41.067,452.183Z" transform="translate(-40 -452)"/>
    </g>
  </g>
  <g id="Group_10" data-name="Group 10" transform="translate(2.5 19.001)">
    <g id="Group_9" data-name="Group 9">
      <path id="Path_10" data-name="Path 10" class="cls-1" d="M41.067,304.193a.625.625,0,1,0,.183.442A.63.63,0,0,0,41.067,304.193Z" transform="translate(-40 -304.01)"/>
    </g>
  </g>
  <g id="Group_12" data-name="Group 12" transform="translate(28.25 19.001)">
    <g id="Group_11" data-name="Group 11">
      <path id="Path_11" data-name="Path 11" class="cls-1" d="M453.067,304.193a.625.625,0,1,0,.183.442A.63.63,0,0,0,453.067,304.193Z" transform="translate(-452 -304.01)"/>
    </g>
  </g>
  <g id="Group_14" data-name="Group 14" transform="translate(16.75 28.25)">
    <g id="Group_13" data-name="Group 13">
      <path id="Path_12" data-name="Path 12" class="cls-1" d="M269.067,452.183a.625.625,0,1,0,.183.442A.63.63,0,0,0,269.067,452.183Z" transform="translate(-268 -452)"/>
    </g>
  </g>
  <g id="Group_16" data-name="Group 16" transform="translate(4.406 25.75)">
    <g id="Group_15" data-name="Group 15">
      <path id="Path_13" data-name="Path 13" class="cls-1" d="M80.023,412H71.116a.625.625,0,0,0,0,1.25h8.907a.625.625,0,0,0,0-1.25Z" transform="translate(-70.491 -412)"/>
    </g>
  </g>
  <g id="Group_18" data-name="Group 18" transform="translate(2.5 21.359)">
    <g id="Group_17" data-name="Group 17">
      <path id="Path_14" data-name="Path 14" class="cls-1" d="M47.49,341.751H40.625a.625.625,0,0,0,0,1.25H47.49a.625.625,0,0,0,0-1.25Z" transform="translate(-40 -341.751)"/>
    </g>
  </g>
  <g id="Group_20" data-name="Group 20" transform="translate(18.143 23.25)">
    <g id="Group_19" data-name="Group 19">
      <path id="Path_15" data-name="Path 15" class="cls-1" d="M290.968,372h-.051a.625.625,0,0,0,0,1.25h.051a.625.625,0,0,0,0-1.25Z" transform="translate(-290.292 -372)"/>
    </g>
  </g>
</svg>
