<svg xmlns="http://www.w3.org/2000/svg" width="28.75" height="32" viewBox="0 0 28.75 32">
  <defs>
    <style>
      .cls-1 {
        fill: #fff;
      }
    </style>
  </defs>
  <g id="umbrella" transform="translate(-26.002)">
    <g id="Group_75" data-name="Group 75" transform="translate(26.002)">
      <path id="Path_125" data-name="Path 125" class="cls-1" d="M50.341,6.218a15.18,15.18,0,0,0-8.089-3.6V1.875a1.875,1.875,0,1,0-3.75,0v.744a15.18,15.18,0,0,0-8.089,3.6A12.665,12.665,0,0,0,26,15.81a.619.619,0,0,0,0,.077,1.411,1.411,0,0,0,1.99,1.2c1.409-.642,3.649-.585,4.758.48a1.382,1.382,0,0,0,.27.626,1.414,1.414,0,0,0,1.967.268A9.4,9.4,0,0,1,38.5,16.793V27A1.25,1.25,0,0,1,36,27a1.875,1.875,0,1,0-3.75,0,5,5,0,1,0,10,0V16.793a9.375,9.375,0,0,1,3.435,1.614A1.413,1.413,0,0,0,48,17.565a4.759,4.759,0,0,1,4.683-.506,1.411,1.411,0,0,0,2.065-1.248,12.666,12.666,0,0,0-4.411-9.591ZM39.752,1.875a.625.625,0,1,1,1.25,0v.639c-.208-.009-.417-.014-.625-.014s-.417,0-.625.014Zm-2.5,28.875A3.754,3.754,0,0,1,33.5,27a.625.625,0,1,1,1.25,0,2.5,2.5,0,0,0,5,0V23.875H41V27A3.754,3.754,0,0,1,37.252,30.75ZM41,22.625h-1.25V16.6q.312-.024.625-.024T41,16.6ZM46.61,17.5a.161.161,0,0,1-.11-.042.616.616,0,0,0-.048-.039,9.867,9.867,0,0,0-12.212.046.163.163,0,0,1-.223-.029.141.141,0,0,1-.03-.087.612.612,0,0,0,0-.066,28.5,28.5,0,0,1,.5-4.863.625.625,0,0,0-1.228-.232,30.7,30.7,0,0,0-.483,3.867,6.322,6.322,0,0,0-5.3-.1.15.15,0,0,1-.148-.012.156.156,0,0,1-.075-.129c0-.019,0-.038,0-.056.027-5.963,4.426-10.1,9.422-11.488a9.57,9.57,0,0,0-1.663,2.4.625.625,0,1,0,1.116.563C37.252,5,38.682,3.87,40.377,3.87a3.893,3.893,0,0,1,2.968,1.436A10.83,10.83,0,0,1,45.371,9a27.87,27.87,0,0,1,1.4,8.345A.157.157,0,0,1,46.61,17.5Zm6.731-1.531a.158.158,0,0,1-.078-.02c-.017-.009-.035-.018-.052-.026a6.36,6.36,0,0,0-5.231.133,28.759,28.759,0,0,0-1.43-7.468,11.6,11.6,0,0,0-2.478-4.324c5.015,1.393,9.43,5.55,9.43,11.546a.16.16,0,0,1-.16.159Z" transform="translate(-26.002)"/>
      <path id="Path_126" data-name="Path 126" class="cls-1" d="M153.213,143.118h0a.625.625,0,1,0,.625.625A.625.625,0,0,0,153.213,143.118Z" transform="translate(-144.676 -134.173)"/>
    </g>
  </g>
</svg>
