<svg xmlns="http://www.w3.org/2000/svg" width="32" height="31.996" viewBox="0 0 32 31.996">
  <defs>
    <style>
      .cls-1 {
        fill: #fff;
      }
    </style>
  </defs>
  <g id="usb" transform="translate(0 -0.03)">
    <g id="Group_76" data-name="Group 76" transform="translate(0 0.03)">
      <path id="Path_127" data-name="Path 127" class="cls-1" d="M31.817,7.622,24.408.213a.625.625,0,0,0-.884,0L19.671,4.066,18.664,3.058a.625.625,0,0,0-.884,0l-7.519,7.519a.625.625,0,0,0,.884.884l2.879-2.879,9.424,9.424L12.626,28.828A6.664,6.664,0,0,1,3.2,19.4l3.965-3.965a.625.625,0,1,0-.884-.884L2.318,18.52A7.914,7.914,0,0,0,13.51,29.712L28.971,14.25a.625.625,0,0,0,0-.884l-1.008-1.008,3.853-3.853a.625.625,0,0,0,0-.884Zm-7.485,9.5L14.907,7.7l3.314-3.314,9.424,9.424Zm2.749-5.648L20.555,4.95l3.411-3.411,6.525,6.525Z" transform="translate(0 -0.03)"/>
      <path id="Path_128" data-name="Path 128" class="cls-1" d="M413.549,110.235a.623.623,0,0,0,.442-.183l.771-.771a.625.625,0,0,0-.884-.884l-.771.771a.625.625,0,0,0,.442,1.067Z" transform="translate(-387.116 -101.452)"/>
      <path id="Path_129" data-name="Path 129" class="cls-1" d="M371.875,68.82a.625.625,0,0,0,.884,0l.772-.772a.625.625,0,0,0-.884-.884l-.771.771A.625.625,0,0,0,371.875,68.82Z" transform="translate(-348.461 -62.798)"/>
      <path id="Path_130" data-name="Path 130" class="cls-1" d="M102.989,236.171l-2.034,2.034a.625.625,0,1,0,.884.884l.753-.753,3.816,1.042a.625.625,0,0,0,.607-.161l2.189-2.189a1.877,1.877,0,1,0-.883-.885l-1.933,1.933-2.777-.758,5.594-5.594a1.875,1.875,0,1,0-.884-.884l-4.314,4.314-.758-2.777.652-.652a1.875,1.875,0,1,0-.884-.884l-.909.909a.625.625,0,0,0-.161.607Zm6.581-1.278a.625.625,0,1,1-.183.442A.621.621,0,0,1,109.57,234.893Zm0-5.3a.625.625,0,1,1,.006.889l-.006-.006-.006-.006a.624.624,0,0,1,.006-.878Zm-5.3,0a.625.625,0,1,1-.183.442A.621.621,0,0,1,104.267,229.59Z" transform="translate(-94.474 -213.899)"/>
      <circle id="Ellipse_11" data-name="Ellipse 11" class="cls-1" cx="0.625" cy="0.625" r="0.625" transform="translate(8.089 12.353)"/>
    </g>
  </g>
</svg>
