<svg xmlns="http://www.w3.org/2000/svg" width="32" height="32.001" viewBox="0 0 32 32.001">
  <defs>
    <style>
      .cls-1 {
        fill: #fff;
      }
    </style>
  </defs>
  <g id="wallet" transform="translate(-0.007 0)">
    <g id="Group_78" data-name="Group 78" transform="translate(14.233 20.869)">
      <g id="Group_77" data-name="Group 77">
        <path id="Path_131" data-name="Path 131" class="cls-1" d="M229.24,333.891a1.625,1.625,0,1,0,1.625,1.625A1.627,1.627,0,0,0,229.24,333.891Zm0,2a.375.375,0,1,1,.375-.375A.375.375,0,0,1,229.24,335.891Z" transform="translate(-227.615 -333.891)"/>
      </g>
    </g>
    <g id="Group_80" data-name="Group 80" transform="translate(19.808 18.614)">
      <g id="Group_79" data-name="Group 79">
        <path id="Path_132" data-name="Path 132" class="cls-1" d="M317.875,298a.625.625,0,1,0,.183.442A.63.63,0,0,0,317.875,298Z" transform="translate(-316.808 -297.819)"/>
      </g>
    </g>
    <g id="Group_82" data-name="Group 82" transform="translate(0.007 0)">
      <g id="Group_81" data-name="Group 81" transform="translate(0)">
        <path id="Path_133" data-name="Path 133" class="cls-1" d="M28.882,9h-.674L19.392.183a.625.625,0,0,0-.884,0L16.25,2.442,7.217.022a.625.625,0,0,0-.766.442L4.164,9H2.632A2.628,2.628,0,0,0,.007,11.625c0,.035,0,.069,0,.1,0,.017,0,.034,0,.052v17.1A3.129,3.129,0,0,0,3.132,32h25.75a3.129,3.129,0,0,0,3.125-3.125V12.125A3.128,3.128,0,0,0,28.882,9Zm-.558,1.25h.558a1.877,1.877,0,0,1,1.875,1.875v5.009a1.483,1.483,0,0,1-1.481,1.481h-.644v-2.49A3.128,3.128,0,0,0,25.572,13ZM16.878,3.581h0L18.95,1.509l8.173,8.173-3.3,3.3H22.683l1.5-1.5a.625.625,0,0,0,0-.884,1.3,1.3,0,0,1,0-1.835.625.625,0,0,0,0-.884L20.752,4.454a.625.625,0,0,0-.884,0,1.3,1.3,0,0,1-1.835,0,.625.625,0,0,0-.884,0L8.623,12.979H7.48Zm-1.839,7.05a2.987,2.987,0,0,0-2.914,2.348H10.391l7.254-7.254a2.557,2.557,0,0,0,2.609,0l2.653,2.653a2.557,2.557,0,0,0,0,2.609l-1.992,1.992H17.953A2.987,2.987,0,0,0,15.039,10.631Zm1.612,2.348H13.428a1.732,1.732,0,0,1,3.223,0ZM6.819,11.872,8.475,5.695A2.555,2.555,0,0,0,10.735,4.39l2.813.754L9.466,9.225ZM7.5,1.391l7.732,2.072-.66.66L10.529,3.04a.625.625,0,0,0-.765.442A1.3,1.3,0,0,1,8.175,4.4a.625.625,0,0,0-.765.442L5.223,13H4.386ZM2.632,10.25h1.2L3.092,13h-.46a1.375,1.375,0,1,1,0-2.75ZM30.757,28.875a1.877,1.877,0,0,1-1.875,1.875h-.876a3.108,3.108,0,0,0,.626-1.874V26.365h.375a2.983,2.983,0,0,0,1.75-.566Zm0-5.51a1.752,1.752,0,0,1-1.75,1.75H15.882a2.625,2.625,0,0,1,0-5.25h1.894a.625.625,0,1,0,0-1.25H15.882a3.875,3.875,0,1,0,0,7.75h11.5v2.511a1.877,1.877,0,0,1-1.846,1.875H4.257V23.713a.625.625,0,0,0-1.25,0v7.034a1.877,1.877,0,0,1-1.75-1.87V13.86a2.609,2.609,0,0,0,1.375.39H25.507a1.877,1.877,0,0,1,1.875,1.875v2.49H22.863a.625.625,0,1,0,0,1.25h6.413a2.714,2.714,0,0,0,1.481-.438v3.938Z" transform="translate(-0.007 0)"/>
      </g>
    </g>
    <g id="Group_84" data-name="Group 84" transform="translate(3.007 20.65)">
      <g id="Group_83" data-name="Group 83">
        <path id="Path_134" data-name="Path 134" class="cls-1" d="M49.073,330.571a.625.625,0,1,0,.183.442A.63.63,0,0,0,49.073,330.571Z" transform="translate(-48.006 -330.388)"/>
      </g>
    </g>
  </g>
</svg>
